AnekDevanagari-ExtraBold.ufo
<glyph name="quotedbl" format="2">
  <advance width="861"/>
  <unicode hex="0022"/>
  <outline>
    <contour>
      <point x="388" y="1319" type="line"/>
      <point x="53" y="1319" type="line"/>
      <point x="87" y="791" type="line"/>
      <point x="352" y="791" type="line"/>
    </contour>
    <contour>
      <point x="808" y="1319" type="line"/>
      <point x="473" y="1319" type="line"/>
      <point x="507" y="791" type="line"/>
      <point x="772" y="791" type="line"/>
    </contour>
  </outline>
</glyph>
<glyph name="dollar" format="2">
  <advance width="1093"/>
  <unicode hex="0024"/>
  <anchor x="538" y="0" name="bottom"/>
  <anchor x="538" y="1278" name="top"/>
  <outline>
    <contour>
      <point x="688" y="1474" type="line"/>
      <point x="391" y="1474" type="line"/>
      <point x="391" y="1123" type="line"/>
      <point x="688" y="1123" type="line"/>
    </contour>
    <contour>
      <point x="688" y="162" type="line"/>
      <point x="391" y="162" type="line"/>
      <point x="391" y="-200" type="line"/>
      <point x="688" y="-200" type="line"/>
    </contour>
    <contour>
      <point x="516" y="-29" type="curve" smooth="yes"/>
      <point x="871" y="-29"/>
      <point x="1040" y="103"/>
      <point x="1040" y="369" type="curve" smooth="yes"/>
      <point x="1040" y="383" type="line" smooth="yes"/>
      <point x="1040" y="622"/>
      <point x="903" y="693"/>
      <point x="643" y="775" type="curve" smooth="yes"/>
      <point x="460" y="833"/>
      <point x="417" y="863"/>
      <point x="417" y="919" type="curve" smooth="yes"/>
      <point x="417" y="922" type="line" smooth="yes"/>
      <point x="417" y="975"/>
      <point x="454" y="1005"/>
      <point x="597" y="1005" type="curve" smooth="yes"/>
      <point x="741" y="1005"/>
      <point x="874" y="970"/>
      <point x="981" y="922" type="curve"/>
      <point x="950" y="1228" type="line"/>
      <point x="851" y="1272"/>
      <point x="719" y="1307"/>
      <point x="534" y="1307" type="curve" smooth="yes"/>
      <point x="218" y="1307"/>
      <point x="50" y="1178"/>
      <point x="50" y="939" type="curve" smooth="yes"/>
      <point x="50" y="924" type="line" smooth="yes"/>
      <point x="50" y="691"/>
      <point x="190" y="602"/>
      <point x="453" y="518" type="curve" smooth="yes"/>
      <point x="615" y="466"/>
      <point x="671" y="442"/>
      <point x="671" y="377" type="curve" smooth="yes"/>
      <point x="671" y="373" type="line" smooth="yes"/>
      <point x="671" y="308"/>
      <point x="621" y="280"/>
      <point x="479" y="280" type="curve" smooth="yes"/>
      <point x="319" y="280"/>
      <point x="167" y="329"/>
      <point x="61" y="375" type="curve"/>
      <point x="92" y="47" type="line"/>
      <point x="192" y="9"/>
      <point x="340" y="-29"/>
    </contour>
  </outline>
</glyph>
<glyph name="percent" format="2">
  <advance width="1595"/>
  <unicode hex="0025"/>
  <outline>
    <contour>
      <point x="544" y="0" type="line"/>
      <point x="1333" y="1278" type="line"/>
      <point x="1055" y="1278" type="line"/>
      <point x="262" y="0" type="line"/>
    </contour>
    <contour>
      <point x="1226" y="-35" type="curve" smooth="yes"/>
      <point x="1428" y="-35"/>
      <point x="1540" y="76"/>
      <point x="1540" y="279" type="curve" smooth="yes"/>
      <point x="1540" y="341" type="line" smooth="yes"/>
      <point x="1540" y="545"/>
      <point x="1428" y="654"/>
      <point x="1226" y="654" type="curve" smooth="yes"/>
      <point x="1023" y="654"/>
      <point x="912" y="545"/>
      <point x="912" y="341" type="curve" smooth="yes"/>
      <point x="912" y="279" type="line" smooth="yes"/>
      <point x="912" y="74"/>
      <point x="1023" y="-35"/>
    </contour>
    <contour>
      <point x="1226" y="156" type="curve" smooth="yes"/>
      <point x="1170" y="156"/>
      <point x="1143" y="192"/>
      <point x="1143" y="264" type="curve" smooth="yes"/>
      <point x="1143" y="355" type="line" smooth="yes"/>
      <point x="1143" y="427"/>
      <point x="1170" y="463"/>
      <point x="1226" y="463" type="curve" smooth="yes"/>
      <point x="1282" y="463"/>
      <point x="1309" y="427"/>
      <point x="1309" y="355" type="curve" smooth="yes"/>
      <point x="1309" y="264" type="line" smooth="yes"/>
      <point x="1309" y="192"/>
      <point x="1282" y="156"/>
    </contour>
    <contour>
      <point x="369" y="622" type="curve" smooth="yes"/>
      <point x="571" y="622"/>
      <point x="683" y="733"/>
      <point x="683" y="936" type="curve" smooth="yes"/>
      <point x="683" y="998" type="line" smooth="yes"/>
      <point x="683" y="1202"/>
      <point x="571" y="1311"/>
      <point x="369" y="1311" type="curve" smooth="yes"/>
      <point x="166" y="1311"/>
      <point x="55" y="1202"/>
      <point x="55" y="998" type="curve" smooth="yes"/>
      <point x="55" y="936" type="line" smooth="yes"/>
      <point x="55" y="731"/>
      <point x="166" y="622"/>
    </contour>
    <contour>
      <point x="369" y="813" type="curve" smooth="yes"/>
      <point x="313" y="813"/>
      <point x="286" y="849"/>
      <point x="286" y="921" type="curve" smooth="yes"/>
      <point x="286" y="1012" type="line" smooth="yes"/>
      <point x="286" y="1084"/>
      <point x="313" y="1120"/>
      <point x="369" y="1120" type="curve" smooth="yes"/>
      <point x="425" y="1120"/>
      <point x="452" y="1084"/>
      <point x="452" y="1012" type="curve" smooth="yes"/>
      <point x="452" y="921" type="line" smooth="yes"/>
      <point x="452" y="849"/>
      <point x="425" y="813"/>
    </contour>
  </outline>
</glyph>
<glyph name="ampersand" format="2">
  <advance width="1377"/>
  <unicode hex="0026"/>
  <outline>
    <contour>
      <point x="1411" y="1" type="line"/>
      <point x="1411" y="29" type="line"/>
      <point x="1288" y="171"/>
      <point x="1191" y="270"/>
      <point x="1066" y="401" type="curve"/>
      <point x="982" y="489" type="line"/>
      <point x="635" y="825" type="line" smooth="yes"/>
      <point x="580" y="878"/>
      <point x="553" y="909"/>
      <point x="553" y="946" type="curve" smooth="yes"/>
      <point x="553" y="949" type="line" smooth="yes"/>
      <point x="553" y="994"/>
      <point x="584" y="1021"/>
      <point x="672" y="1021" type="curve" smooth="yes"/>
      <point x="779" y="1021"/>
      <point x="899" y="997"/>
      <point x="993" y="965" type="curve"/>
      <point x="961" y="1245" type="line"/>
      <point x="871" y="1280"/>
      <point x="752" y="1307"/>
      <point x="588" y="1307" type="curve" smooth="yes"/>
      <point x="319" y="1307"/>
      <point x="178" y="1184"/>
      <point x="178" y="994" type="curve" smooth="yes"/>
      <point x="178" y="985" type="line" smooth="yes"/>
      <point x="178" y="878"/>
      <point x="220" y="801"/>
      <point x="314" y="710" type="curve"/>
      <point x="375" y="649" type="line"/>
      <point x="787" y="265" type="line"/>
      <point x="838" y="205" type="line"/>
      <point x="884" y="156"/>
      <point x="980" y="55"/>
      <point x="1033" y="1" type="curve"/>
    </contour>
    <contour>
      <point x="542" y="-31" type="curve" smooth="yes"/>
      <point x="754" y="-31"/>
      <point x="884" y="38"/>
      <point x="993" y="153" type="curve"/>
      <point x="1110" y="264" type="line"/>
      <point x="1246" y="423"/>
      <point x="1309" y="601"/>
      <point x="1335" y="810" type="curve"/>
      <point x="994" y="810" type="line"/>
      <point x="982" y="680"/>
      <point x="952" y="560"/>
      <point x="894" y="453" type="curve"/>
      <point x="797" y="340" type="line"/>
      <point x="747" y="289"/>
      <point x="681" y="255"/>
      <point x="584" y="255" type="curve" smooth="yes"/>
      <point x="464" y="255"/>
      <point x="405" y="313"/>
      <point x="405" y="416" type="curve" smooth="yes"/>
      <point x="405" y="428" type="line" smooth="yes"/>
      <point x="405" y="515"/>
      <point x="431" y="558"/>
      <point x="494" y="587" type="curve"/>
      <point x="301" y="785" type="line"/>
      <point x="130" y="695"/>
      <point x="58" y="576"/>
      <point x="58" y="400" type="curve" smooth="yes"/>
      <point x="58" y="384" type="line" smooth="yes"/>
      <point x="58" y="124"/>
      <point x="213" y="-31"/>
    </contour>
  </outline>
</glyph>
<glyph name="asterisk" format="2">
  <advance width="803"/>
  <unicode hex="002A"/>
  <outline>
    <contour>
      <point x="398" y="759" type="line"/>
      <point x="405" y="759" type="line"/>
      <point x="516" y="572" type="line"/>
      <point x="731" y="722" type="line"/>
      <point x="578" y="868" type="line"/>
      <point x="579" y="875" type="line"/>
      <point x="775" y="900" type="line"/>
      <point x="712" y="1157" type="line"/>
      <point x="514" y="1071" type="line"/>
      <point x="510" y="1075" type="line"/>
      <point x="544" y="1278" type="line"/>
      <point x="259" y="1278" type="line"/>
      <point x="293" y="1075" type="line"/>
      <point x="288" y="1071" type="line"/>
      <point x="91" y="1157" type="line"/>
      <point x="28" y="900" type="line"/>
      <point x="224" y="875" type="line"/>
      <point x="226" y="868" type="line"/>
      <point x="72" y="722" type="line"/>
      <point x="288" y="572" type="line"/>
    </contour>
  </outline>
</glyph>
<glyph name="three" format="2">
  <advance width="1040"/>
  <unicode hex="0033"/>
  <outline>
    <contour>
      <point x="458" y="-29" type="curve" smooth="yes"/>
      <point x="817" y="-29"/>
      <point x="987" y="114"/>
      <point x="987" y="344" type="curve" smooth="yes"/>
      <point x="987" y="367" type="line" smooth="yes"/>
      <point x="987" y="540"/>
      <point x="911" y="636"/>
      <point x="697" y="663" type="curve"/>
      <point x="719" y="623" type="line"/>
      <point x="719" y="671" type="line"/>
      <point x="900" y="694"/>
      <point x="979" y="780"/>
      <point x="979" y="946" type="curve" smooth="yes"/>
      <point x="979" y="966" type="line" smooth="yes"/>
      <point x="979" y="1185"/>
      <point x="817" y="1306"/>
      <point x="488" y="1306" type="curve" smooth="yes"/>
      <point x="314" y="1306"/>
      <point x="185" y="1273"/>
      <point x="88" y="1233" type="curve"/>
      <point x="58" y="942" type="line"/>
      <point x="149" y="972"/>
      <point x="279" y="1007"/>
      <point x="418" y="1007" type="curve" smooth="yes"/>
      <point x="568" y="1007"/>
      <point x="613" y="974"/>
      <point x="613" y="903" type="curve" smooth="yes"/>
      <point x="613" y="897" type="line" smooth="yes"/>
      <point x="613" y="827"/>
      <point x="567" y="796"/>
      <point x="442" y="792" type="curve" smooth="yes"/>
      <point x="202" y="785" type="line"/>
      <point x="202" y="505" type="line"/>
      <point x="443" y="499" type="line" smooth="yes"/>
      <point x="571" y="496"/>
      <point x="615" y="465"/>
      <point x="615" y="393" type="curve" smooth="yes"/>
      <point x="615" y="385" type="line" smooth="yes"/>
      <point x="615" y="312"/>
      <point x="573" y="274"/>
      <point x="404" y="274" type="curve" smooth="yes"/>
      <point x="268" y="274"/>
      <point x="147" y="305"/>
      <point x="48" y="342" type="curve"/>
      <point x="78" y="34" type="line"/>
      <point x="161" y="3"/>
      <point x="298" y="-29"/>
    </contour>
  </outline>
</glyph>
<glyph name="E" format="2">
  <advance width="1108"/>
  <unicode hex="0045"/>
  <anchor x="570" y="0" name="bottom"/>
  <anchor x="1029" y="0" name="ogonek"/>
  <anchor x="570" y="1278" name="top"/>
  <anchor x="20" y="1278" name="topleft"/>
  <outline>
    <contour>
      <point x="457" y="0" type="line"/>
      <point x="457" y="1278" type="line"/>
      <point x="104" y="1278" type="line"/>
      <point x="104" y="0" type="line"/>
    </contour>
    <contour>
      <point x="1032" y="0" type="line"/>
      <point x="1032" y="301" type="line"/>
      <point x="209" y="301" type="line"/>
      <point x="209" y="0" type="line"/>
    </contour>
    <contour>
      <point x="1007" y="504" type="line"/>
      <point x="1007" y="791" type="line"/>
      <point x="312" y="791" type="line"/>
      <point x="312" y="504" type="line"/>
    </contour>
    <contour>
      <point x="1023" y="980" type="line"/>
      <point x="1023" y="1278" type="line"/>
      <point x="209" y="1278" type="line"/>
      <point x="209" y="980" type="line"/>
    </contour>
  </outline>
</glyph>
<glyph name="W" format="2">
  <advance width="1749"/>
  <unicode hex="0057"/>
  <anchor x="875" y="0" name="bottom"/>
  <anchor x="875" y="1278" name="top"/>
  <outline>
    <contour>
      <point x="744" y="0" type="line"/>
      <point x="846" y="797" type="line"/>
      <point x="867" y="953" type="line"/>
      <point x="883" y="953" type="line"/>
      <point x="903" y="797" type="line"/>
      <point x="1007" y="0" type="line"/>
      <point x="1510" y="0" type="line"/>
      <point x="1719" y="1278" type="line"/>
      <point x="1356" y="1278" type="line"/>
      <point x="1250" y="405" type="line"/>
      <point x="1237" y="302" type="line"/>
      <point x="1219" y="302" type="line"/>
      <point x="1204" y="406" type="line"/>
      <point x="1086" y="1251" type="line"/>
      <point x="664" y="1251" type="line"/>
      <point x="545" y="406" type="line"/>
      <point x="530" y="302" type="line"/>
      <point x="512" y="302" type="line"/>
      <point x="500" y="406" type="line"/>
      <point x="396" y="1278" type="line"/>
      <point x="30" y="1278" type="line"/>
      <point x="241" y="0" type="line"/>
    </contour>
  </outline>
</glyph>
<glyph name="braceright" format="2">
  <advance width="703"/>
  <unicode hex="007D"/>
  <outline>
    <contour>
      <point x="46" y="1090" type="line"/>
      <point x="65" y="1094"/>
      <point x="89" y="1098"/>
      <point x="116" y="1098" type="curve" smooth="yes"/>
      <point x="189" y="1098"/>
      <point x="217" y="1067"/>
      <point x="217" y="994" type="curve" smooth="yes"/>
      <point x="217" y="949"/>
      <point x="204" y="828"/>
      <point x="204" y="777" type="curve" smooth="yes"/>
      <point x="204" y="654"/>
      <point x="247" y="578"/>
      <point x="382" y="556" type="curve"/>
      <point x="382" y="539" type="line"/>
      <point x="396" y="546" type="line"/>
      <point x="248" y="527"/>
      <point x="204" y="447"/>
      <point x="204" y="322" type="curve" smooth="yes"/>
      <point x="204" y="271"/>
      <point x="217" y="150"/>
      <point x="217" y="105" type="curve" smooth="yes"/>
      <point x="217" y="32"/>
      <point x="188" y="1"/>
      <point x="112" y="1" type="curve" smooth="yes"/>
      <point x="87" y="1"/>
      <point x="64" y="5"/>
      <point x="46" y="9" type="curve"/>
      <point x="46" y="-238" type="line"/>
      <point x="98" y="-251"/>
      <point x="158" y="-260"/>
      <point x="218" y="-260" type="curve" smooth="yes"/>
      <point x="439" y="-260"/>
      <point x="546" y="-167"/>
      <point x="546" y="66" type="curve" smooth="yes"/>
      <point x="546" y="124"/>
      <point x="533" y="254"/>
      <point x="533" y="303" type="curve" smooth="yes"/>
      <point x="533" y="373"/>
      <point x="566" y="406"/>
      <point x="653" y="410" type="curve"/>
      <point x="653" y="689" type="line"/>
      <point x="566" y="693"/>
      <point x="533" y="727"/>
      <point x="533" y="797" type="curve" smooth="yes"/>
      <point x="533" y="846"/>
      <point x="546" y="976"/>
      <point x="546" y="1033" type="curve" smooth="yes"/>
      <point x="546" y="1264"/>
      <point x="439" y="1357"/>
      <point x="218" y="1357" type="curve" smooth="yes"/>
      <point x="158" y="1357"/>
      <point x="97" y="1347"/>
      <point x="46" y="1335" type="curve"/>
    </contour>
  </outline>
</glyph>
<glyph name="dieresis" format="2">
  <advance width="876"/>
  <unicode hex="00A8"/>
  <anchor x="438" y="985" name="_top"/>
  <anchor x="438" y="1360" name="top"/>
  <outline>
    <contour>
      <point x="255" y="1062" type="curve" smooth="yes"/>
      <point x="361" y="1062"/>
      <point x="412" y="1119"/>
      <point x="412" y="1216" type="curve" smooth="yes"/>
      <point x="412" y="1224" type="line" smooth="yes"/>
      <point x="412" y="1322"/>
      <point x="361" y="1380"/>
      <point x="255" y="1380" type="curve" smooth="yes"/>
      <point x="151" y="1380"/>
      <point x="100" y="1322"/>
      <point x="100" y="1224" type="curve" smooth="yes"/>
      <point x="100" y="1216" type="line" smooth="yes"/>
      <point x="100" y="1119"/>
      <point x="151" y="1062"/>
    </contour>
    <contour>
      <point x="620" y="1062" type="curve" smooth="yes"/>
      <point x="724" y="1062"/>
      <point x="776" y="1119"/>
      <point x="776" y="1216" type="curve" smooth="yes"/>
      <point x="776" y="1224" type="line" smooth="yes"/>
      <point x="776" y="1322"/>
      <point x="724" y="1380"/>
      <point x="620" y="1380" type="curve" smooth="yes"/>
      <point x="515" y="1380"/>
      <point x="465" y="1322"/>
      <point x="465" y="1224" type="curve" smooth="yes"/>
      <point x="465" y="1216" type="line" smooth="yes"/>
      <point x="465" y="1119"/>
      <point x="514" y="1062"/>
    </contour>
  </outline>
</glyph>
<glyph name="guillemetleft" format="2">
  <advance width="1061"/>
  <unicode hex="00AB"/>
  <outline>
    <contour>
      <point x="1056" y="905" type="line"/>
      <point x="731" y="905" type="line"/>
      <point x="487" y="521" type="line"/>
      <point x="487" y="470" type="line"/>
      <point x="731" y="74" type="line"/>
      <point x="1056" y="74" type="line"/>
      <point x="801" y="489" type="line"/>
    </contour>
    <contour>
      <point x="597" y="905" type="line"/>
      <point x="272" y="905" type="line"/>
      <point x="28" y="521" type="line"/>
      <point x="28" y="470" type="line"/>
      <point x="272" y="74" type="line"/>
      <point x="597" y="74" type="line"/>
      <point x="342" y="489" type="line"/>
    </contour>
  </outline>
</glyph>
<glyph name="periodcentered" format="2">
  <advance width="480"/>
  <unicode hex="00B7"/>
  <anchor x="240" y="288" name="_top"/>
  <anchor x="240" y="663" name="top"/>
  <outline>
    <contour>
      <point x="239" y="360" type="curve" smooth="yes"/>
      <point x="358" y="360"/>
      <point x="415" y="421"/>
      <point x="415" y="519" type="curve" smooth="yes"/>
      <point x="415" y="526" type="line" smooth="yes"/>
      <point x="415" y="625"/>
      <point x="358" y="688"/>
      <point x="239" y="688" type="curve" smooth="yes"/>
      <point x="122" y="688"/>
      <point x="65" y="625"/>
      <point x="65" y="526" type="curve" smooth="yes"/>
      <point x="65" y="519" type="line" smooth="yes"/>
      <point x="65" y="421"/>
      <point x="122" y="360"/>
    </contour>
  </outline>
</glyph>
<glyph name="onequarter" format="2">
  <advance width="1474"/>
  <unicode hex="00BC"/>
  <outline>
    <contour>
      <point x="400" y="599" type="line"/>
      <point x="400" y="1278" type="line"/>
      <point x="204" y="1278" type="line"/>
      <point x="26" y="1203" type="line"/>
      <point x="18" y="990" type="line"/>
      <point x="162" y="1051" type="line"/>
      <point x="172" y="1051" type="line"/>
      <point x="172" y="599" type="line"/>
    </contour>
    <contour>
      <point x="351" y="0" type="line"/>
      <point x="1249" y="1278" type="line"/>
      <point x="979" y="1278" type="line"/>
      <point x="78" y="0" type="line"/>
    </contour>
    <contour>
      <point x="1382" y="0" type="line"/>
      <point x="1382" y="679" type="line"/>
      <point x="1035" y="679" type="line"/>
      <point x="800" y="284" type="line"/>
      <point x="800" y="95" type="line"/>
      <point x="1458" y="95" type="line"/>
      <point x="1458" y="273" type="line"/>
      <point x="927" y="273" type="line"/>
      <point x="1025" y="211" type="line"/>
      <point x="1025" y="280" type="line"/>
      <point x="1161" y="524" type="line"/>
      <point x="1173" y="524" type="line"/>
      <point x="1167" y="344" type="line"/>
      <point x="1167" y="0" type="line"/>
    </contour>
  </outline>
</glyph>
<glyph name="threequarters" format="2">
  <advance width="1648"/>
  <unicode hex="00BE"/>
  <outline>
    <contour>
      <point x="274" y="579" type="curve" smooth="yes"/>
      <point x="494" y="579"/>
      <point x="600" y="655"/>
      <point x="600" y="780" type="curve" smooth="yes"/>
      <point x="600" y="790" type="line" smooth="yes"/>
      <point x="600" y="880"/>
      <point x="555" y="937"/>
      <point x="432" y="951" type="curve"/>
      <point x="449" y="928" type="line"/>
      <point x="449" y="956" type="line"/>
      <point x="551" y="969"/>
      <point x="596" y="1024"/>
      <point x="596" y="1105" type="curve" smooth="yes"/>
      <point x="596" y="1114" type="line" smooth="yes"/>
      <point x="596" y="1233"/>
      <point x="494" y="1297"/>
      <point x="290" y="1297" type="curve" smooth="yes"/>
      <point x="194" y="1297"/>
      <point x="111" y="1280"/>
      <point x="51" y="1258" type="curve"/>
      <point x="31" y="1080" type="line"/>
      <point x="82" y="1093"/>
      <point x="161" y="1111"/>
      <point x="248" y="1111" type="curve" smooth="yes"/>
      <point x="321" y="1111"/>
      <point x="348" y="1098"/>
      <point x="348" y="1070" type="curve"/>
      <point x="348" y="1068" type="line"/>
      <point x="348" y="1039"/>
      <point x="323" y="1027"/>
      <point x="258" y="1025" type="curve" smooth="yes"/>
      <point x="118" y="1021" type="line"/>
      <point x="118" y="859" type="line"/>
      <point x="267" y="855" type="line" smooth="yes"/>
      <point x="330" y="853"/>
      <point x="348" y="839"/>
      <point x="348" y="813" type="curve" smooth="yes"/>
      <point x="348" y="810" type="line" smooth="yes"/>
      <point x="348" y="782"/>
      <point x="324" y="765"/>
      <point x="235" y="765" type="curve" smooth="yes"/>
      <point x="158" y="765"/>
      <point x="85" y="780"/>
      <point x="26" y="797" type="curve"/>
      <point x="46" y="611" type="line"/>
      <point x="96" y="594"/>
      <point x="181" y="579"/>
    </contour>
    <contour>
      <point x="525" y="0" type="line"/>
      <point x="1423" y="1278" type="line"/>
      <point x="1153" y="1278" type="line"/>
      <point x="252" y="0" type="line"/>
    </contour>
    <contour>
      <point x="1556" y="0" type="line"/>
      <point x="1556" y="679" type="line"/>
      <point x="1209" y="679" type="line"/>
      <point x="974" y="284" type="line"/>
      <point x="974" y="95" type="line"/>
      <point x="1632" y="95" type="line"/>
      <point x="1632" y="273" type="line"/>
      <point x="1101" y="273" type="line"/>
      <point x="1199" y="211" type="line"/>
      <point x="1199" y="280" type="line"/>
      <point x="1335" y="524" type="line"/>
      <point x="1347" y="524" type="line"/>
      <point x="1341" y="344" type="line"/>
      <point x="1341" y="0" type="line"/>
    </contour>
  </outline>
</glyph>
<glyph name="Adieresis" format="2">
  <advance width="1275"/>
  <unicode hex="00C4"/>
  <anchor x="638" y="0" name="bottom"/>
  <anchor x="1288" y="0" name="ogonek"/>
  <anchor x="638" y="1633" name="top"/>
  <outline>
    <contour>
      <point x="380" y="0" type="line"/>
      <point x="628" y="1041" type="line"/>
      <point x="651" y="1041" type="line"/>
      <point x="895" y="0" type="line"/>
      <point x="1260" y="0" type="line"/>
      <point x="909" y="1278" type="line"/>
      <point x="370" y="1278" type="line"/>
      <point x="15" y="0" type="line"/>
    </contour>
    <contour>
      <point x="923" y="277" type="line"/>
      <point x="923" y="553" type="line"/>
      <point x="350" y="553" type="line"/>
      <point x="350" y="277" type="line"/>
    </contour>
    <contour>
      <point x="455" y="1361" type="curve" smooth="yes"/>
      <point x="561" y="1361"/>
      <point x="612" y="1418"/>
      <point x="612" y="1515" type="curve" smooth="yes"/>
      <point x="612" y="1523" type="line" smooth="yes"/>
      <point x="612" y="1621"/>
      <point x="561" y="1679"/>
      <point x="455" y="1679" type="curve" smooth="yes"/>
      <point x="351" y="1679"/>
      <point x="300" y="1621"/>
      <point x="300" y="1523" type="curve" smooth="yes"/>
      <point x="300" y="1515" type="line" smooth="yes"/>
      <point x="300" y="1418"/>
      <point x="351" y="1361"/>
    </contour>
    <contour>
      <point x="820" y="1361" type="curve" smooth="yes"/>
      <point x="924" y="1361"/>
      <point x="976" y="1418"/>
      <point x="976" y="1515" type="curve" smooth="yes"/>
      <point x="976" y="1523" type="line" smooth="yes"/>
      <point x="976" y="1621"/>
      <point x="924" y="1679"/>
      <point x="820" y="1679" type="curve" smooth="yes"/>
      <point x="715" y="1679"/>
      <point x="665" y="1621"/>
      <point x="665" y="1523" type="curve" smooth="yes"/>
      <point x="665" y="1515" type="line" smooth="yes"/>
      <point x="665" y="1418"/>
      <point x="714" y="1361"/>
    </contour>
  </outline>
</glyph>
<glyph name="Aring" format="2">
  <advance width="1275"/>
  <unicode hex="00C5"/>
  <anchor x="638" y="0" name="bottom"/>
  <anchor x="1288" y="0" name="ogonek"/>
  <anchor x="638" y="1692" name="top"/>
  <outline>
    <contour>
      <point x="380" y="0" type="line"/>
      <point x="628" y="1041" type="line"/>
      <point x="651" y="1041" type="line"/>
      <point x="895" y="0" type="line"/>
      <point x="1260" y="0" type="line"/>
      <point x="909" y="1278" type="line"/>
      <point x="370" y="1278" type="line"/>
      <point x="15" y="0" type="line"/>
    </contour>
    <contour>
      <point x="923" y="277" type="line"/>
      <point x="923" y="553" type="line"/>
      <point x="350" y="553" type="line"/>
      <point x="350" y="277" type="line"/>
    </contour>
    <contour>
      <point x="399" y="1522" type="line" smooth="yes"/>
      <point x="399" y="1414"/>
      <point x="469" y="1335"/>
      <point x="638" y="1335" type="curve" smooth="yes"/>
      <point x="807" y="1335"/>
      <point x="877" y="1414"/>
      <point x="877" y="1522" type="curve" smooth="yes"/>
      <point x="877" y="1529" type="line" smooth="yes"/>
      <point x="877" y="1638"/>
      <point x="807" y="1716"/>
      <point x="638" y="1716" type="curve" smooth="yes"/>
      <point x="469" y="1716"/>
      <point x="399" y="1638"/>
      <point x="399" y="1529" type="curve" smooth="yes"/>
    </contour>
    <contour>
      <point x="563" y="1528" type="line" smooth="yes"/>
      <point x="563" y="1565"/>
      <point x="589" y="1586"/>
      <point x="638" y="1586" type="curve" smooth="yes"/>
      <point x="686" y="1586"/>
      <point x="712" y="1565"/>
      <point x="712" y="1528" type="curve" smooth="yes"/>
      <point x="712" y="1524" type="line" smooth="yes"/>
      <point x="712" y="1486"/>
      <point x="686" y="1464"/>
      <point x="638" y="1464" type="curve" smooth="yes"/>
      <point x="589" y="1464"/>
      <point x="563" y="1486"/>
      <point x="563" y="1524" type="curve" smooth="yes"/>
    </contour>
  </outline>
</glyph>
<glyph name="Ccedilla" format="2">
  <advance width="1052"/>
  <unicode hex="00C7"/>
  <anchor x="603" y="-400" name="bottom"/>
  <anchor x="566" y="1278" name="top"/>
  <outline>
    <contour>
      <point x="631" y="-29" type="curve" smooth="yes"/>
      <point x="776" y="-29"/>
      <point x="892" y="8"/>
      <point x="969" y="54" type="curve"/>
      <point x="995" y="365" type="line"/>
      <point x="918" y="325"/>
      <point x="831" y="292"/>
      <point x="719" y="292" type="curve" smooth="yes"/>
      <point x="518" y="292"/>
      <point x="438" y="391"/>
      <point x="438" y="557" type="curve" smooth="yes"/>
      <point x="438" y="728" type="line" smooth="yes"/>
      <point x="438" y="894"/>
      <point x="519" y="993"/>
      <point x="705" y="993" type="curve" smooth="yes"/>
      <point x="821" y="993"/>
      <point x="908" y="961"/>
      <point x="985" y="924" type="curve"/>
      <point x="959" y="1229" type="line"/>
      <point x="880" y="1274"/>
      <point x="770" y="1307"/>
      <point x="627" y="1307" type="curve" smooth="yes"/>
      <point x="253" y="1307"/>
      <point x="68" y="1104"/>
      <point x="68" y="744" type="curve" smooth="yes"/>
      <point x="68" y="542" type="line" smooth="yes"/>
      <point x="68" y="175"/>
      <point x="250" y="-29"/>
    </contour>
    <contour>
      <point x="464" y="32" type="line"/>
      <point x="439" y="-162" type="line"/>
      <point x="440" y="-162"/>
      <point x="442" y="-162"/>
      <point x="443" y="-162" type="curve"/>
      <point x="568" y="-166"/>
      <point x="597" y="-176"/>
      <point x="597" y="-201" type="curve"/>
      <point x="597" y="-203" type="line"/>
      <point x="597" y="-227"/>
      <point x="568" y="-233"/>
      <point x="502" y="-233" type="curve" smooth="yes"/>
      <point x="463" y="-233"/>
      <point x="417" y="-228"/>
      <point x="377" y="-220" type="curve"/>
      <point x="406" y="-388" type="line"/>
      <point x="450" y="-398"/>
      <point x="507" y="-405"/>
      <point x="568" y="-405" type="curve" smooth="yes"/>
      <point x="740" y="-405"/>
      <point x="829" y="-350"/>
      <point x="829" y="-230" type="curve" smooth="yes"/>
      <point x="829" y="-224" type="line" smooth="yes"/>
      <point x="829" y="-126"/>
      <point x="763" y="-71"/>
      <point x="612" y="-71" type="curve" smooth="yes"/>
      <point x="581" y="-71"/>
      <point x="551" y="-72"/>
      <point x="519" y="-74" type="curve"/>
      <point x="652" y="-142" type="line"/>
      <point x="679" y="32" type="line"/>
    </contour>
  </outline>
</glyph>
<glyph name="Egrave" format="2">
  <advance width="1108"/>
  <unicode hex="00C8"/>
  <anchor x="570" y="0" name="bottom"/>
  <anchor x="1029" y="0" name="ogonek"/>
  <anchor x="471" y="1644" name="top"/>
  <anchor x="20" y="1278" name="topleft"/>
  <outline>
    <contour>
      <point x="457" y="0" type="line"/>
      <point x="457" y="1278" type="line"/>
      <point x="104" y="1278" type="line"/>
      <point x="104" y="0" type="line"/>
    </contour>
    <contour>
      <point x="1032" y="0" type="line"/>
      <point x="1032" y="301" type="line"/>
      <point x="209" y="301" type="line"/>
      <point x="209" y="0" type="line"/>
    </contour>
    <contour>
      <point x="1007" y="504" type="line"/>
      <point x="1007" y="791" type="line"/>
      <point x="312" y="791" type="line"/>
      <point x="312" y="504" type="line"/>
    </contour>
    <contour>
      <point x="1023" y="980" type="line"/>
      <point x="1023" y="1278" type="line"/>
      <point x="209" y="1278" type="line"/>
      <point x="209" y="980" type="line"/>
    </contour>
    <contour>
      <point x="159" y="1654" type="line"/>
      <point x="159" y="1651" type="line"/>
      <point x="440" y="1373" type="line"/>
      <point x="746" y="1373" type="line"/>
      <point x="746" y="1376" type="line"/>
      <point x="532" y="1654" type="line"/>
    </contour>
  </outline>
</glyph>
<glyph name="Ecircumflex" format="2">
  <advance width="1108"/>
  <unicode hex="00CA"/>
  <anchor x="570" y="0" name="bottom"/>
  <anchor x="1029" y="0" name="ogonek"/>
  <anchor x="570" y="1634" name="top"/>
  <anchor x="20" y="1278" name="topleft"/>
  <outline>
    <contour>
      <point x="457" y="0" type="line"/>
      <point x="457" y="1278" type="line"/>
      <point x="104" y="1278" type="line"/>
      <point x="104" y="0" type="line"/>
    </contour>
    <contour>
      <point x="1032" y="0" type="line"/>
      <point x="1032" y="301" type="line"/>
      <point x="209" y="301" type="line"/>
      <point x="209" y="0" type="line"/>
    </contour>
    <contour>
      <point x="1007" y="504" type="line"/>
      <point x="1007" y="791" type="line"/>
      <point x="312" y="791" type="line"/>
      <point x="312" y="504" type="line"/>
    </contour>
    <contour>
      <point x="1023" y="980" type="line"/>
      <point x="1023" y="1278" type="line"/>
      <point x="209" y="1278" type="line"/>
      <point x="209" y="980" type="line"/>
    </contour>
    <contour>
      <point x="194" y="1378" type="line"/>
      <point x="194" y="1373" type="line"/>
      <point x="462" y="1373" type="line"/>
      <point x="566" y="1490" type="line"/>
      <point x="575" y="1490" type="line"/>
      <point x="679" y="1373" type="line"/>
      <point x="947" y="1373" type="line"/>
      <point x="947" y="1378" type="line"/>
      <point x="747" y="1654" type="line"/>
      <point x="394" y="1654" type="line"/>
    </contour>
  </outline>
</glyph>
<glyph name="Edieresis" format="2">
  <advance width="1108"/>
  <unicode hex="00CB"/>
  <anchor x="570" y="0" name="bottom"/>
  <anchor x="1029" y="0" name="ogonek"/>
  <anchor x="570" y="1633" name="top"/>
  <anchor x="20" y="1278" name="topleft"/>
  <outline>
    <contour>
      <point x="457" y="0" type="line"/>
      <point x="457" y="1278" type="line"/>
      <point x="104" y="1278" type="line"/>
      <point x="104" y="0" type="line"/>
    </contour>
    <contour>
      <point x="1032" y="0" type="line"/>
      <point x="1032" y="301" type="line"/>
      <point x="209" y="301" type="line"/>
      <point x="209" y="0" type="line"/>
    </contour>
    <contour>
      <point x="1007" y="504" type="line"/>
      <point x="1007" y="791" type="line"/>
      <point x="312" y="791" type="line"/>
      <point x="312" y="504" type="line"/>
    </contour>
    <contour>
      <point x="1023" y="980" type="line"/>
      <point x="1023" y="1278" type="line"/>
      <point x="209" y="1278" type="line"/>
      <point x="209" y="980" type="line"/>
    </contour>
    <contour>
      <point x="387" y="1361" type="curve" smooth="yes"/>
      <point x="493" y="1361"/>
      <point x="544" y="1418"/>
      <point x="544" y="1515" type="curve" smooth="yes"/>
      <point x="544" y="1523" type="line" smooth="yes"/>
      <point x="544" y="1621"/>
      <point x="493" y="1679"/>
      <point x="387" y="1679" type="curve" smooth="yes"/>
      <point x="283" y="1679"/>
      <point x="232" y="1621"/>
      <point x="232" y="1523" type="curve" smooth="yes"/>
      <point x="232" y="1515" type="line" smooth="yes"/>
      <point x="232" y="1418"/>
      <point x="283" y="1361"/>
    </contour>
    <contour>
      <point x="752" y="1361" type="curve" smooth="yes"/>
      <point x="856" y="1361"/>
      <point x="908" y="1418"/>
      <point x="908" y="1515" type="curve" smooth="yes"/>
      <point x="908" y="1523" type="line" smooth="yes"/>
      <point x="908" y="1621"/>
      <point x="856" y="1679"/>
      <point x="752" y="1679" type="curve" smooth="yes"/>
      <point x="647" y="1679"/>
      <point x="597" y="1621"/>
      <point x="597" y="1523" type="curve" smooth="yes"/>
      <point x="597" y="1515" type="line" smooth="yes"/>
      <point x="597" y="1418"/>
      <point x="646" y="1361"/>
    </contour>
  </outline>
</glyph>
<glyph name="Igrave" format="2">
  <advance width="571"/>
  <unicode hex="00CC"/>
  <anchor x="286" y="0" name="bottom"/>
  <anchor x="493" y="0" name="ogonek"/>
  <anchor x="188" y="1644" name="top"/>
  <anchor x="20" y="1278" name="topleft"/>
  <outline>
    <contour>
      <point x="467" y="1278" type="line"/>
      <point x="104" y="1278" type="line"/>
      <point x="104" y="0" type="line"/>
      <point x="467" y="0" type="line"/>
    </contour>
    <contour>
      <point x="-124" y="1654" type="line"/>
      <point x="-124" y="1651" type="line"/>
      <point x="157" y="1373" type="line"/>
      <point x="463" y="1373" type="line"/>
      <point x="463" y="1376" type="line"/>
      <point x="249" y="1654" type="line"/>
    </contour>
  </outline>
</glyph>
<glyph name="Iacute" format="2">
  <advance width="571"/>
  <unicode hex="00CD"/>
  <anchor x="286" y="0" name="bottom"/>
  <anchor x="493" y="0" name="ogonek"/>
  <anchor x="287" y="1644" name="top"/>
  <anchor x="20" y="1278" name="topleft"/>
  <outline>
    <contour>
      <point x="467" y="1278" type="line"/>
      <point x="104" y="1278" type="line"/>
      <point x="104" y="0" type="line"/>
      <point x="467" y="0" type="line"/>
    </contour>
    <contour>
      <point x="110" y="1376" type="line"/>
      <point x="110" y="1373" type="line"/>
      <point x="416" y="1373" type="line"/>
      <point x="697" y="1651" type="line"/>
      <point x="697" y="1654" type="line"/>
      <point x="324" y="1654" type="line"/>
    </contour>
  </outline>
</glyph>
<glyph name="Icircumflex" format="2">
  <advance width="571"/>
  <unicode hex="00CE"/>
  <anchor x="286" y="0" name="bottom"/>
  <anchor x="493" y="0" name="ogonek"/>
  <anchor x="287" y="1634" name="top"/>
  <anchor x="20" y="1278" name="topleft"/>
  <outline>
    <contour>
      <point x="467" y="1278" type="line"/>
      <point x="104" y="1278" type="line"/>
      <point x="104" y="0" type="line"/>
      <point x="467" y="0" type="line"/>
    </contour>
    <contour>
      <point x="-89" y="1378" type="line"/>
      <point x="-89" y="1373" type="line"/>
      <point x="179" y="1373" type="line"/>
      <point x="283" y="1490" type="line"/>
      <point x="292" y="1490" type="line"/>
      <point x="396" y="1373" type="line"/>
      <point x="664" y="1373" type="line"/>
      <point x="664" y="1378" type="line"/>
      <point x="464" y="1654" type="line"/>
      <point x="111" y="1654" type="line"/>
    </contour>
  </outline>
</glyph>
<glyph name="Idieresis" format="2">
  <advance width="571"/>
  <unicode hex="00CF"/>
  <anchor x="286" y="0" name="bottom"/>
  <anchor x="493" y="0" name="ogonek"/>
  <anchor x="287" y="1633" name="top"/>
  <anchor x="20" y="1278" name="topleft"/>
  <outline>
    <contour>
      <point x="467" y="1278" type="line"/>
      <point x="104" y="1278" type="line"/>
      <point x="104" y="0" type="line"/>
      <point x="467" y="0" type="line"/>
    </contour>
    <contour>
      <point x="104" y="1361" type="curve" smooth="yes"/>
      <point x="210" y="1361"/>
      <point x="261" y="1418"/>
      <point x="261" y="1515" type="curve" smooth="yes"/>
      <point x="261" y="1523" type="line" smooth="yes"/>
      <point x="261" y="1621"/>
      <point x="210" y="1679"/>
      <point x="104" y="1679" type="curve" smooth="yes"/>
      <point x="0" y="1679"/>
      <point x="-51" y="1621"/>
      <point x="-51" y="1523" type="curve" smooth="yes"/>
      <point x="-51" y="1515" type="line" smooth="yes"/>
      <point x="-51" y="1418"/>
      <point x="0" y="1361"/>
    </contour>
    <contour>
      <point x="469" y="1361" type="curve" smooth="yes"/>
      <point x="573" y="1361"/>
      <point x="625" y="1418"/>
      <point x="625" y="1515" type="curve" smooth="yes"/>
      <point x="625" y="1523" type="line" smooth="yes"/>
      <point x="625" y="1621"/>
      <point x="573" y="1679"/>
      <point x="469" y="1679" type="curve" smooth="yes"/>
      <point x="364" y="1679"/>
      <point x="314" y="1621"/>
      <point x="314" y="1523" type="curve" smooth="yes"/>
      <point x="314" y="1515" type="line" smooth="yes"/>
      <point x="314" y="1418"/>
      <point x="363" y="1361"/>
    </contour>
  </outline>
</glyph>
<glyph name="Eth" format="2">
  <advance width="1265"/>
  <unicode hex="00D0"/>
  <anchor x="612" y="0" name="bottom"/>
  <anchor x="633" y="639" name="center"/>
  <anchor x="612" y="1278" name="top"/>
  <outline>
    <contour>
      <point x="665" y="551" type="line"/>
      <point x="665" y="741" type="line"/>
      <point x="2" y="742" type="line"/>
      <point x="2" y="552" type="line"/>
    </contour>
    <contour>
      <point x="641" y="0" type="line" smooth="yes"/>
      <point x="1017" y="0"/>
      <point x="1199" y="183"/>
      <point x="1199" y="517" type="curve" smooth="yes"/>
      <point x="1199" y="764" type="line" smooth="yes"/>
      <point x="1199" y="1096"/>
      <point x="1015" y="1278"/>
      <point x="641" y="1278" type="curve" smooth="yes"/>
      <point x="359" y="1278" type="line"/>
      <point x="359" y="979" type="line"/>
      <point x="628" y="979" type="line" smooth="yes"/>
      <point x="767" y="979"/>
      <point x="834" y="903"/>
      <point x="834" y="764" type="curve" smooth="yes"/>
      <point x="834" y="518" type="line" smooth="yes"/>
      <point x="834" y="379"/>
      <point x="767" y="302"/>
      <point x="628" y="302" type="curve" smooth="yes"/>
      <point x="359" y="302" type="line"/>
      <point x="359" y="0" type="line"/>
    </contour>
    <contour>
      <point x="461" y="0" type="line"/>
      <point x="461" y="1278" type="line"/>
      <point x="104" y="1278" type="line"/>
      <point x="104" y="0" type="line"/>
    </contour>
  </outline>
</glyph>
<glyph name="Ntilde" format="2">
  <advance width="1329"/>
  <unicode hex="00D1"/>
  <anchor x="670" y="0" name="bottom"/>
  <anchor x="670" y="1640" name="top"/>
  <outline>
    <contour>
      <point x="104" y="1279" type="line"/>
      <point x="104" y="0" type="line"/>
      <point x="447" y="0" type="line"/>
      <point x="447" y="368" type="line"/>
      <point x="431" y="910" type="line"/>
      <point x="445" y="910" type="line"/>
      <point x="751" y="0" type="line"/>
      <point x="1225" y="0" type="line"/>
      <point x="1225" y="1279" type="line"/>
      <point x="883" y="1279" type="line"/>
      <point x="883" y="929" type="line"/>
      <point x="899" y="395" type="line"/>
      <point x="885" y="395" type="line"/>
      <point x="593" y="1279" type="line"/>
    </contour>
    <contour>
      <point x="806" y="1380" type="curve" smooth="yes"/>
      <point x="962" y="1380"/>
      <point x="1017" y="1479"/>
      <point x="1017" y="1621" type="curve" smooth="yes"/>
      <point x="1017" y="1655" type="line"/>
      <point x="825" y="1655" type="line"/>
      <point x="825" y="1654" type="line"/>
      <point x="824" y="1613"/>
      <point x="812" y="1593"/>
      <point x="774" y="1593" type="curve" smooth="yes"/>
      <point x="713" y="1593"/>
      <point x="637" y="1642"/>
      <point x="536" y="1642" type="curve" smooth="yes"/>
      <point x="378" y="1642"/>
      <point x="323" y="1542"/>
      <point x="323" y="1406" type="curve" smooth="yes"/>
      <point x="323" y="1367" type="line"/>
      <point x="514" y="1367" type="line"/>
      <point x="514" y="1368" type="line"/>
      <point x="515" y="1409"/>
      <point x="527" y="1429"/>
      <point x="566" y="1429" type="curve" smooth="yes"/>
      <point x="628" y="1429"/>
      <point x="710" y="1380"/>
    </contour>
  </outline>
</glyph>
<glyph name="Otilde" format="2">
  <advance width="1294"/>
  <unicode hex="00D5"/>
  <anchor x="647" y="0" name="bottom"/>
  <anchor x="647" y="639" name="center"/>
  <anchor x="992" y="5" name="ogonek"/>
  <anchor x="647" y="1640" name="top"/>
  <anchor x="5" y="1278" name="topleft"/>
  <anchor x="1235" y="1278" name="topright"/>
  <outline>
    <contour>
      <point x="647" y="-33" type="curve" smooth="yes"/>
      <point x="1035" y="-33"/>
      <point x="1226" y="161"/>
      <point x="1226" y="518" type="curve" smooth="yes"/>
      <point x="1226" y="744" type="line" smooth="yes"/>
      <point x="1226" y="1103"/>
      <point x="1032" y="1307"/>
      <point x="647" y="1307" type="curve" smooth="yes"/>
      <point x="262" y="1307"/>
      <point x="68" y="1103"/>
      <point x="68" y="744" type="curve" smooth="yes"/>
      <point x="68" y="518" type="line" smooth="yes"/>
      <point x="68" y="161"/>
      <point x="259" y="-33"/>
    </contour>
    <contour>
      <point x="647" y="265" type="curve" smooth="yes"/>
      <point x="504" y="265"/>
      <point x="437" y="350"/>
      <point x="437" y="500" type="curve" smooth="yes"/>
      <point x="437" y="763" type="line" smooth="yes"/>
      <point x="437" y="923"/>
      <point x="504" y="1011"/>
      <point x="647" y="1011" type="curve" smooth="yes"/>
      <point x="789" y="1011"/>
      <point x="857" y="923"/>
      <point x="857" y="763" type="curve" smooth="yes"/>
      <point x="857" y="500" type="line" smooth="yes"/>
      <point x="857" y="350"/>
      <point x="789" y="265"/>
    </contour>
    <contour>
      <point x="783" y="1380" type="curve" smooth="yes"/>
      <point x="939" y="1380"/>
      <point x="994" y="1479"/>
      <point x="994" y="1621" type="curve" smooth="yes"/>
      <point x="994" y="1655" type="line"/>
      <point x="802" y="1655" type="line"/>
      <point x="802" y="1654" type="line"/>
      <point x="801" y="1613"/>
      <point x="789" y="1593"/>
      <point x="751" y="1593" type="curve" smooth="yes"/>
      <point x="690" y="1593"/>
      <point x="614" y="1642"/>
      <point x="513" y="1642" type="curve" smooth="yes"/>
      <point x="355" y="1642"/>
      <point x="300" y="1542"/>
      <point x="300" y="1406" type="curve" smooth="yes"/>
      <point x="300" y="1367" type="line"/>
      <point x="491" y="1367" type="line"/>
      <point x="491" y="1368" type="line"/>
      <point x="492" y="1409"/>
      <point x="504" y="1429"/>
      <point x="543" y="1429" type="curve" smooth="yes"/>
      <point x="605" y="1429"/>
      <point x="687" y="1380"/>
    </contour>
  </outline>
</glyph>
<glyph name="Ucircumflex" format="2">
  <advance width="1309"/>
  <unicode hex="00DB"/>
  <anchor x="655" y="0" name="bottom"/>
  <anchor x="978" y="5" name="ogonek"/>
  <anchor x="655" y="1634" name="top"/>
  <anchor x="1303" y="1278" name="topright"/>
  <outline>
    <contour>
      <point x="655" y="-33" type="curve" smooth="yes"/>
      <point x="1036" y="-33"/>
      <point x="1214" y="151"/>
      <point x="1214" y="500" type="curve" smooth="yes"/>
      <point x="1214" y="1278" type="line"/>
      <point x="851" y="1278" type="line"/>
      <point x="851" y="495" type="line" smooth="yes"/>
      <point x="851" y="346"/>
      <point x="789" y="271"/>
      <point x="655" y="271" type="curve" smooth="yes"/>
      <point x="520" y="271"/>
      <point x="458" y="346"/>
      <point x="458" y="495" type="curve" smooth="yes"/>
      <point x="458" y="1278" type="line"/>
      <point x="95" y="1278" type="line"/>
      <point x="95" y="500" type="line" smooth="yes"/>
      <point x="95" y="151"/>
      <point x="274" y="-33"/>
    </contour>
    <contour>
      <point x="279" y="1378" type="line"/>
      <point x="279" y="1373" type="line"/>
      <point x="547" y="1373" type="line"/>
      <point x="651" y="1490" type="line"/>
      <point x="660" y="1490" type="line"/>
      <point x="764" y="1373" type="line"/>
      <point x="1032" y="1373" type="line"/>
      <point x="1032" y="1378" type="line"/>
      <point x="832" y="1654" type="line"/>
      <point x="479" y="1654" type="line"/>
    </contour>
  </outline>
</glyph>
<glyph name="Udieresis" format="2">
  <advance width="1309"/>
  <unicode hex="00DC"/>
  <anchor x="655" y="0" name="bottom"/>
  <anchor x="978" y="5" name="ogonek"/>
  <anchor x="655" y="1633" name="top"/>
  <anchor x="1303" y="1278" name="topright"/>
  <outline>
    <contour>
      <point x="655" y="-33" type="curve" smooth="yes"/>
      <point x="1036" y="-33"/>
      <point x="1214" y="151"/>
      <point x="1214" y="500" type="curve" smooth="yes"/>
      <point x="1214" y="1278" type="line"/>
      <point x="851" y="1278" type="line"/>
      <point x="851" y="495" type="line" smooth="yes"/>
      <point x="851" y="346"/>
      <point x="789" y="271"/>
      <point x="655" y="271" type="curve" smooth="yes"/>
      <point x="520" y="271"/>
      <point x="458" y="346"/>
      <point x="458" y="495" type="curve" smooth="yes"/>
      <point x="458" y="1278" type="line"/>
      <point x="95" y="1278" type="line"/>
      <point x="95" y="500" type="line" smooth="yes"/>
      <point x="95" y="151"/>
      <point x="274" y="-33"/>
    </contour>
    <contour>
      <point x="472" y="1361" type="curve" smooth="yes"/>
      <point x="578" y="1361"/>
      <point x="629" y="1418"/>
      <point x="629" y="1515" type="curve" smooth="yes"/>
      <point x="629" y="1523" type="line" smooth="yes"/>
      <point x="629" y="1621"/>
      <point x="578" y="1679"/>
      <point x="472" y="1679" type="curve" smooth="yes"/>
      <point x="368" y="1679"/>
      <point x="317" y="1621"/>
      <point x="317" y="1523" type="curve" smooth="yes"/>
      <point x="317" y="1515" type="line" smooth="yes"/>
      <point x="317" y="1418"/>
      <point x="368" y="1361"/>
    </contour>
    <contour>
      <point x="837" y="1361" type="curve" smooth="yes"/>
      <point x="941" y="1361"/>
      <point x="993" y="1418"/>
      <point x="993" y="1515" type="curve" smooth="yes"/>
      <point x="993" y="1523" type="line" smooth="yes"/>
      <point x="993" y="1621"/>
      <point x="941" y="1679"/>
      <point x="837" y="1679" type="curve" smooth="yes"/>
      <point x="732" y="1679"/>
      <point x="682" y="1621"/>
      <point x="682" y="1523" type="curve" smooth="yes"/>
      <point x="682" y="1515" type="line" smooth="yes"/>
      <point x="682" y="1418"/>
      <point x="731" y="1361"/>
    </contour>
  </outline>
</glyph>
<glyph name="acircumflex" format="2">
  <advance width="1077"/>
  <unicode hex="00E2"/>
  <anchor x="537" y="0" name="bottom"/>
  <anchor x="1025" y="0" name="ogonek"/>
  <anchor x="537" y="1358" name="top"/>
  <outline>
    <contour>
      <point x="997" y="0" type="line"/>
      <point x="997" y="580" type="line" smooth="yes"/>
      <point x="997" y="833"/>
      <point x="887" y="1011"/>
      <point x="522" y="1011" type="curve" smooth="yes"/>
      <point x="360" y="1011"/>
      <point x="224" y="974"/>
      <point x="125" y="930" type="curve"/>
      <point x="96" y="661" type="line"/>
      <point x="205" y="701"/>
      <point x="325" y="737"/>
      <point x="454" y="737" type="curve" smooth="yes"/>
      <point x="596" y="737"/>
      <point x="650" y="695"/>
      <point x="650" y="603" type="curve"/>
      <point x="653" y="567" type="line"/>
      <point x="653" y="261" type="line"/>
      <point x="660" y="252" type="line"/>
      <point x="650" y="0" type="line"/>
    </contour>
    <contour>
      <point x="345" y="-24" type="curve" smooth="yes"/>
      <point x="546" y="-24"/>
      <point x="618" y="73"/>
      <point x="648" y="207" type="curve"/>
      <point x="705" y="207" type="line"/>
      <point x="655" y="327" type="line"/>
      <point x="629" y="277"/>
      <point x="576" y="235"/>
      <point x="484" y="235" type="curve" smooth="yes"/>
      <point x="410" y="235"/>
      <point x="382" y="267"/>
      <point x="382" y="314" type="curve" smooth="yes"/>
      <point x="382" y="318" type="line" smooth="yes"/>
      <point x="382" y="368"/>
      <point x="407" y="392"/>
      <point x="485" y="403" type="curve" smooth="yes"/>
      <point x="698" y="434" type="line"/>
      <point x="677" y="636" type="line"/>
      <point x="426" y="604" type="line" smooth="yes"/>
      <point x="160" y="570"/>
      <point x="46" y="488"/>
      <point x="46" y="291" type="curve" smooth="yes"/>
      <point x="46" y="266" type="line" smooth="yes"/>
      <point x="46" y="81"/>
      <point x="148" y="-24"/>
    </contour>
    <contour>
      <point x="181" y="1079" type="line"/>
      <point x="181" y="1075" type="line"/>
      <point x="438" y="1075" type="line"/>
      <point x="532" y="1209" type="line"/>
      <point x="541" y="1209" type="line"/>
      <point x="635" y="1075" type="line"/>
      <point x="892" y="1075" type="line"/>
      <point x="892" y="1079" type="line"/>
      <point x="719" y="1376" type="line"/>
      <point x="354" y="1376" type="line"/>
    </contour>
  </outline>
</glyph>
<glyph name="adieresis" format="2">
  <advance width="1077"/>
  <unicode hex="00E4"/>
  <anchor x="537" y="0" name="bottom"/>
  <anchor x="1025" y="0" name="ogonek"/>
  <anchor x="537" y="1360" name="top"/>
  <outline>
    <contour>
      <point x="997" y="0" type="line"/>
      <point x="997" y="580" type="line" smooth="yes"/>
      <point x="997" y="833"/>
      <point x="887" y="1011"/>
      <point x="522" y="1011" type="curve" smooth="yes"/>
      <point x="360" y="1011"/>
      <point x="224" y="974"/>
      <point x="125" y="930" type="curve"/>
      <point x="96" y="661" type="line"/>
      <point x="205" y="701"/>
      <point x="325" y="737"/>
      <point x="454" y="737" type="curve" smooth="yes"/>
      <point x="596" y="737"/>
      <point x="650" y="695"/>
      <point x="650" y="603" type="curve"/>
      <point x="653" y="567" type="line"/>
      <point x="653" y="261" type="line"/>
      <point x="660" y="252" type="line"/>
      <point x="650" y="0" type="line"/>
    </contour>
    <contour>
      <point x="345" y="-24" type="curve" smooth="yes"/>
      <point x="546" y="-24"/>
      <point x="618" y="73"/>
      <point x="648" y="207" type="curve"/>
      <point x="705" y="207" type="line"/>
      <point x="655" y="327" type="line"/>
      <point x="629" y="277"/>
      <point x="576" y="235"/>
      <point x="484" y="235" type="curve" smooth="yes"/>
      <point x="410" y="235"/>
      <point x="382" y="267"/>
      <point x="382" y="314" type="curve" smooth="yes"/>
      <point x="382" y="318" type="line" smooth="yes"/>
      <point x="382" y="368"/>
      <point x="407" y="392"/>
      <point x="485" y="403" type="curve" smooth="yes"/>
      <point x="698" y="434" type="line"/>
      <point x="677" y="636" type="line"/>
      <point x="426" y="604" type="line" smooth="yes"/>
      <point x="160" y="570"/>
      <point x="46" y="488"/>
      <point x="46" y="291" type="curve" smooth="yes"/>
      <point x="46" y="266" type="line" smooth="yes"/>
      <point x="46" y="81"/>
      <point x="148" y="-24"/>
    </contour>
    <contour>
      <point x="354" y="1062" type="curve" smooth="yes"/>
      <point x="460" y="1062"/>
      <point x="511" y="1119"/>
      <point x="511" y="1216" type="curve" smooth="yes"/>
      <point x="511" y="1224" type="line" smooth="yes"/>
      <point x="511" y="1322"/>
      <point x="460" y="1380"/>
      <point x="354" y="1380" type="curve" smooth="yes"/>
      <point x="250" y="1380"/>
      <point x="199" y="1322"/>
      <point x="199" y="1224" type="curve" smooth="yes"/>
      <point x="199" y="1216" type="line" smooth="yes"/>
      <point x="199" y="1119"/>
      <point x="250" y="1062"/>
    </contour>
    <contour>
      <point x="719" y="1062" type="curve" smooth="yes"/>
      <point x="823" y="1062"/>
      <point x="875" y="1119"/>
      <point x="875" y="1216" type="curve" smooth="yes"/>
      <point x="875" y="1224" type="line" smooth="yes"/>
      <point x="875" y="1322"/>
      <point x="823" y="1380"/>
      <point x="719" y="1380" type="curve" smooth="yes"/>
      <point x="614" y="1380"/>
      <point x="564" y="1322"/>
      <point x="564" y="1224" type="curve" smooth="yes"/>
      <point x="564" y="1216" type="line" smooth="yes"/>
      <point x="564" y="1119"/>
      <point x="613" y="1062"/>
    </contour>
  </outline>
</glyph>
<glyph name="eacute" format="2">
  <advance width="1081"/>
  <unicode hex="00E9"/>
  <anchor x="554" y="0" name="bottom"/>
  <anchor x="965" y="10" name="ogonek"/>
  <anchor x="554" y="1370" name="top"/>
  <outline>
    <contour>
      <point x="606" y="-26" type="curve" smooth="yes"/>
      <point x="759" y="-26"/>
      <point x="889" y="0"/>
      <point x="981" y="45" type="curve"/>
      <point x="1009" y="302" type="line"/>
      <point x="903" y="267"/>
      <point x="789" y="247"/>
      <point x="671" y="247" type="curve" smooth="yes"/>
      <point x="439" y="247"/>
      <point x="394" y="324"/>
      <point x="394" y="407" type="curve" smooth="yes"/>
      <point x="394" y="469" type="line"/>
      <point x="392" y="507" type="line"/>
      <point x="392" y="596" type="line" smooth="yes"/>
      <point x="392" y="698"/>
      <point x="438" y="757"/>
      <point x="546" y="757" type="curve" smooth="yes"/>
      <point x="654" y="757"/>
      <point x="700" y="701"/>
      <point x="700" y="597" type="curve" smooth="yes"/>
      <point x="700" y="540"/>
      <point x="698" y="466"/>
      <point x="693" y="385" type="curve"/>
      <point x="1010" y="385" type="line"/>
      <point x="1019" y="431"/>
      <point x="1024" y="490"/>
      <point x="1024" y="543" type="curve" smooth="yes"/>
      <point x="1024" y="574" type="line" smooth="yes"/>
      <point x="1024" y="852"/>
      <point x="864" y="1015"/>
      <point x="546" y="1015" type="curve" smooth="yes"/>
      <point x="227" y="1015"/>
      <point x="58" y="847"/>
      <point x="58" y="534" type="curve" smooth="yes"/>
      <point x="58" y="457" type="line" smooth="yes"/>
      <point x="58" y="141"/>
      <point x="229" y="-26"/>
    </contour>
    <contour>
      <point x="939" y="385" type="line"/>
      <point x="939" y="593" type="line"/>
      <point x="245" y="593" type="line"/>
      <point x="245" y="385" type="line"/>
    </contour>
    <contour>
      <point x="396" y="1078" type="line"/>
      <point x="396" y="1075" type="line"/>
      <point x="683" y="1075" type="line"/>
      <point x="927" y="1372" type="line"/>
      <point x="927" y="1376" type="line"/>
      <point x="565" y="1376" type="line"/>
    </contour>
  </outline>
</glyph>
<glyph name="ecircumflex" format="2">
  <advance width="1081"/>
  <unicode hex="00EA"/>
  <anchor x="554" y="0" name="bottom"/>
  <anchor x="965" y="10" name="ogonek"/>
  <anchor x="554" y="1358" name="top"/>
  <outline>
    <contour>
      <point x="606" y="-26" type="curve" smooth="yes"/>
      <point x="759" y="-26"/>
      <point x="889" y="0"/>
      <point x="981" y="45" type="curve"/>
      <point x="1009" y="302" type="line"/>
      <point x="903" y="267"/>
      <point x="789" y="247"/>
      <point x="671" y="247" type="curve" smooth="yes"/>
      <point x="439" y="247"/>
      <point x="394" y="324"/>
      <point x="394" y="407" type="curve" smooth="yes"/>
      <point x="394" y="469" type="line"/>
      <point x="392" y="507" type="line"/>
      <point x="392" y="596" type="line" smooth="yes"/>
      <point x="392" y="698"/>
      <point x="438" y="757"/>
      <point x="546" y="757" type="curve" smooth="yes"/>
      <point x="654" y="757"/>
      <point x="700" y="701"/>
      <point x="700" y="597" type="curve" smooth="yes"/>
      <point x="700" y="540"/>
      <point x="698" y="466"/>
      <point x="693" y="385" type="curve"/>
      <point x="1010" y="385" type="line"/>
      <point x="1019" y="431"/>
      <point x="1024" y="490"/>
      <point x="1024" y="543" type="curve" smooth="yes"/>
      <point x="1024" y="574" type="line" smooth="yes"/>
      <point x="1024" y="852"/>
      <point x="864" y="1015"/>
      <point x="546" y="1015" type="curve" smooth="yes"/>
      <point x="227" y="1015"/>
      <point x="58" y="847"/>
      <point x="58" y="534" type="curve" smooth="yes"/>
      <point x="58" y="457" type="line" smooth="yes"/>
      <point x="58" y="141"/>
      <point x="229" y="-26"/>
    </contour>
    <contour>
      <point x="939" y="385" type="line"/>
      <point x="939" y="593" type="line"/>
      <point x="245" y="593" type="line"/>
      <point x="245" y="385" type="line"/>
    </contour>
    <contour>
      <point x="198" y="1079" type="line"/>
      <point x="198" y="1075" type="line"/>
      <point x="455" y="1075" type="line"/>
      <point x="549" y="1209" type="line"/>
      <point x="558" y="1209" type="line"/>
      <point x="652" y="1075" type="line"/>
      <point x="909" y="1075" type="line"/>
      <point x="909" y="1079" type="line"/>
      <point x="736" y="1376" type="line"/>
      <point x="371" y="1376" type="line"/>
    </contour>
  </outline>
</glyph>
<glyph name="icircumflex" format="2">
  <advance width="538"/>
  <unicode hex="00EE"/>
  <anchor x="269" y="0" name="bottom"/>
  <anchor x="476" y="0" name="ogonek"/>
  <anchor x="269" y="1358" name="top"/>
  <outline>
    <contour>
      <point x="446" y="0" type="line"/>
      <point x="446" y="985" type="line"/>
      <point x="92" y="985" type="line"/>
      <point x="92" y="0" type="line"/>
    </contour>
    <contour>
      <point x="-49" y="1079" type="line"/>
      <point x="-49" y="1075" type="line"/>
      <point x="195" y="1075" type="line"/>
      <point x="265" y="1206" type="line"/>
      <point x="272" y="1206" type="line"/>
      <point x="342" y="1075" type="line"/>
      <point x="586" y="1075" type="line"/>
      <point x="586" y="1079" type="line"/>
      <point x="440" y="1376" type="line"/>
      <point x="97" y="1376" type="line"/>
    </contour>
  </outline>
</glyph>
<glyph name="otilde" format="2">
  <advance width="1112"/>
  <unicode hex="00F5"/>
  <anchor x="557" y="0" name="bottom"/>
  <anchor x="557" y="493" name="center"/>
  <anchor x="857" y="10" name="ogonek"/>
  <anchor x="557" y="1370" name="top"/>
  <anchor x="1101" y="985" name="topright"/>
  <outline>
    <contour>
      <point x="556" y="-30" type="curve" smooth="yes"/>
      <point x="887" y="-30"/>
      <point x="1054" y="139"/>
      <point x="1054" y="425" type="curve" smooth="yes"/>
      <point x="1054" y="550" type="line" smooth="yes"/>
      <point x="1054" y="842"/>
      <point x="885" y="1015"/>
      <point x="556" y="1015" type="curve" smooth="yes"/>
      <point x="228" y="1015"/>
      <point x="58" y="842"/>
      <point x="58" y="550" type="curve" smooth="yes"/>
      <point x="58" y="425" type="line" smooth="yes"/>
      <point x="58" y="139"/>
      <point x="226" y="-30"/>
    </contour>
    <contour>
      <point x="556" y="248" type="curve" smooth="yes"/>
      <point x="462" y="248"/>
      <point x="412" y="307"/>
      <point x="412" y="412" type="curve" smooth="yes"/>
      <point x="412" y="564" type="line" smooth="yes"/>
      <point x="412" y="677"/>
      <point x="462" y="737"/>
      <point x="556" y="737" type="curve" smooth="yes"/>
      <point x="651" y="737"/>
      <point x="700" y="677"/>
      <point x="700" y="564" type="curve" smooth="yes"/>
      <point x="700" y="412" type="line" smooth="yes"/>
      <point x="700" y="307"/>
      <point x="651" y="248"/>
    </contour>
    <contour>
      <point x="693" y="1082" type="curve" smooth="yes"/>
      <point x="849" y="1082"/>
      <point x="904" y="1182"/>
      <point x="904" y="1325" type="curve" smooth="yes"/>
      <point x="904" y="1368" type="line"/>
      <point x="712" y="1368" type="line"/>
      <point x="712" y="1367" type="line"/>
      <point x="711" y="1325"/>
      <point x="699" y="1304"/>
      <point x="662" y="1304" type="curve" smooth="yes"/>
      <point x="600" y="1304"/>
      <point x="527" y="1355"/>
      <point x="421" y="1355" type="curve" smooth="yes"/>
      <point x="264" y="1355"/>
      <point x="210" y="1252"/>
      <point x="210" y="1109" type="curve" smooth="yes"/>
      <point x="210" y="1069" type="line"/>
      <point x="401" y="1069" type="line"/>
      <point x="401" y="1070" type="line"/>
      <point x="402" y="1112"/>
      <point x="414" y="1133"/>
      <point x="453" y="1133" type="curve" smooth="yes"/>
      <point x="515" y="1133"/>
      <point x="597" y="1082"/>
    </contour>
  </outline>
</glyph>
<glyph name="uacute" format="2">
  <advance width="1156"/>
  <unicode hex="00FA"/>
  <anchor x="579" y="0" name="bottom"/>
  <anchor x="1098" y="0" name="ogonek"/>
  <anchor x="579" y="1370" name="top"/>
  <anchor x="1143" y="985" name="topright"/>
  <outline>
    <contour>
      <point x="85" y="985" type="line"/>
      <point x="85" y="358" type="line" smooth="yes"/>
      <point x="85" y="101"/>
      <point x="184" y="-24"/>
      <point x="399" y="-24" type="curve" smooth="yes"/>
      <point x="598" y="-24"/>
      <point x="681" y="81"/>
      <point x="711" y="218" type="curve"/>
      <point x="768" y="218" type="line"/>
      <point x="714" y="364" type="line"/>
      <point x="690" y="311"/>
      <point x="641" y="268"/>
      <point x="566" y="268" type="curve" smooth="yes"/>
      <point x="470" y="268"/>
      <point x="439" y="325"/>
      <point x="439" y="419" type="curve" smooth="yes"/>
      <point x="439" y="985" type="line"/>
    </contour>
    <contour>
      <point x="710" y="985" type="line"/>
      <point x="710" y="289" type="line"/>
      <point x="723" y="253" type="line"/>
      <point x="712" y="0" type="line"/>
      <point x="1064" y="0" type="line"/>
      <point x="1064" y="985" type="line"/>
    </contour>
    <contour>
      <point x="421" y="1078" type="line"/>
      <point x="421" y="1075" type="line"/>
      <point x="708" y="1075" type="line"/>
      <point x="952" y="1372" type="line"/>
      <point x="952" y="1376" type="line"/>
      <point x="590" y="1376" type="line"/>
    </contour>
  </outline>
</glyph>
<glyph name="udieresis" format="2">
  <advance width="1156"/>
  <unicode hex="00FC"/>
  <anchor x="579" y="0" name="bottom"/>
  <anchor x="1098" y="0" name="ogonek"/>
  <anchor x="579" y="1360" name="top"/>
  <anchor x="1143" y="985" name="topright"/>
  <outline>
    <contour>
      <point x="85" y="985" type="line"/>
      <point x="85" y="358" type="line" smooth="yes"/>
      <point x="85" y="101"/>
      <point x="184" y="-24"/>
      <point x="399" y="-24" type="curve" smooth="yes"/>
      <point x="598" y="-24"/>
      <point x="681" y="81"/>
      <point x="711" y="218" type="curve"/>
      <point x="768" y="218" type="line"/>
      <point x="714" y="364" type="line"/>
      <point x="690" y="311"/>
      <point x="641" y="268"/>
      <point x="566" y="268" type="curve" smooth="yes"/>
      <point x="470" y="268"/>
      <point x="439" y="325"/>
      <point x="439" y="419" type="curve" smooth="yes"/>
      <point x="439" y="985" type="line"/>
    </contour>
    <contour>
      <point x="710" y="985" type="line"/>
      <point x="710" y="289" type="line"/>
      <point x="723" y="253" type="line"/>
      <point x="712" y="0" type="line"/>
      <point x="1064" y="0" type="line"/>
      <point x="1064" y="985" type="line"/>
    </contour>
    <contour>
      <point x="396" y="1062" type="curve" smooth="yes"/>
      <point x="502" y="1062"/>
      <point x="553" y="1119"/>
      <point x="553" y="1216" type="curve" smooth="yes"/>
      <point x="553" y="1224" type="line" smooth="yes"/>
      <point x="553" y="1322"/>
      <point x="502" y="1380"/>
      <point x="396" y="1380" type="curve" smooth="yes"/>
      <point x="292" y="1380"/>
      <point x="241" y="1322"/>
      <point x="241" y="1224" type="curve" smooth="yes"/>
      <point x="241" y="1216" type="line" smooth="yes"/>
      <point x="241" y="1119"/>
      <point x="292" y="1062"/>
    </contour>
    <contour>
      <point x="761" y="1062" type="curve" smooth="yes"/>
      <point x="865" y="1062"/>
      <point x="917" y="1119"/>
      <point x="917" y="1216" type="curve" smooth="yes"/>
      <point x="917" y="1224" type="line" smooth="yes"/>
      <point x="917" y="1322"/>
      <point x="865" y="1380"/>
      <point x="761" y="1380" type="curve" smooth="yes"/>
      <point x="656" y="1380"/>
      <point x="606" y="1322"/>
      <point x="606" y="1224" type="curve" smooth="yes"/>
      <point x="606" y="1216" type="line" smooth="yes"/>
      <point x="606" y="1119"/>
      <point x="655" y="1062"/>
    </contour>
  </outline>
</glyph>
<glyph name="yacute" format="2">
  <advance width="1075"/>
  <unicode hex="00FD"/>
  <anchor x="932" y="-43" name="bottom"/>
  <anchor x="538" y="1370" name="top"/>
  <outline>
    <contour>
      <point x="513" y="276" type="line"/>
      <point x="375" y="985" type="line"/>
      <point x="11" y="985" type="line"/>
      <point x="260" y="43" type="line"/>
      <point x="650" y="43" type="line"/>
      <point x="482" y="174" type="line"/>
      <point x="329" y="-344" type="line"/>
      <point x="682" y="-344" type="line"/>
      <point x="1064" y="985" type="line"/>
      <point x="702" y="985" type="line"/>
      <point x="505" y="194" type="line"/>
      <point x="695" y="276" type="line"/>
    </contour>
    <contour>
      <point x="380" y="1078" type="line"/>
      <point x="380" y="1075" type="line"/>
      <point x="667" y="1075" type="line"/>
      <point x="911" y="1372" type="line"/>
      <point x="911" y="1376" type="line"/>
      <point x="549" y="1376" type="line"/>
    </contour>
  </outline>
</glyph>
<glyph name="circumflex" format="2">
  <advance width="911"/>
  <unicode hex="02C6"/>
  <anchor x="456" y="985" name="_top"/>
  <anchor x="456" y="1358" name="top"/>
  <outline>
    <contour>
      <point x="100" y="1079" type="line"/>
      <point x="100" y="1075" type="line"/>
      <point x="357" y="1075" type="line"/>
      <point x="451" y="1209" type="line"/>
      <point x="460" y="1209" type="line"/>
      <point x="554" y="1075" type="line"/>
      <point x="811" y="1075" type="line"/>
      <point x="811" y="1079" type="line"/>
      <point x="638" y="1376" type="line"/>
      <point x="273" y="1376" type="line"/>
    </contour>
  </outline>
</glyph>
<glyph name="uni0900" format="2">
  <unicode hex="0900"/>
  <anchor x="-287.5" y="1234.5" name="_top"/>
  <outline>
    <contour>
      <point x="-293.5" y="1647" type="curve" smooth="yes"/>
      <point x="-203.5" y="1647"/>
      <point x="-168" y="1592.5"/>
      <point x="-168" y="1510" type="curve" smooth="yes"/>
      <point x="-168" y="1501" type="line" smooth="yes"/>
      <point x="-168" y="1419.5"/>
      <point x="-203.5" y="1363.5"/>
      <point x="-293.5" y="1363.5" type="curve" smooth="yes"/>
      <point x="-383.5" y="1363.5"/>
      <point x="-419" y="1419.5"/>
      <point x="-419" y="1501" type="curve" smooth="yes"/>
      <point x="-419" y="1510" type="line" smooth="yes"/>
      <point x="-419" y="1592.5"/>
      <point x="-383.5" y="1647"/>
    </contour>
    <contour>
      <point x="-723.5" y="1521.5" type="line"/>
      <point x="-728" y="1554.47"/>
      <point x="-728" y="1572.57"/>
      <point x="-728" y="1586" type="curve" smooth="yes"/>
      <point x="-728" y="1805.18"/>
      <point x="-581" y="1918.5"/>
      <point x="-292.5" y="1918.5" type="curve" smooth="yes"/>
      <point x="-7.5" y="1918.5"/>
      <point x="143.5" y="1805.18"/>
      <point x="143.5" y="1586" type="curve" smooth="yes"/>
      <point x="143.5" y="1571.12"/>
      <point x="144.111" y="1559.14"/>
      <point x="140" y="1521.5" type="curve"/>
      <point x="-95" y="1521.5" type="line"/>
      <point x="-95" y="1551.5" type="line" smooth="yes"/>
      <point x="-95" y="1658"/>
      <point x="-162" y="1711.5"/>
      <point x="-292.5" y="1711.5" type="curve" smooth="yes"/>
      <point x="-427.5" y="1711.5"/>
      <point x="-491" y="1656"/>
      <point x="-491" y="1551.5" type="curve" smooth="yes"/>
      <point x="-491" y="1521.5" type="line"/>
    </contour>
  </outline>
</glyph>
<glyph name="Visarga.dv" format="2">
  <advance width="483"/>
  <unicode hex="0903"/>
  <outline>
    <contour>
      <point x="-31.5" y="1033" type="line"/>
      <point x="-50" y="1287" type="line"/>
      <point x="515" y="1287" type="line"/>
      <point x="533" y="1033" type="line"/>
    </contour>
    <contour>
      <point x="236.5" y="554" type="curve" smooth="yes"/>
      <point x="372" y="554"/>
      <point x="434.5" y="620"/>
      <point x="434.5" y="725" type="curve" smooth="yes"/>
      <point x="434.5" y="736" type="line" smooth="yes"/>
      <point x="434.5" y="843"/>
      <point x="369.5" y="908.5"/>
      <point x="236.5" y="908.5" type="curve" smooth="yes"/>
      <point x="102" y="908.5"/>
      <point x="39.5" y="841"/>
      <point x="39.5" y="736" type="curve" smooth="yes"/>
      <point x="39.5" y="725" type="line" smooth="yes"/>
      <point x="39.5" y="620"/>
      <point x="100" y="554"/>
    </contour>
    <contour>
      <point x="236.5" y="82.5" type="curve" smooth="yes"/>
      <point x="372" y="82.5"/>
      <point x="434.5" y="149.5"/>
      <point x="434.5" y="253.5" type="curve" smooth="yes"/>
      <point x="434.5" y="265.5" type="line" smooth="yes"/>
      <point x="434.5" y="370.5"/>
      <point x="369.5" y="437"/>
      <point x="236.5" y="437" type="curve" smooth="yes"/>
      <point x="102" y="437"/>
      <point x="39.5" y="369"/>
      <point x="39.5" y="265.5" type="curve" smooth="yes"/>
      <point x="39.5" y="253.5" type="line" smooth="yes"/>
      <point x="39.5" y="149.5"/>
      <point x="100" y="82.5"/>
    </contour>
  </outline>
</glyph>
<glyph name="vowelShortA.dv" format="2">
  <advance width="1621"/>
  <unicode hex="0904"/>
  <anchor x="1444" y="1234.5" name="top"/>
  <outline>
    <contour>
      <point x="786.884" y="1802.44" type="curve"/>
      <point x="786.884" y="1701.93"/>
      <point x="824.256" y="1669.52"/>
      <point x="956.598" y="1668.59" type="curve" smooth="yes"/>
      <point x="1100.05" y="1667.58" type="line" smooth="yes"/>
      <point x="1383.42" y="1665.58"/>
      <point x="1485.44" y="1539.28"/>
      <point x="1485.44" y="1308.45" type="curve" smooth="yes"/>
      <point x="1485.44" y="1228.65" type="line"/>
      <point x="1181.37" y="1228.65" type="line"/>
      <point x="1181.37" y="1294.31" type="line" smooth="yes"/>
      <point x="1181.37" y="1371.09"/>
      <point x="1159.66" y="1404.48"/>
      <point x="1059.64" y="1405.43" type="curve" smooth="yes"/>
      <point x="901.037" y="1406.95" type="line" smooth="yes"/>
      <point x="606.523" y="1409.76"/>
      <point x="481.299" y="1511"/>
      <point x="481.299" y="1700.41" type="curve" smooth="yes"/>
      <point x="481.299" y="1740.82"/>
      <point x="487.865" y="1781.73"/>
      <point x="500.998" y="1819.11" type="curve"/>
      <point x="786.379" y="1819.11" type="line"/>
      <point x="786.421" y="1817.74"/>
      <point x="786.884" y="1803.84"/>
    </contour>
    <contour>
      <point x="1670.5" y="1033" type="line"/>
      <point x="1026.5" y="1033" type="line"/>
      <point x="1009" y="1287" type="line"/>
      <point x="1653" y="1287" type="line"/>
    </contour>
    <contour>
      <point x="1161" y="6.48342e-08" type="line"/>
      <point x="1161" y="1123.5" type="line"/>
      <point x="1505.5" y="1123.5" type="line"/>
      <point x="1505.5" y="6.48342e-08" type="line"/>
    </contour>
    <contour>
      <point x="49.4999" y="363" type="line"/>
      <point x="148.5" y="314"/>
      <point x="272.5" y="281"/>
      <point x="396" y="281" type="curve" smooth="yes"/>
      <point x="550" y="281"/>
      <point x="599.5" y="317.5"/>
      <point x="599.5" y="397" type="curve" smooth="yes"/>
      <point x="599.5" y="403.5" type="line" smooth="yes"/>
      <point x="599.5" y="478"/>
      <point x="542.515" y="516.407"/>
      <point x="377.5" y="522.5" type="curve" smooth="yes"/>
      <point x="215" y="528.5" type="line"/>
      <point x="215" y="790" type="line"/>
      <point x="362" y="796" type="line" smooth="yes"/>
      <point x="539" y="805"/>
      <point x="583.5" y="838.5"/>
      <point x="583.5" y="911.5" type="curve" smooth="yes"/>
      <point x="583.5" y="917.5" type="line" smooth="yes"/>
      <point x="583.5" y="992.665"/>
      <point x="538" y="1028.5"/>
      <point x="405.5" y="1028.5" type="curve" smooth="yes"/>
      <point x="290.5" y="1028.5"/>
      <point x="183.5" y="1003"/>
      <point x="87" y="962" type="curve"/>
      <point x="105.5" y="1243" type="line"/>
      <point x="202.5" y="1282.5"/>
      <point x="323" y="1305"/>
      <point x="468" y="1305" type="curve" smooth="yes"/>
      <point x="785" y="1305"/>
      <point x="921" y="1179.52"/>
      <point x="921" y="978" type="curve" smooth="yes"/>
      <point x="921" y="962.5" type="line" smooth="yes"/>
      <point x="921" y="818.316"/>
      <point x="843.5" y="722.621"/>
      <point x="621" y="711.5" type="curve"/>
      <point x="626" y="584.5" type="line"/>
      <point x="877" y="516.465"/>
      <point x="938" y="434.422"/>
      <point x="938" y="305.5" type="curve" smooth="yes"/>
      <point x="938" y="297.5" type="line" smooth="yes"/>
      <point x="938" y="119.862"/>
      <point x="792.546" y="4.49999"/>
      <point x="467.5" y="4.49999" type="curve" smooth="yes"/>
      <point x="318.219" y="4.49999"/>
      <point x="177.688" y="28.3041"/>
      <point x="66.5" y="78.5" type="curve"/>
    </contour>
    <contour>
      <point x="608" y="735" type="line"/>
      <point x="769.5" y="743.5" type="line"/>
      <point x="773" y="729" type="line"/>
      <point x="849.6" y="747.425"/>
      <point x="924.039" y="760"/>
      <point x="1027" y="760" type="curve" smooth="yes"/>
      <point x="1279.5" y="760" type="line"/>
      <point x="1279.5" y="490" type="line"/>
      <point x="1030" y="490" type="line" smooth="yes"/>
      <point x="913.379" y="490"/>
      <point x="847.31" y="513.742"/>
      <point x="764.5" y="550.5" type="curve"/>
      <point x="755.5" y="527.5" type="line"/>
      <point x="608" y="559.5" type="line"/>
    </contour>
  </outline>
  <guideline angle="90" x="692" y="0"/>
  <guideline angle="90" x="710" y="0"/>
</glyph>
<glyph name="vowelU.dv" format="2">
  <advance width="1062"/>
  <unicode hex="0909"/>
  <anchor x="974" y="37" name="bottom3"/>
  <anchor x="516" y="55" name="bottom5"/>
  <anchor x="585.5" y="1234.5" name="top"/>
  <outline>
    <contour>
      <point x="-32" y="1033" type="line"/>
      <point x="-49.5" y="1287" type="line"/>
      <point x="1097.5" y="1287" type="line"/>
      <point x="1115" y="1033" type="line"/>
    </contour>
    <contour>
      <point x="887.5" y="1083.5" type="line"/>
      <point x="936" y="1039.5"/>
      <point x="956" y="987.5"/>
      <point x="956" y="913.5" type="curve" smooth="yes"/>
      <point x="956" y="903" type="line" smooth="yes"/>
      <point x="956" y="771"/>
      <point x="892.5" y="674.5"/>
      <point x="684.5" y="649" type="curve"/>
      <point x="684.5" y="639" type="line"/>
      <point x="903.5" y="607"/>
      <point x="987.5" y="504"/>
      <point x="987.5" y="331.5" type="curve" smooth="yes"/>
      <point x="987.5" y="313.5" type="line" smooth="yes"/>
      <point x="987.5" y="91.5"/>
      <point x="836.5" y="-29"/>
      <point x="498" y="-29" type="curve" smooth="yes"/>
      <point x="319.5" y="-29"/>
      <point x="185.5" y="2.5"/>
      <point x="88.5" y="52.5" type="curve"/>
      <point x="68.5" y="338" type="line"/>
      <point x="177.5" y="284"/>
      <point x="299.5" y="249.5"/>
      <point x="433" y="249.5" type="curve" smooth="yes"/>
      <point x="591" y="249.5"/>
      <point x="637" y="295"/>
      <point x="637" y="365.5" type="curve" smooth="yes"/>
      <point x="637" y="373.5" type="line" smooth="yes"/>
      <point x="637" y="448.5"/>
      <point x="599" y="490"/>
      <point x="390" y="499" type="curve" smooth="yes"/>
      <point x="211.5" y="506" type="line"/>
      <point x="211.5" y="773.5" type="line"/>
      <point x="383.5" y="779" type="line" smooth="yes"/>
      <point x="553" y="784.5"/>
      <point x="606.5" y="827"/>
      <point x="606.5" y="923.5" type="curve" smooth="yes"/>
      <point x="606.5" y="933" type="line" smooth="yes"/>
      <point x="606.5" y="998.5"/>
      <point x="587.5" y="1042"/>
      <point x="533" y="1083.5" type="curve"/>
    </contour>
  </outline>
</glyph>
<glyph name="vowelUu.dv" format="2">
  <advance width="1635"/>
  <unicode hex="090A"/>
  <anchor x="974" y="37" name="bottom3"/>
  <anchor x="516" y="55" name="bottom5"/>
  <anchor x="743" y="1234" name="top"/>
  <outline>
    <contour>
      <point x="1000.5" y="1033" type="line"/>
      <point x="983" y="1287" type="line"/>
      <point x="1666" y="1287" type="line"/>
      <point x="1683.5" y="1033" type="line"/>
    </contour>
    <contour>
      <point x="1081.5" y="-2.5" type="line"/>
      <point x="1178.5" y="93.5"/>
      <point x="1223" y="188"/>
      <point x="1223" y="298.5" type="curve" smooth="yes"/>
      <point x="1223" y="315" type="line" smooth="yes"/>
      <point x="1223" y="407.5"/>
      <point x="1193.77" y="452"/>
      <point x="1115" y="452" type="curve" smooth="yes"/>
      <point x="1043.64" y="452"/>
      <point x="998.054" y="403.5"/>
      <point x="980" y="311" type="curve"/>
      <point x="818.5" y="514" type="line"/>
      <point x="876.5" y="641"/>
      <point x="990" y="733"/>
      <point x="1187.5" y="733" type="curve" smooth="yes"/>
      <point x="1452" y="733"/>
      <point x="1568.5" y="580.08"/>
      <point x="1568.5" y="351" type="curve" smooth="yes"/>
      <point x="1568.5" y="335.5" type="line" smooth="yes"/>
      <point x="1568.5" y="195.357"/>
      <point x="1536.25" y="79.7846"/>
      <point x="1458" y="-3.5" type="curve"/>
    </contour>
    <contour>
      <point x="-32" y="1033" type="line"/>
      <point x="-49.5" y="1287" type="line"/>
      <point x="1097.5" y="1287" type="line"/>
      <point x="1115" y="1033" type="line"/>
    </contour>
    <contour>
      <point x="887.5" y="1083.5" type="line"/>
      <point x="936" y="1039.5"/>
      <point x="956" y="987.5"/>
      <point x="956" y="913.5" type="curve" smooth="yes"/>
      <point x="956" y="903" type="line" smooth="yes"/>
      <point x="956" y="771"/>
      <point x="892.5" y="674.5"/>
      <point x="684.5" y="649" type="curve"/>
      <point x="684.5" y="639" type="line"/>
      <point x="903.5" y="607"/>
      <point x="987.5" y="504"/>
      <point x="987.5" y="331.5" type="curve" smooth="yes"/>
      <point x="987.5" y="313.5" type="line" smooth="yes"/>
      <point x="987.5" y="91.5"/>
      <point x="836.5" y="-29"/>
      <point x="498" y="-29" type="curve" smooth="yes"/>
      <point x="319.5" y="-29"/>
      <point x="185.5" y="2.5"/>
      <point x="88.5" y="52.5" type="curve"/>
      <point x="68.5" y="338" type="line"/>
      <point x="177.5" y="284"/>
      <point x="299.5" y="249.5"/>
      <point x="433" y="249.5" type="curve" smooth="yes"/>
      <point x="591" y="249.5"/>
      <point x="637" y="295"/>
      <point x="637" y="365.5" type="curve" smooth="yes"/>
      <point x="637" y="373.5" type="line" smooth="yes"/>
      <point x="637" y="448.5"/>
      <point x="599" y="490"/>
      <point x="390" y="499" type="curve" smooth="yes"/>
      <point x="211.5" y="506" type="line"/>
      <point x="211.5" y="773.5" type="line"/>
      <point x="383.5" y="779" type="line" smooth="yes"/>
      <point x="553" y="784.5"/>
      <point x="606.5" y="827"/>
      <point x="606.5" y="923.5" type="curve" smooth="yes"/>
      <point x="606.5" y="933" type="line" smooth="yes"/>
      <point x="606.5" y="998.5"/>
      <point x="587.5" y="1042"/>
      <point x="533" y="1083.5" type="curve"/>
    </contour>
  </outline>
</glyph>
<glyph name="vowelRu.dv" format="2">
  <advance width="1820"/>
  <unicode hex="090B"/>
  <anchor x="1373" y="37" name="bottom3"/>
  <anchor x="922" y="55" name="bottom5"/>
  <anchor x="922" y="1234.5" name="top"/>
  <outline>
    <contour>
      <point x="1867" y="1033" type="line"/>
      <point x="-31.5" y="1033" type="line"/>
      <point x="-49" y="1287" type="line"/>
      <point x="1849.5" y="1287" type="line"/>
    </contour>
    <contour>
      <point x="1444" y="735.5" type="line"/>
      <point x="1548.5" y="499.5" type="line"/>
      <point x="1027.5" y="323" type="line"/>
      <point x="1027.5" y="600" type="line"/>
    </contour>
    <contour>
      <point x="1586" y="916" type="line"/>
      <point x="1634" y="841.943"/>
      <point x="1666.5" y="741.186"/>
      <point x="1681" y="641.939" type="curve"/>
      <point x="1574" y="517" type="line"/>
      <point x="1277" y="484.5" type="line"/>
      <point x="1277" y="916" type="line"/>
    </contour>
    <contour>
      <point x="1256.5" y="-3" type="curve"/>
      <point x="1237.5" y="252.5" type="line"/>
      <point x="1273.69" y="243.5"/>
      <point x="1304.03" y="239.5"/>
      <point x="1342.21" y="239.5" type="curve" smooth="yes"/>
      <point x="1421.59" y="239.5"/>
      <point x="1459" y="277.85"/>
      <point x="1459" y="338.832" type="curve" smooth="yes"/>
      <point x="1459" y="345.133" type="line" smooth="yes"/>
      <point x="1459" y="400.318"/>
      <point x="1429.91" y="446.66"/>
      <point x="1356" y="475" type="curve"/>
      <point x="1589.28" y="573.5" type="line"/>
      <point x="1719.39" y="513.603"/>
      <point x="1781.5" y="412.263"/>
      <point x="1781.5" y="281.671" type="curve" smooth="yes"/>
      <point x="1781.5" y="268.334" type="line" smooth="yes"/>
      <point x="1781.5" y="78.5355"/>
      <point x="1668.27" y="-28.5"/>
      <point x="1438.77" y="-28.5" type="curve" smooth="yes"/>
      <point x="1374.46" y="-28.5"/>
      <point x="1309.03" y="-20"/>
    </contour>
    <contour>
      <point x="1094.5" y="-1" type="line"/>
      <point x="750.5" y="-1" type="line"/>
      <point x="750.5" y="1109.5" type="line"/>
      <point x="1094.5" y="1109.5" type="line"/>
    </contour>
    <contour>
      <point x="812" y="248.5" type="line"/>
      <point x="80" y="-5" type="line"/>
      <point x="80" y="300.5" type="line"/>
      <point x="432.14" y="418" type="line"/>
      <point x="449" y="405" type="line"/>
      <point x="517" y="440.247"/>
      <point x="585.853" y="468.481"/>
      <point x="652.5" y="490.884" type="curve" smooth="yes"/>
      <point x="812" y="544.5" type="line"/>
    </contour>
    <contour>
      <point x="521" y="399.5" type="line"/>
      <point x="225" y="336" type="line"/>
      <point x="292.5" y="374.472"/>
      <point x="317" y="419.525"/>
      <point x="317" y="499" type="curve" smooth="yes"/>
      <point x="317" y="519.5" type="line" smooth="yes"/>
      <point x="317" y="603.173"/>
      <point x="288.038" y="641.5"/>
      <point x="211.894" y="641.5" type="curve" smooth="yes"/>
      <point x="165.648" y="641.5"/>
      <point x="118" y="628"/>
      <point x="75" y="610" type="curve"/>
      <point x="95.5" y="892" type="line"/>
      <point x="160" y="913.5"/>
      <point x="233.822" y="924"/>
      <point x="312.015" y="924" type="curve" smooth="yes"/>
      <point x="530.081" y="924"/>
      <point x="634.5" y="830.489"/>
      <point x="634.5" y="661" type="curve" smooth="yes"/>
      <point x="634.5" y="651" type="line" smooth="yes"/>
      <point x="634.5" y="555.668"/>
      <point x="589.645" y="493.378"/>
      <point x="505.5" y="449" type="curve"/>
    </contour>
  </outline>
</glyph>
<glyph name="vowelLru.dv" format="2">
  <advance width="1537"/>
  <unicode hex="090C"/>
  <anchor x="1267.5" y="-177" name="bottom3"/>
  <anchor x="1117" y="1234.5" name="top"/>
  <outline>
    <contour>
      <point x="1472.5" y="487" type="line" smooth="yes"/>
      <point x="1472.5" y="357.802"/>
      <point x="1445.55" y="281.325"/>
      <point x="1353.69" y="177.5" type="curve" smooth="yes"/>
      <point x="1260.15" y="71.7755"/>
      <point x="1235" y="46.3353"/>
      <point x="1235" y="5.5" type="curve" smooth="yes"/>
      <point x="1235" y="-33.5702"/>
      <point x="1264.5" y="-54.5"/>
      <point x="1327.5" y="-54.5" type="curve" smooth="yes"/>
      <point x="1393" y="-54.5"/>
      <point x="1449.5" y="-35"/>
      <point x="1494.5" y="-9" type="curve"/>
      <point x="1477.5" y="-273.5" type="line"/>
      <point x="1428" y="-299.5"/>
      <point x="1358" y="-315"/>
      <point x="1261.5" y="-315" type="curve" smooth="yes"/>
      <point x="1055" y="-315"/>
      <point x="905" y="-212.442"/>
      <point x="905" y="-28.2355" type="curve" smooth="yes"/>
      <point x="905" y="65.7077"/>
      <point x="934.423" y="141.373"/>
      <point x="1030.22" y="247.57" type="curve" smooth="yes"/>
      <point x="1113.73" y="340.141"/>
      <point x="1128.5" y="381.28"/>
      <point x="1128.5" y="469" type="curve" smooth="yes"/>
      <point x="1128.5" y="483.5" type="line"/>
      <point x="1472.5" y="503.5" type="line"/>
    </contour>
    <contour>
      <point x="885" y="1033" type="line"/>
      <point x="867.5" y="1287" type="line"/>
      <point x="1434" y="1287" type="line"/>
      <point x="1451.5" y="1033" type="line"/>
    </contour>
    <contour>
      <point x="1286.5" y="1119" type="line"/>
      <point x="1286.5" y="927.5" type="line"/>
      <point x="953" y="927.5" type="line"/>
      <point x="953" y="1119" type="line"/>
    </contour>
    <contour>
      <point x="-32" y="1033" type="line"/>
      <point x="-49.5" y="1287" type="line"/>
      <point x="1574" y="1287" type="line"/>
      <point x="1592" y="1033" type="line"/>
    </contour>
    <contour>
      <point x="1286.5" y="1076" type="line"/>
      <point x="1286.5" y="829" type="line"/>
      <point x="953" y="829" type="line"/>
      <point x="953" y="1076" type="line"/>
    </contour>
    <contour>
      <point x="75" y="430" type="curve" smooth="yes"/>
      <point x="75" y="460.5" type="line" smooth="yes"/>
      <point x="75" y="737.5"/>
      <point x="215.911" y="882"/>
      <point x="473.252" y="882" type="curve" smooth="yes"/>
      <point x="650.142" y="882"/>
      <point x="736.088" y="813.5"/>
      <point x="772.5" y="706" type="curve"/>
      <point x="780.5" y="706" type="line"/>
      <point x="816.5" y="812.5"/>
      <point x="908.623" y="882"/>
      <point x="1087.3" y="882" type="curve" smooth="yes"/>
      <point x="1349.5" y="882"/>
      <point x="1472.5" y="747.5"/>
      <point x="1472.5" y="511" type="curve" smooth="yes"/>
      <point x="1472.5" y="494.5" type="line"/>
      <point x="1128.5" y="475" type="line"/>
      <point x="1128.5" y="485.5" type="line" smooth="yes"/>
      <point x="1128.5" y="562"/>
      <point x="1099.41" y="598"/>
      <point x="1035.98" y="598" type="curve" smooth="yes"/>
      <point x="972.613" y="598"/>
      <point x="942.39" y="560.916"/>
      <point x="937.958" y="464.319" type="curve" smooth="yes"/>
      <point x="929.5" y="280" type="line"/>
      <point x="621.5" y="280" type="line"/>
      <point x="614.837" y="460.314" type="line" smooth="yes"/>
      <point x="611.082" y="561.936"/>
      <point x="590.154" y="600"/>
      <point x="524.688" y="600" type="curve" smooth="yes"/>
      <point x="459.23" y="600"/>
      <point x="421" y="555.84"/>
      <point x="421" y="445.506" type="curve" smooth="yes"/>
      <point x="421" y="421.718" type="line" smooth="yes"/>
      <point x="421" y="257.433"/>
      <point x="478.759" y="148.471"/>
      <point x="624" y="5.48075" type="curve"/>
      <point x="624" y="0" type="line"/>
      <point x="238.5" y="0" type="line"/>
      <point x="123" y="114.5"/>
      <point x="75" y="236"/>
    </contour>
  </outline>
  <guideline angle="90" x="700" y="0"/>
  <guideline angle="90" x="997.5" y="0"/>
</glyph>
<glyph name="vowelShortE.dv" format="2">
  <advance width="1191"/>
  <unicode hex="090E"/>
  <anchor x="1074.5" y="37" name="bottom3"/>
  <anchor x="1029.5" y="1234.5" name="top"/>
  <outline>
    <contour>
      <point x="424.5" y="1802.5" type="curve"/>
      <point x="427" y="1703"/>
      <point x="461.498" y="1671.31"/>
      <point x="592.5" y="1670" type="curve" smooth="yes"/>
      <point x="692.5" y="1669" type="line" smooth="yes"/>
      <point x="973.008" y="1666.19"/>
      <point x="1074" y="1542"/>
      <point x="1074" y="1313.5" type="curve" smooth="yes"/>
      <point x="1074" y="1234.5" type="line"/>
      <point x="773" y="1234.5" type="line"/>
      <point x="773" y="1298.5" type="line" smooth="yes"/>
      <point x="773" y="1374.5"/>
      <point x="751.512" y="1407.21"/>
      <point x="652.5" y="1408.5" type="curve" smooth="yes"/>
      <point x="537.5" y="1410" type="line" smooth="yes"/>
      <point x="245.972" y="1413.8"/>
      <point x="122" y="1514"/>
      <point x="122" y="1701.5" type="curve" smooth="yes"/>
      <point x="122" y="1741.5"/>
      <point x="128.5" y="1782"/>
      <point x="141.5" y="1819" type="curve"/>
      <point x="424" y="1819" type="line"/>
      <point x="424.041" y="1817.65"/>
      <point x="424.458" y="1803.89"/>
    </contour>
    <contour>
      <point x="-32" y="1033" type="line"/>
      <point x="-50" y="1287" type="line"/>
      <point x="1222.5" y="1287" type="line"/>
      <point x="1240.5" y="1033" type="line"/>
    </contour>
    <contour>
      <point x="446" y="611.5" type="line" smooth="yes"/>
      <point x="446" y="345.5"/>
      <point x="564" y="258.5"/>
      <point x="813.5" y="258.5" type="curve" smooth="yes"/>
      <point x="893.5" y="258.5"/>
      <point x="980.5" y="268.5"/>
      <point x="1052" y="285.5" type="curve"/>
      <point x="1019.5" y="8.5" type="line"/>
      <point x="952.335" y="-11.6364"/>
      <point x="867.409" y="-23"/>
      <point x="761.5" y="-23" type="curve" smooth="yes"/>
      <point x="330.648" y="-23"/>
      <point x="102" y="172"/>
      <point x="102" y="607.5" type="curve" smooth="yes"/>
      <point x="102" y="1115.5" type="line"/>
      <point x="446" y="1115.5" type="line"/>
    </contour>
    <contour>
      <point x="1097.5" y="812" type="line" smooth="yes"/>
      <point x="1097.5" y="526.776"/>
      <point x="974.877" y="407.5"/>
      <point x="724.092" y="407.5" type="curve" smooth="yes"/>
      <point x="690.082" y="407.5"/>
      <point x="648.972" y="411.855"/>
      <point x="618.5" y="417.852" type="curve"/>
      <point x="618.5" y="684.5" type="line"/>
      <point x="624.935" y="684.5"/>
      <point x="628.565" y="684.5"/>
      <point x="635" y="684.5" type="curve" smooth="yes"/>
      <point x="718.595" y="684.5"/>
      <point x="756" y="718.231"/>
      <point x="756" y="815" type="curve" smooth="yes"/>
      <point x="756" y="1105" type="line"/>
      <point x="1097.5" y="1105" type="line"/>
    </contour>
  </outline>
  <guideline angle="90" x="155" y="0"/>
  <guideline angle="90" x="317" y="0"/>
  <guideline angle="90" x="689" y="0"/>
  <guideline angle="90" x="547" y="0"/>
</glyph>
<glyph name="vowelShortO.dv" format="2">
  <advance width="2196"/>
  <unicode hex="0912"/>
  <anchor x="2020" y="1234.5" name="top"/>
  <outline>
    <contour>
      <point x="1363.5" y="1802.5" type="curve"/>
      <point x="1363.5" y="1703"/>
      <point x="1400.49" y="1670.92"/>
      <point x="1531.5" y="1670" type="curve" smooth="yes"/>
      <point x="1673.5" y="1669" type="line" smooth="yes"/>
      <point x="1954.01" y="1667.02"/>
      <point x="2055" y="1542"/>
      <point x="2055" y="1313.5" type="curve" smooth="yes"/>
      <point x="2055" y="1234.5" type="line"/>
      <point x="1754" y="1234.5" type="line"/>
      <point x="1754" y="1299.5" type="line" smooth="yes"/>
      <point x="1754" y="1375.5"/>
      <point x="1732.52" y="1408.55"/>
      <point x="1633.5" y="1409.5" type="curve" smooth="yes"/>
      <point x="1476.5" y="1411" type="line" smooth="yes"/>
      <point x="1184.96" y="1413.79"/>
      <point x="1061" y="1514"/>
      <point x="1061" y="1701.5" type="curve" smooth="yes"/>
      <point x="1061" y="1741.5"/>
      <point x="1067.5" y="1782"/>
      <point x="1080.5" y="1819" type="curve"/>
      <point x="1363" y="1819" type="line"/>
      <point x="1363.04" y="1817.65"/>
      <point x="1363.5" y="1803.89"/>
    </contour>
    <contour>
      <point x="1670.5" y="1033" type="line"/>
      <point x="1026.5" y="1033" type="line"/>
      <point x="1009" y="1287" type="line"/>
      <point x="1653" y="1287" type="line"/>
    </contour>
    <contour>
      <point x="1161" y="0" type="line"/>
      <point x="1161" y="1123.5" type="line"/>
      <point x="1505.5" y="1123.5" type="line"/>
      <point x="1505.5" y="0" type="line"/>
    </contour>
    <contour>
      <point x="49.5" y="363" type="line"/>
      <point x="148.5" y="314"/>
      <point x="272.5" y="281"/>
      <point x="396" y="281" type="curve" smooth="yes"/>
      <point x="550" y="281"/>
      <point x="599.5" y="317.5"/>
      <point x="599.5" y="397" type="curve" smooth="yes"/>
      <point x="599.5" y="403.5" type="line" smooth="yes"/>
      <point x="599.5" y="478"/>
      <point x="542.515" y="516.407"/>
      <point x="377.5" y="522.5" type="curve" smooth="yes"/>
      <point x="215" y="528.5" type="line"/>
      <point x="215" y="790" type="line"/>
      <point x="362" y="796" type="line" smooth="yes"/>
      <point x="539" y="805"/>
      <point x="583.5" y="838.5"/>
      <point x="583.5" y="911.5" type="curve" smooth="yes"/>
      <point x="583.5" y="917.5" type="line" smooth="yes"/>
      <point x="583.5" y="992.665"/>
      <point x="538" y="1028.5"/>
      <point x="405.5" y="1028.5" type="curve" smooth="yes"/>
      <point x="290.5" y="1028.5"/>
      <point x="183.5" y="1003"/>
      <point x="87" y="962" type="curve"/>
      <point x="105.5" y="1243" type="line"/>
      <point x="202.5" y="1282.5"/>
      <point x="323" y="1305"/>
      <point x="468" y="1305" type="curve" smooth="yes"/>
      <point x="785" y="1305"/>
      <point x="921" y="1179.52"/>
      <point x="921" y="978" type="curve" smooth="yes"/>
      <point x="921" y="962.5" type="line" smooth="yes"/>
      <point x="921" y="818.316"/>
      <point x="843.5" y="722.621"/>
      <point x="621" y="711.5" type="curve"/>
      <point x="626" y="584.5" type="line"/>
      <point x="877" y="516.465"/>
      <point x="938" y="434.422"/>
      <point x="938" y="305.5" type="curve" smooth="yes"/>
      <point x="938" y="297.5" type="line" smooth="yes"/>
      <point x="938" y="119.862"/>
      <point x="792.546" y="4.5"/>
      <point x="467.5" y="4.5" type="curve" smooth="yes"/>
      <point x="318.219" y="4.5"/>
      <point x="177.688" y="28.3041"/>
      <point x="66.5" y="78.5" type="curve"/>
    </contour>
    <contour>
      <point x="608" y="735" type="line"/>
      <point x="769.5" y="743.5" type="line"/>
      <point x="773" y="729" type="line"/>
      <point x="849.6" y="747.425"/>
      <point x="924.039" y="760"/>
      <point x="1027" y="760" type="curve" smooth="yes"/>
      <point x="1279.5" y="760" type="line"/>
      <point x="1279.5" y="490" type="line"/>
      <point x="1030" y="490" type="line" smooth="yes"/>
      <point x="913.379" y="490"/>
      <point x="847.31" y="513.742"/>
      <point x="764.5" y="550.5" type="curve"/>
      <point x="755.5" y="527.5" type="line"/>
      <point x="608" y="559.5" type="line"/>
    </contour>
    <contour>
      <point x="2081" y="0" type="line"/>
      <point x="1737" y="0" type="line"/>
      <point x="1737" y="1119" type="line"/>
      <point x="2081" y="1119" type="line"/>
    </contour>
    <contour>
      <point x="2246" y="1033" type="line"/>
      <point x="1589.5" y="1033" type="line"/>
      <point x="1572" y="1287" type="line"/>
      <point x="2228.5" y="1287" type="line"/>
    </contour>
  </outline>
</glyph>
<glyph name="Ka.dv" format="2">
  <advance width="1729"/>
  <unicode hex="0915"/>
  <anchor x="869.5" y="37.5" name="bottom"/>
  <anchor x="862.5" y="37.5" name="bottom2"/>
  <anchor x="1311.5" y="37.5" name="bottom3"/>
  <anchor x="869.5" y="55.5" name="bottom5"/>
  <anchor x="869.5" y="1235" name="top"/>
  <outline>
    <contour>
      <point x="-32" y="1033" type="line"/>
      <point x="-50" y="1287" type="line"/>
      <point x="1761" y="1287" type="line"/>
      <point x="1778" y="1033" type="line"/>
    </contour>
    <contour>
      <point x="69" y="497" type="curve" smooth="yes"/>
      <point x="69" y="528" type="line" smooth="yes"/>
      <point x="69" y="801"/>
      <point x="197" y="928"/>
      <point x="446" y="928" type="curve" smooth="yes"/>
      <point x="506" y="928"/>
      <point x="557" y="921"/>
      <point x="597" y="909" type="curve"/>
      <point x="616" y="650" type="line"/>
      <point x="594" y="653"/>
      <point x="576" y="655"/>
      <point x="549" y="655" type="curve" smooth="yes"/>
      <point x="454.156" y="655"/>
      <point x="417" y="615"/>
      <point x="417" y="526" type="curve" smooth="yes"/>
      <point x="417" y="508" type="line" smooth="yes"/>
      <point x="417" y="417"/>
      <point x="455.14" y="381"/>
      <point x="550" y="381" type="curve" smooth="yes"/>
      <point x="637" y="381"/>
      <point x="688" y="421"/>
      <point x="703" y="487" type="curve"/>
      <point x="720" y="291" type="line"/>
      <point x="686" y="291" type="line"/>
      <point x="655.434" y="172"/>
      <point x="576" y="104"/>
      <point x="412" y="104" type="curve" smooth="yes"/>
      <point x="193" y="104"/>
      <point x="69" y="227"/>
    </contour>
    <contour>
      <point x="1666" y="533" type="curve" smooth="yes"/>
      <point x="1666" y="504" type="line" smooth="yes"/>
      <point x="1666" y="230"/>
      <point x="1546" y="104"/>
      <point x="1295" y="104" type="curve" smooth="yes"/>
      <point x="1232" y="104"/>
      <point x="1183" y="110"/>
      <point x="1144" y="121" type="curve"/>
      <point x="1124" y="382" type="line"/>
      <point x="1146" y="379"/>
      <point x="1165" y="377"/>
      <point x="1190" y="377" type="curve" smooth="yes"/>
      <point x="1283.09" y="377"/>
      <point x="1318" y="414.708"/>
      <point x="1318" y="506" type="curve" smooth="yes"/>
      <point x="1318" y="520" type="line" smooth="yes"/>
      <point x="1318" y="607.677"/>
      <point x="1281.56" y="651"/>
      <point x="1189" y="651" type="curve" smooth="yes"/>
      <point x="1107.1" y="651"/>
      <point x="1050.79" y="607"/>
      <point x="1037" y="537" type="curve"/>
      <point x="1020" y="733" type="line"/>
      <point x="1054" y="733" type="line"/>
      <point x="1086.38" y="855"/>
      <point x="1175.43" y="928"/>
      <point x="1339" y="928" type="curve" smooth="yes"/>
      <point x="1553.35" y="928"/>
      <point x="1666" y="794"/>
    </contour>
    <contour>
      <point x="1041.5" y="1119.5" type="line"/>
      <point x="1041.5" y="0.5" type="line"/>
      <point x="697.5" y="0.5" type="line"/>
      <point x="697.5" y="1119.5" type="line"/>
    </contour>
  </outline>
</glyph>
<glyph name="Gha.dv" format="2">
  <advance width="1367"/>
  <unicode hex="0918"/>
  <anchor x="1080" y="37" name="bottom"/>
  <anchor x="1072.5" y="37" name="bottom2"/>
  <anchor x="1251.5" y="37" name="bottom3"/>
  <anchor x="1079.5" y="55" name="bottom5"/>
  <anchor x="1079.5" y="1234.5" name="top"/>
  <outline>
    <contour>
      <point x="1251.5" y="1119" type="line"/>
      <point x="1251.5" y="0" type="line"/>
      <point x="907.5" y="0" type="line"/>
      <point x="907.5" y="1119" type="line"/>
    </contour>
    <contour>
      <point x="859.5" y="1033" type="line"/>
      <point x="842" y="1287" type="line"/>
      <point x="1399" y="1287" type="line"/>
      <point x="1416.5" y="1033" type="line"/>
    </contour>
    <contour>
      <point x="-34.5" y="1033" type="line"/>
      <point x="-52" y="1287" type="line"/>
      <point x="1299" y="1287" type="line"/>
      <point x="1316.5" y="1033" type="line"/>
    </contour>
    <contour>
      <point x="366" y="703" type="line"/>
      <point x="162" y="726"/>
      <point x="85.5" y="802"/>
      <point x="85.5" y="928" type="curve" smooth="yes"/>
      <point x="85.5" y="938" type="line" smooth="yes"/>
      <point x="85.5" y="997.5"/>
      <point x="105.5" y="1049"/>
      <point x="150.5" y="1081.5" type="curve"/>
      <point x="519" y="1081.5" type="line"/>
      <point x="461" y="1055"/>
      <point x="437.5" y="1014"/>
      <point x="437.5" y="959.5" type="curve" smooth="yes"/>
      <point x="437.5" y="951" type="line" smooth="yes"/>
      <point x="437.5" y="874.5"/>
      <point x="479.5" y="838.5"/>
      <point x="628" y="831" type="curve" smooth="yes"/>
      <point x="744" y="825" type="line"/>
      <point x="744" y="567" type="line"/>
      <point x="623.5" y="563.5" type="line" smooth="yes"/>
      <point x="484.5" y="559"/>
      <point x="435.5" y="533.5"/>
      <point x="435.5" y="468" type="curve" smooth="yes"/>
      <point x="435.5" y="459.5" type="line" smooth="yes"/>
      <point x="435.5" y="395.5"/>
      <point x="494" y="366.5"/>
      <point x="652.5" y="366.5" type="curve" smooth="yes"/>
      <point x="802.5" y="366.5"/>
      <point x="888.5" y="414.5"/>
      <point x="913" y="493" type="curve"/>
      <point x="931" y="295.5" type="line"/>
      <point x="896.5" y="295.5" type="line"/>
      <point x="858.5" y="167.5"/>
      <point x="752" y="83"/>
      <point x="519.5" y="83" type="curve" smooth="yes"/>
      <point x="235.402" y="83"/>
      <point x="82" y="196.5"/>
      <point x="82" y="408.5" type="curve" smooth="yes"/>
      <point x="82" y="421" type="line" smooth="yes"/>
      <point x="82" y="577"/>
      <point x="159.713" y="672.5"/>
      <point x="366" y="692.5" type="curve"/>
    </contour>
  </outline>
</glyph>
<glyph name="Nga.dv" format="2">
  <advance width="1537"/>
  <unicode hex="0919"/>
  <anchor x="619" y="-8.5" name="bottom"/>
  <anchor x="545" y="-8.5" name="bottom2"/>
  <anchor x="1043" y="-8.5" name="bottom3"/>
  <anchor x="594" y="10" name="bottom5"/>
  <anchor x="848.5" y="1234.5" name="top"/>
  <outline>
    <contour>
      <point x="1329" y="385" type="curve" smooth="yes"/>
      <point x="1196.5" y="385"/>
      <point x="1129.5" y="452.5"/>
      <point x="1129.5" y="567.5" type="curve" smooth="yes"/>
      <point x="1129.5" y="578" type="line" smooth="yes"/>
      <point x="1129.5" y="692"/>
      <point x="1196.5" y="761"/>
      <point x="1329" y="761" type="curve" smooth="yes"/>
      <point x="1460.5" y="761"/>
      <point x="1527.5" y="692"/>
      <point x="1527.5" y="578" type="curve" smooth="yes"/>
      <point x="1527.5" y="567.5" type="line" smooth="yes"/>
      <point x="1527.5" y="452.5"/>
      <point x="1460.5" y="385"/>
    </contour>
    <contour>
      <point x="1586" y="1033" type="line"/>
      <point x="1098" y="1033" type="line"/>
      <point x="1080" y="1287" type="line"/>
      <point x="1568.5" y="1287" type="line"/>
    </contour>
    <contour>
      <point x="616.5" y="1033" type="line"/>
      <point x="599" y="1287" type="line"/>
      <point x="1165.5" y="1287" type="line"/>
      <point x="1183" y="1033" type="line"/>
    </contour>
    <contour>
      <point x="1018" y="1119" type="line"/>
      <point x="1018" y="927.5" type="line"/>
      <point x="684.5" y="927.5" type="line"/>
      <point x="684.5" y="1119" type="line"/>
    </contour>
    <contour>
      <point x="1203.5" y="1033" type="line"/>
      <point x="-30" y="1033" type="line"/>
      <point x="-47.5" y="1287" type="line"/>
      <point x="1186" y="1287" type="line"/>
    </contour>
    <contour>
      <point x="684.5" y="1110" type="line"/>
      <point x="1018" y="1110" type="line"/>
      <point x="1018" y="694.5" type="line"/>
      <point x="960.648" y="706.28"/>
      <point x="743.582" y="750.865"/>
      <point x="684.5" y="763" type="curve"/>
    </contour>
    <contour>
      <point x="69.5" y="327.5" type="line"/>
      <point x="214.5" y="258.5"/>
      <point x="380" y="214"/>
      <point x="540.5" y="214" type="curve" smooth="yes"/>
      <point x="728" y="214"/>
      <point x="760" y="237"/>
      <point x="760" y="289.5" type="curve"/>
      <point x="760" y="291.5" type="line"/>
      <point x="760" y="337"/>
      <point x="734" y="360.5"/>
      <point x="623.5" y="360.5" type="curve" smooth="yes"/>
      <point x="523" y="360.5"/>
      <point x="435" y="342.5"/>
      <point x="345" y="314.5" type="curve"/>
      <point x="173" y="360.5"/>
      <point x="77.5" y="465"/>
      <point x="77.5" y="627" type="curve" smooth="yes"/>
      <point x="77.5" y="636.5" type="line" smooth="yes"/>
      <point x="77.5" y="831"/>
      <point x="208.5" y="941.5"/>
      <point x="539.5" y="941.5" type="curve" smooth="yes"/>
      <point x="711" y="941.5"/>
      <point x="860" y="925.5"/>
      <point x="1018" y="897" type="curve"/>
      <point x="1018" y="687.5" type="line"/>
      <point x="895" y="702.5"/>
      <point x="780" y="710"/>
      <point x="650" y="710" type="curve" smooth="yes"/>
      <point x="455" y="710"/>
      <point x="414" y="679.5"/>
      <point x="414" y="631.5" type="curve" smooth="yes"/>
      <point x="414" y="628" type="line" smooth="yes"/>
      <point x="414" y="605"/>
      <point x="426" y="588"/>
      <point x="444.5" y="576" type="curve"/>
      <point x="530.5" y="597.5"/>
      <point x="602" y="609"/>
      <point x="704" y="609" type="curve" smooth="yes"/>
      <point x="983.5" y="609"/>
      <point x="1097.5" y="496.5"/>
      <point x="1097.5" y="299" type="curve" smooth="yes"/>
      <point x="1097.5" y="286" type="line" smooth="yes"/>
      <point x="1097.5" y="73.5"/>
      <point x="972.5" y="-45.5"/>
      <point x="597" y="-45.5" type="curve" smooth="yes"/>
      <point x="392.5" y="-45.5"/>
      <point x="223.674" y="-14.3269"/>
      <point x="91" y="47" type="curve"/>
    </contour>
  </outline>
</glyph>
<glyph name="Ca.dv" format="2">
  <advance width="1380"/>
  <unicode hex="091A"/>
  <anchor x="1093" y="37" name="bottom"/>
  <anchor x="1085.5" y="37" name="bottom2"/>
  <anchor x="1264.5" y="37" name="bottom3"/>
  <anchor x="1092.5" y="55" name="bottom5"/>
  <anchor x="1092.5" y="1234.5" name="top"/>
  <outline>
    <contour>
      <point x="1264.5" y="1119" type="line"/>
      <point x="1264.5" y="0" type="line"/>
      <point x="920.5" y="0" type="line"/>
      <point x="920.5" y="1119" type="line"/>
    </contour>
    <contour>
      <point x="872.5" y="1033" type="line"/>
      <point x="855" y="1287" type="line"/>
      <point x="1412" y="1287" type="line"/>
      <point x="1429.5" y="1033" type="line"/>
    </contour>
    <contour>
      <point x="-32" y="1033" type="line"/>
      <point x="-49.5" y="1287" type="line"/>
      <point x="1312" y="1287" type="line"/>
      <point x="1329.5" y="1033" type="line"/>
    </contour>
    <contour>
      <point x="797" y="901" type="line"/>
      <point x="797" y="637.5" type="line"/>
      <point x="367.5" y="636.5" type="line"/>
      <point x="260.5" y="631.5" type="line"/>
      <point x="49.5" y="631.5" type="line"/>
      <point x="49.5" y="901" type="line"/>
    </contour>
    <contour>
      <point x="562.242" y="83.5" type="curve" smooth="yes"/>
      <point x="316.455" y="83.5"/>
      <point x="176" y="192.354"/>
      <point x="176" y="390" type="curve" smooth="yes"/>
      <point x="176" y="401.5" type="line" smooth="yes"/>
      <point x="176" y="512.435"/>
      <point x="224.132" y="595.117"/>
      <point x="330.5" y="623.5" type="curve"/>
      <point x="329.5" y="705" type="line"/>
      <point x="797" y="704" type="line"/>
      <point x="797" y="637.5" type="line"/>
      <point x="692.805" y="633.394" type="line" smooth="yes"/>
      <point x="578.67" y="628.895"/>
      <point x="528" y="589.33"/>
      <point x="528" y="502.5" type="curve" smooth="yes"/>
      <point x="528" y="493.5" type="line" smooth="yes"/>
      <point x="528" y="407.575"/>
      <point x="582.342" y="367.463"/>
      <point x="709.403" y="367.5" type="curve" smooth="yes"/>
      <point x="838.977" y="367.537"/>
      <point x="908.898" y="414.5"/>
      <point x="926.5" y="497.5" type="curve"/>
      <point x="944" y="292" type="line"/>
      <point x="908.5" y="292" type="line"/>
      <point x="875.031" y="169"/>
      <point x="780.326" y="83.5"/>
    </contour>
  </outline>
  <guideline angle="0" x="0" y="94"/>
  <guideline angle="90" x="968" y="0"/>
  <guideline angle="0" x="0" y="9"/>
  <guideline angle="90" x="973" y="0"/>
  <guideline angle="90" x="956" y="0"/>
  <guideline angle="0" x="0" y="1262"/>
  <guideline angle="90" x="1093" y="0"/>
  <guideline angle="0" x="0" y="30"/>
</glyph>
<glyph name="Cha.dv" format="2">
  <advance width="1558"/>
  <unicode hex="091B"/>
  <anchor x="804" y="-7" name="bottom"/>
  <anchor x="742.5" y="-7" name="bottom2"/>
  <anchor x="1220.5" y="-7" name="bottom3"/>
  <anchor x="789" y="15.5" name="bottom4"/>
  <anchor x="765" y="11" name="bottom5"/>
  <anchor x="1144" y="1234.5" name="top"/>
  <outline>
    <contour>
      <point x="912" y="1033" type="line"/>
      <point x="894.5" y="1287" type="line"/>
      <point x="1461" y="1287" type="line"/>
      <point x="1478.5" y="1033" type="line"/>
    </contour>
    <contour>
      <point x="1313.5" y="1119" type="line"/>
      <point x="1313.5" y="927.5" type="line"/>
      <point x="980" y="927.5" type="line"/>
      <point x="980" y="1119" type="line"/>
    </contour>
    <contour>
      <point x="1582.5" y="1287" type="line"/>
      <point x="1600" y="1033" type="line"/>
      <point x="-53" y="1033" type="line"/>
      <point x="-70.5" y="1287" type="line"/>
    </contour>
    <contour>
      <point x="978.5" y="885" type="line"/>
      <point x="978.5" y="1123.5" type="line"/>
      <point x="1313.5" y="1123.5" type="line"/>
      <point x="1313.5" y="885" type="line"/>
    </contour>
    <contour>
      <point x="754.811" y="-44" type="curve" smooth="yes"/>
      <point x="297.158" y="-44"/>
      <point x="81" y="91.1539"/>
      <point x="81" y="348.5" type="curve" smooth="yes"/>
      <point x="81" y="358.5" type="line" smooth="yes"/>
      <point x="81" y="514.559"/>
      <point x="152.173" y="611.902"/>
      <point x="352.5" y="637.5" type="curve"/>
      <point x="352.5" y="646" type="line"/>
      <point x="151.685" y="673.486"/>
      <point x="82.5" y="758.57"/>
      <point x="82.5" y="900" type="curve" smooth="yes"/>
      <point x="82.5" y="907.5" type="line" smooth="yes"/>
      <point x="82.5" y="980.234"/>
      <point x="107.045" y="1043.32"/>
      <point x="163.778" y="1071" type="curve"/>
      <point x="531" y="1071" type="line"/>
      <point x="466.952" y="1051"/>
      <point x="437" y="997.308"/>
      <point x="437" y="931" type="curve" smooth="yes"/>
      <point x="437" y="921" type="line" smooth="yes"/>
      <point x="437" y="834.351"/>
      <point x="482.839" y="782.145"/>
      <point x="600.845" y="775.5" type="curve" smooth="yes"/>
      <point x="663" y="772" type="line"/>
      <point x="663" y="510.5" type="line"/>
      <point x="595.734" y="507.5" type="line" smooth="yes"/>
      <point x="477.251" y="502.216"/>
      <point x="434.5" y="459.5"/>
      <point x="434.5" y="393" type="curve" smooth="yes"/>
      <point x="434.5" y="386" type="line" smooth="yes"/>
      <point x="434.5" y="278.5"/>
      <point x="544.153" y="235"/>
      <point x="785.189" y="235" type="curve" smooth="yes"/>
      <point x="1070.85" y="235"/>
      <point x="1195" y="340.5"/>
      <point x="1195" y="511.5" type="curve" smooth="yes"/>
      <point x="1195" y="533.5" type="line"/>
      <point x="1191" y="556" type="line"/>
      <point x="1191" y="612.5" type="line" smooth="yes"/>
      <point x="1191" y="688.117"/>
      <point x="1167.89" y="722.5"/>
      <point x="1107.5" y="722.5" type="curve" smooth="yes"/>
      <point x="1053.95" y="722.5"/>
      <point x="1031" y="692.177"/>
      <point x="1031" y="641" type="curve" smooth="yes"/>
      <point x="1031" y="632.5" type="line" smooth="yes"/>
      <point x="1031" y="579.5"/>
      <point x="1058" y="554.5"/>
      <point x="1112" y="554.5" type="curve" smooth="yes"/>
      <point x="1152.01" y="554.5"/>
      <point x="1183.47" y="569.5"/>
      <point x="1201" y="592.5" type="curve"/>
      <point x="1199" y="464.5" type="line"/>
      <point x="1176" y="464.5" type="line"/>
      <point x="1150.6" y="392"/>
      <point x="1092.6" y="347"/>
      <point x="991" y="347" type="curve" smooth="yes"/>
      <point x="842.389" y="347"/>
      <point x="754" y="440"/>
      <point x="754" y="620" type="curve" smooth="yes"/>
      <point x="754" y="638" type="line" smooth="yes"/>
      <point x="754" y="845.5"/>
      <point x="874" y="945.5"/>
      <point x="1115" y="945.5" type="curve" smooth="yes"/>
      <point x="1391.5" y="945.5"/>
      <point x="1495.5" y="802"/>
      <point x="1495.5" y="559.5" type="curve" smooth="yes"/>
      <point x="1495.5" y="536" type="line" smooth="yes"/>
      <point x="1495.5" y="174"/>
      <point x="1263.19" y="-44"/>
    </contour>
  </outline>
</glyph>
<glyph name="Ja.dv" format="2">
  <advance width="1459"/>
  <unicode hex="091C"/>
  <anchor x="1172.5" y="37" name="bottom"/>
  <anchor x="1165" y="37" name="bottom2"/>
  <anchor x="1344" y="37" name="bottom3"/>
  <anchor x="1172" y="55" name="bottom5"/>
  <anchor x="1172" y="1234.5" name="top"/>
  <outline>
    <contour>
      <point x="1344" y="1119" type="line"/>
      <point x="1344" y="0" type="line"/>
      <point x="1000" y="0" type="line"/>
      <point x="1000" y="1119" type="line"/>
    </contour>
    <contour>
      <point x="952" y="1033" type="line"/>
      <point x="934.5" y="1287" type="line"/>
      <point x="1491.5" y="1287" type="line"/>
      <point x="1509" y="1033" type="line"/>
    </contour>
    <contour>
      <point x="1409" y="1033" type="line"/>
      <point x="-32" y="1033" type="line"/>
      <point x="-50" y="1287" type="line"/>
      <point x="1392" y="1287" type="line"/>
    </contour>
    <contour>
      <point x="1110" y="870" type="line"/>
      <point x="1110" y="600" type="line"/>
      <point x="850" y="600" type="line"/>
      <point x="552" y="609" type="line"/>
      <point x="178" y="610" type="line"/>
      <point x="178" y="870" type="line"/>
    </contour>
    <contour>
      <point x="667" y="680" type="line"/>
      <point x="667" y="596" type="line"/>
      <point x="783" y="559.432"/>
      <point x="835" y="483.366"/>
      <point x="835" y="365" type="curve" smooth="yes"/>
      <point x="835" y="350" type="line" smooth="yes"/>
      <point x="835" y="147.852"/>
      <point x="701" y="37"/>
      <point x="421" y="37" type="curve" smooth="yes"/>
      <point x="276.977" y="37"/>
      <point x="160" y="67"/>
      <point x="72" y="119" type="curve"/>
      <point x="59" y="403" type="line"/>
      <point x="146" y="350"/>
      <point x="239" y="318"/>
      <point x="334" y="318" type="curve" smooth="yes"/>
      <point x="435.647" y="318"/>
      <point x="481" y="361.977"/>
      <point x="481" y="453" type="curve" smooth="yes"/>
      <point x="481" y="464" type="line" smooth="yes"/>
      <point x="481" y="554.043"/>
      <point x="446.315" y="595.497"/>
      <point x="326" y="602" type="curve" smooth="yes"/>
      <point x="178" y="610" type="line"/>
      <point x="178" y="680" type="line"/>
    </contour>
  </outline>
  <guideline angle="90" x="1047.5" y="0"/>
  <guideline angle="0" x="0" y="9"/>
  <guideline angle="90" x="1052.5" y="0"/>
  <guideline angle="90" x="1035.5" y="0"/>
  <guideline angle="0" x="0" y="1262"/>
  <guideline angle="90" x="1172.5" y="0"/>
  <guideline angle="0" x="0" y="30"/>
</glyph>
<glyph name="Tta.dv" format="2">
  <advance width="1085"/>
  <unicode hex="091F"/>
  <anchor x="616.5" y="0.5" name="bottom"/>
  <anchor x="543" y="0.5" name="bottom2"/>
  <anchor x="1042.5" y="0.5" name="bottom3"/>
  <anchor x="607.5" y="16" name="bottom4"/>
  <anchor x="589" y="18" name="bottom5"/>
  <anchor x="791.5" y="1234.5" name="top"/>
  <outline>
    <contour>
      <point x="559.5" y="1033" type="line"/>
      <point x="542" y="1287" type="line"/>
      <point x="1108.5" y="1287" type="line"/>
      <point x="1126" y="1033" type="line"/>
    </contour>
    <contour>
      <point x="961" y="1119" type="line"/>
      <point x="961" y="927.5" type="line"/>
      <point x="627.5" y="927.5" type="line"/>
      <point x="627.5" y="1119" type="line"/>
    </contour>
    <contour>
      <point x="-24" y="1033" type="line"/>
      <point x="-42" y="1287" type="line"/>
      <point x="1128" y="1287" type="line"/>
      <point x="1146" y="1033" type="line"/>
    </contour>
    <contour>
      <point x="628" y="702" type="line"/>
      <point x="628" y="1124" type="line"/>
      <point x="961" y="1124" type="line"/>
      <point x="961" y="614" type="line"/>
    </contour>
    <contour>
      <point x="983" y="31" type="line"/>
      <point x="893" y="-13"/>
      <point x="769" y="-37"/>
      <point x="623" y="-37" type="curve" smooth="yes"/>
      <point x="261" y="-37"/>
      <point x="73" y="103"/>
      <point x="73" y="424" type="curve" smooth="yes"/>
      <point x="73" y="449" type="line" smooth="yes"/>
      <point x="73" y="764"/>
      <point x="242" y="886"/>
      <point x="584" y="886" type="curve" smooth="yes"/>
      <point x="712" y="886"/>
      <point x="826" y="876"/>
      <point x="961" y="854" type="curve"/>
      <point x="961" y="604" type="line"/>
      <point x="846" y="617"/>
      <point x="771" y="622"/>
      <point x="677" y="622" type="curve" smooth="yes"/>
      <point x="495" y="622"/>
      <point x="427" y="570"/>
      <point x="427" y="441" type="curve" smooth="yes"/>
      <point x="427" y="424" type="line" smooth="yes"/>
      <point x="427" y="303"/>
      <point x="497" y="246"/>
      <point x="665" y="246" type="curve" smooth="yes"/>
      <point x="789" y="246"/>
      <point x="912" y="276"/>
      <point x="1003" y="320" type="curve"/>
    </contour>
  </outline>
  <guideline angle="0" x="0" y="33"/>
  <guideline angle="0" x="0" y="-125"/>
  <guideline angle="90" x="672" y="0"/>
</glyph>
<glyph name="Ttha.dv" format="2">
  <advance width="1269"/>
  <unicode hex="0920"/>
  <anchor x="663.5" y="0.5" name="bottom"/>
  <anchor x="591" y="0.5" name="bottom2"/>
  <anchor x="1092.5" y="0.5" name="bottom3"/>
  <anchor x="639" y="15.5" name="bottom4"/>
  <anchor x="638.5" y="19" name="bottom5"/>
  <anchor x="782.5" y="1234.5" name="top"/>
  <outline>
    <contour>
      <point x="550.5" y="1033" type="line"/>
      <point x="533" y="1287" type="line"/>
      <point x="1099.5" y="1287" type="line"/>
      <point x="1117" y="1033" type="line"/>
    </contour>
    <contour>
      <point x="952" y="1119" type="line"/>
      <point x="952" y="927.5" type="line"/>
      <point x="618.5" y="927.5" type="line"/>
      <point x="618.5" y="1119" type="line"/>
    </contour>
    <contour>
      <point x="-42" y="1287" type="line"/>
      <point x="1299" y="1287" type="line"/>
      <point x="1316" y="1033" type="line"/>
      <point x="-24" y="1033" type="line"/>
    </contour>
    <contour>
      <point x="619" y="1125" type="line"/>
      <point x="952" y="1125" type="line"/>
      <point x="952" y="686" type="line"/>
      <point x="619" y="703" type="line"/>
    </contour>
    <contour>
      <point x="911" y="853" type="line"/>
      <point x="1105" y="790.509"/>
      <point x="1199" y="666.386"/>
      <point x="1199" y="449" type="curve" smooth="yes"/>
      <point x="1199" y="413" type="line" smooth="yes"/>
      <point x="1199" y="111"/>
      <point x="1020" y="-36"/>
      <point x="636" y="-36" type="curve" smooth="yes"/>
      <point x="267" y="-36"/>
      <point x="73" y="108"/>
      <point x="73" y="414" type="curve" smooth="yes"/>
      <point x="73" y="456" type="line" smooth="yes"/>
      <point x="73" y="756"/>
      <point x="249" y="888"/>
      <point x="595" y="888" type="curve" smooth="yes"/>
      <point x="706" y="888"/>
      <point x="816" y="877"/>
      <point x="949" y="848" type="curve"/>
      <point x="949" y="569" type="line"/>
      <point x="844" y="606"/>
      <point x="751" y="626"/>
      <point x="642" y="626" type="curve" smooth="yes"/>
      <point x="490" y="626"/>
      <point x="424" y="574"/>
      <point x="424" y="448" type="curve" smooth="yes"/>
      <point x="424" y="428" type="line" smooth="yes"/>
      <point x="424" y="300"/>
      <point x="491" y="246"/>
      <point x="638" y="246" type="curve" smooth="yes"/>
      <point x="779" y="246"/>
      <point x="849" y="302"/>
      <point x="849" y="429" type="curve" smooth="yes"/>
      <point x="849" y="446" type="line" smooth="yes"/>
      <point x="849" y="558"/>
      <point x="805" y="618"/>
      <point x="699" y="634" type="curve"/>
    </contour>
  </outline>
</glyph>
<glyph name="Dda.dv" format="2">
  <advance width="1158"/>
  <unicode hex="0921"/>
  <anchor x="619" y="-8.5" name="bottom"/>
  <anchor x="545" y="-8.5" name="bottom2"/>
  <anchor x="1043" y="-8.5" name="bottom3"/>
  <anchor x="594" y="10" name="bottom5"/>
  <anchor x="848.5" y="1234.5" name="top"/>
  <outline>
    <contour>
      <point x="616.5" y="1033" type="line"/>
      <point x="599" y="1287" type="line"/>
      <point x="1165.5" y="1287" type="line"/>
      <point x="1183" y="1033" type="line"/>
    </contour>
    <contour>
      <point x="1018" y="1119" type="line"/>
      <point x="1018" y="927.5" type="line"/>
      <point x="684.5" y="927.5" type="line"/>
      <point x="684.5" y="1119" type="line"/>
    </contour>
    <contour>
      <point x="1203.5" y="1033" type="line"/>
      <point x="-30" y="1033" type="line"/>
      <point x="-47.5" y="1287" type="line"/>
      <point x="1186" y="1287" type="line"/>
    </contour>
    <contour>
      <point x="684.5" y="1110" type="line"/>
      <point x="1018" y="1110" type="line"/>
      <point x="1018" y="694.5" type="line"/>
      <point x="960.648" y="706.28"/>
      <point x="743.582" y="750.865"/>
      <point x="684.5" y="763" type="curve"/>
    </contour>
    <contour>
      <point x="69.5" y="327.5" type="line"/>
      <point x="214.5" y="258.5"/>
      <point x="380" y="214"/>
      <point x="540.5" y="214" type="curve" smooth="yes"/>
      <point x="728" y="214"/>
      <point x="760" y="237"/>
      <point x="760" y="289.5" type="curve"/>
      <point x="760" y="291.5" type="line"/>
      <point x="760" y="337"/>
      <point x="734" y="360.5"/>
      <point x="623.5" y="360.5" type="curve" smooth="yes"/>
      <point x="523" y="360.5"/>
      <point x="435" y="342.5"/>
      <point x="345" y="314.5" type="curve"/>
      <point x="173" y="360.5"/>
      <point x="77.5" y="465"/>
      <point x="77.5" y="627" type="curve" smooth="yes"/>
      <point x="77.5" y="636.5" type="line" smooth="yes"/>
      <point x="77.5" y="831"/>
      <point x="208.5" y="941.5"/>
      <point x="539.5" y="941.5" type="curve" smooth="yes"/>
      <point x="711" y="941.5"/>
      <point x="860" y="925.5"/>
      <point x="1018" y="897" type="curve"/>
      <point x="1018" y="687.5" type="line"/>
      <point x="895" y="702.5"/>
      <point x="780" y="710"/>
      <point x="650" y="710" type="curve" smooth="yes"/>
      <point x="455" y="710"/>
      <point x="414" y="679.5"/>
      <point x="414" y="631.5" type="curve" smooth="yes"/>
      <point x="414" y="628" type="line" smooth="yes"/>
      <point x="414" y="605"/>
      <point x="426" y="588"/>
      <point x="444.5" y="576" type="curve"/>
      <point x="530.5" y="597.5"/>
      <point x="602" y="609"/>
      <point x="704" y="609" type="curve" smooth="yes"/>
      <point x="983.5" y="609"/>
      <point x="1097.5" y="496.5"/>
      <point x="1097.5" y="299" type="curve" smooth="yes"/>
      <point x="1097.5" y="286" type="line" smooth="yes"/>
      <point x="1097.5" y="73.5"/>
      <point x="972.5" y="-45.5"/>
      <point x="597" y="-45.5" type="curve" smooth="yes"/>
      <point x="392.5" y="-45.5"/>
      <point x="223.674" y="-14.3269"/>
      <point x="91" y="47" type="curve"/>
    </contour>
  </outline>
  <guideline angle="0" x="0" y="22"/>
  <guideline angle="0" x="0" y="545"/>
  <guideline angle="90" x="275" y="0"/>
  <guideline angle="90" x="518" y="0"/>
  <guideline angle="0" x="0" y="43"/>
  <guideline angle="90" x="729" y="0"/>
</glyph>
<glyph name="Ta.dv" format="2">
  <advance width="1259"/>
  <unicode hex="0924"/>
  <anchor x="972.5" y="37" name="bottom"/>
  <anchor x="965" y="37" name="bottom2"/>
  <anchor x="1144" y="37" name="bottom3"/>
  <anchor x="972" y="55" name="bottom5"/>
  <anchor x="972" y="1234.5" name="top"/>
  <outline>
    <contour>
      <point x="1144" y="1119" type="line"/>
      <point x="1144" y="0" type="line"/>
      <point x="800" y="0" type="line"/>
      <point x="800" y="1119" type="line"/>
    </contour>
    <contour>
      <point x="752" y="1033" type="line"/>
      <point x="734.5" y="1287" type="line"/>
      <point x="1291.5" y="1287" type="line"/>
      <point x="1309" y="1033" type="line"/>
    </contour>
    <contour>
      <point x="-32" y="1033" type="line"/>
      <point x="-49.5" y="1287" type="line"/>
      <point x="1196.5" y="1287" type="line"/>
      <point x="1214" y="1033" type="line"/>
    </contour>
    <contour>
      <point x="214.5" y="0" type="line"/>
      <point x="129.354" y="159"/>
      <point x="80.5" y="322"/>
      <point x="80.5" y="479.5" type="curve" smooth="yes"/>
      <point x="80.5" y="716.5"/>
      <point x="214.472" y="862"/>
      <point x="523" y="862" type="curve" smooth="yes"/>
      <point x="937" y="862" type="line"/>
      <point x="937" y="587.5" type="line"/>
      <point x="590" y="587.5" type="line" smooth="yes"/>
      <point x="481.479" y="587.5"/>
      <point x="434.5" y="535"/>
      <point x="434.5" y="434" type="curve" smooth="yes"/>
      <point x="434.5" y="319.5"/>
      <point x="486.791" y="178"/>
      <point x="575.5" y="0" type="curve"/>
    </contour>
  </outline>
</glyph>
<glyph name="Tha.dv" format="2">
  <advance width="1481"/>
  <unicode hex="0925"/>
  <anchor x="1194" y="37" name="bottom"/>
  <anchor x="1186.5" y="37" name="bottom2"/>
  <anchor x="1365.5" y="37" name="bottom3"/>
  <anchor x="1193.5" y="55" name="bottom5"/>
  <anchor x="1193.5" y="1234.5" name="top"/>
  <outline>
    <contour>
      <point x="1365.5" y="1119" type="line"/>
      <point x="1365.5" y="0" type="line"/>
      <point x="1021.5" y="0" type="line"/>
      <point x="1021.5" y="1119" type="line"/>
    </contour>
    <contour>
      <point x="973.5" y="1033" type="line"/>
      <point x="956" y="1287" type="line"/>
      <point x="1513" y="1287" type="line"/>
      <point x="1530.5" y="1033" type="line"/>
    </contour>
    <contour>
      <point x="936" y="1287" type="line"/>
      <point x="1413" y="1287" type="line"/>
      <point x="1431" y="1033" type="line"/>
      <point x="954" y="1033" type="line"/>
    </contour>
    <contour>
      <point x="125" y="853" type="line"/>
      <point x="107" y="900"/>
      <point x="97" y="956"/>
      <point x="97" y="1007" type="curve" smooth="yes"/>
      <point x="97" y="1209"/>
      <point x="233" y="1318"/>
      <point x="495" y="1318" type="curve" smooth="yes"/>
      <point x="765" y="1318"/>
      <point x="899" y="1193"/>
      <point x="899" y="939" type="curve" smooth="yes"/>
      <point x="899" y="897" type="line" smooth="yes"/>
      <point x="899" y="633.349"/>
      <point x="738" y="506"/>
      <point x="387" y="506" type="curve" smooth="yes"/>
      <point x="228" y="506" type="line"/>
      <point x="93" y="742" type="line"/>
      <point x="276" y="742" type="line" smooth="yes"/>
      <point x="510" y="742"/>
      <point x="580" y="799"/>
      <point x="580" y="915" type="curve" smooth="yes"/>
      <point x="580" y="942" type="line" smooth="yes"/>
      <point x="580" y="1026"/>
      <point x="555.415" y="1056"/>
      <point x="496" y="1056" type="curve" smooth="yes"/>
      <point x="432.477" y="1056"/>
      <point x="410" y="1024"/>
      <point x="410" y="950" type="curve" smooth="yes"/>
      <point x="410" y="853" type="line"/>
    </contour>
    <contour>
      <point x="82" y="577" type="line" smooth="yes"/>
      <point x="82" y="624.612"/>
      <point x="85.2222" y="678.35"/>
      <point x="93" y="742" type="curve"/>
      <point x="415" y="665" type="line"/>
      <point x="415" y="530" type="line" smooth="yes"/>
      <point x="415" y="426"/>
      <point x="501" y="384"/>
      <point x="700" y="384" type="curve" smooth="yes"/>
      <point x="884" y="384"/>
      <point x="995" y="439"/>
      <point x="1027" y="543" type="curve"/>
      <point x="1045" y="333" type="line"/>
      <point x="1010" y="333" type="line"/>
      <point x="970.52" y="194"/>
      <point x="854.118" y="101"/>
      <point x="599" y="101" type="curve" smooth="yes"/>
      <point x="262.257" y="101"/>
      <point x="82" y="257.702"/>
      <point x="82" y="571" type="curve" smooth="yes"/>
    </contour>
  </outline>
</glyph>
<glyph name="Da.dv" format="2">
  <advance width="1177"/>
  <unicode hex="0926"/>
  <anchor x="909.5" y="-82" name="bottom"/>
  <anchor x="698.5" y="-107" name="bottom2"/>
  <anchor x="1069" y="-107" name="bottom3"/>
  <anchor x="332.5" y="84" name="bottom4"/>
  <anchor x="634" y="-91.5" name="bottom5"/>
  <anchor x="884.5" y="1234.5" name="top"/>
  <outline>
    <contour>
      <point x="652.5" y="1033" type="line"/>
      <point x="635" y="1287" type="line"/>
      <point x="1201.5" y="1287" type="line"/>
      <point x="1219" y="1033" type="line"/>
    </contour>
    <contour>
      <point x="1054" y="1119" type="line"/>
      <point x="1054" y="927.5" type="line"/>
      <point x="720.5" y="927.5" type="line"/>
      <point x="720.5" y="1119" type="line"/>
    </contour>
    <contour>
      <point x="-26.5" y="1033" type="line"/>
      <point x="-44" y="1287" type="line"/>
      <point x="1213.5" y="1287" type="line"/>
      <point x="1231" y="1033" type="line"/>
    </contour>
    <contour>
      <point x="714.5" y="736.5" type="line"/>
      <point x="714.5" y="1123.5" type="line"/>
      <point x="1054" y="1123.5" type="line"/>
      <point x="1054" y="658.5" type="line"/>
    </contour>
    <contour>
      <point x="1072.5" y="511.5" type="line"/>
      <point x="1072.5" y="221.5" type="line"/>
      <point x="1131" y="-146" type="line"/>
      <point x="797.5" y="-146" type="line"/>
      <point x="757" y="193.5" type="line"/>
      <point x="730" y="236.5" type="line"/>
      <point x="730" y="511.5" type="line"/>
    </contour>
    <contour>
      <point x="591.876" y="311" type="curve" smooth="yes"/>
      <point x="662.647" y="311"/>
      <point x="708.176" y="324.5"/>
      <point x="745.5" y="349" type="curve"/>
      <point x="788" y="127" type="line"/>
      <point x="736" y="68"/>
      <point x="641.755" y="32.5"/>
      <point x="508" y="32.5" type="curve" smooth="yes"/>
      <point x="238.999" y="32.5"/>
      <point x="70" y="171.359"/>
      <point x="70" y="457.224" type="curve" smooth="yes"/>
      <point x="70" y="482.905" type="line" smooth="yes"/>
      <point x="70" y="788.037"/>
      <point x="246.283" y="918"/>
      <point x="594.866" y="918" type="curve" smooth="yes"/>
      <point x="739.777" y="918"/>
      <point x="889.17" y="904.5"/>
      <point x="1054" y="880" type="curve"/>
      <point x="1054" y="649.5" type="line"/>
      <point x="938.329" y="657.5"/>
      <point x="820.343" y="662"/>
      <point x="715.188" y="662" type="curve" smooth="yes"/>
      <point x="494.396" y="662"/>
      <point x="418" y="611.041"/>
      <point x="418" y="481.145" type="curve" smooth="yes"/>
      <point x="418" y="466" type="line" smooth="yes"/>
      <point x="418" y="362.437"/>
      <point x="481.109" y="311"/>
    </contour>
  </outline>
</glyph>
<glyph name="Dha.dv" format="2">
  <advance width="1465"/>
  <unicode hex="0927"/>
  <anchor x="1178.5" y="37" name="bottom"/>
  <anchor x="1171" y="37" name="bottom2"/>
  <anchor x="1350" y="37" name="bottom3"/>
  <anchor x="1178" y="55" name="bottom5"/>
  <anchor x="1178" y="1234.5" name="top"/>
  <outline>
    <contour>
      <point x="1350" y="1119" type="line"/>
      <point x="1350" y="0" type="line"/>
      <point x="1006" y="0" type="line"/>
      <point x="1006" y="1119" type="line"/>
    </contour>
    <contour>
      <point x="958" y="1033" type="line"/>
      <point x="940.5" y="1287" type="line"/>
      <point x="1497.5" y="1287" type="line"/>
      <point x="1515" y="1033" type="line"/>
    </contour>
    <contour>
      <point x="923" y="1033" type="line"/>
      <point x="905" y="1287" type="line"/>
      <point x="1498" y="1287" type="line"/>
      <point x="1515" y="1033" type="line"/>
    </contour>
    <contour>
      <point x="74" y="405" type="line" smooth="yes"/>
      <point x="74" y="549"/>
      <point x="151" y="639"/>
      <point x="382" y="651" type="curve"/>
      <point x="382" y="660" type="line"/>
      <point x="144" y="683"/>
      <point x="40" y="779"/>
      <point x="40" y="959" type="curve" smooth="yes"/>
      <point x="40" y="981" type="line" smooth="yes"/>
      <point x="40" y="1198"/>
      <point x="171" y="1319"/>
      <point x="459" y="1319" type="curve" smooth="yes"/>
      <point x="736" y="1319"/>
      <point x="856" y="1208"/>
      <point x="856" y="1019" type="curve" smooth="yes"/>
      <point x="856" y="969"/>
      <point x="848" y="921"/>
      <point x="836" y="881" type="curve"/>
      <point x="552" y="881" type="line"/>
      <point x="552" y="948" type="line" smooth="yes"/>
      <point x="552" y="1029"/>
      <point x="528" y="1057"/>
      <point x="465" y="1057" type="curve" smooth="yes"/>
      <point x="401" y="1057"/>
      <point x="372" y="1023"/>
      <point x="372" y="950" type="curve" smooth="yes"/>
      <point x="372" y="932" type="line" smooth="yes"/>
      <point x="372" y="824"/>
      <point x="434.025" y="791.612"/>
      <point x="611" y="784" type="curve" smooth="yes"/>
      <point x="797" y="776" type="line"/>
      <point x="797" y="522" type="line"/>
      <point x="599" y="518" type="line" smooth="yes"/>
      <point x="464.994" y="515.293"/>
      <point x="424" y="495"/>
      <point x="424" y="447" type="curve" smooth="yes"/>
      <point x="424" y="442" type="line" smooth="yes"/>
      <point x="424" y="393"/>
      <point x="469" y="366"/>
      <point x="684" y="366" type="curve" smooth="yes"/>
      <point x="884" y="366"/>
      <point x="985" y="415"/>
      <point x="1013" y="501" type="curve"/>
      <point x="1030" y="307" type="line"/>
      <point x="995" y="307" type="line"/>
      <point x="953" y="161"/>
      <point x="826" y="82"/>
      <point x="582" y="82" type="curve" smooth="yes"/>
      <point x="238" y="82"/>
      <point x="74" y="190"/>
      <point x="74" y="395" type="curve" smooth="yes"/>
    </contour>
  </outline>
</glyph>
<glyph name="Na.dv" format="2">
  <advance width="1245"/>
  <unicode hex="0928"/>
  <anchor x="958.5" y="37" name="bottom"/>
  <anchor x="951" y="37" name="bottom2"/>
  <anchor x="1130" y="37" name="bottom3"/>
  <anchor x="958" y="55" name="bottom5"/>
  <anchor x="958" y="1234.5" name="top"/>
  <outline>
    <contour>
      <point x="1130" y="1119" type="line"/>
      <point x="1130" y="0" type="line"/>
      <point x="786" y="0" type="line"/>
      <point x="786" y="1119" type="line"/>
    </contour>
    <contour>
      <point x="738" y="1033" type="line"/>
      <point x="720.5" y="1287" type="line"/>
      <point x="1277.5" y="1287" type="line"/>
      <point x="1295" y="1033" type="line"/>
    </contour>
    <contour>
      <point x="1195" y="1033" type="line"/>
      <point x="-37.5" y="1033" type="line"/>
      <point x="-55" y="1287" type="line"/>
      <point x="1177.5" y="1287" type="line"/>
    </contour>
    <contour>
      <point x="922.5" y="798.5" type="line"/>
      <point x="922.5" y="522.5" type="line"/>
      <point x="370.5" y="522.5" type="line"/>
      <point x="370.5" y="798.5" type="line"/>
    </contour>
    <contour>
      <point x="207.5" y="210" type="line"/>
      <point x="121.5" y="340"/>
      <point x="59.5" y="505.5"/>
      <point x="45" y="693.5" type="curve"/>
      <point x="199" y="798.5" type="line"/>
      <point x="495.5" y="798.5" type="line"/>
      <point x="495.5" y="210" type="line"/>
    </contour>
  </outline>
</glyph>
<glyph name="NaNukta.dv" format="2">
  <advance width="1245"/>
  <unicode hex="0929"/>
  <anchor x="958.5" y="37" name="bottom"/>
  <anchor x="951" y="37" name="bottom2"/>
  <anchor x="1130" y="37" name="bottom3"/>
  <anchor x="958" y="55" name="bottom5"/>
  <anchor x="958" y="1234.5" name="top"/>
  <outline>
    <contour>
      <point x="1130" y="1119" type="line"/>
      <point x="1130" y="0" type="line"/>
      <point x="786" y="0" type="line"/>
      <point x="786" y="1119" type="line"/>
    </contour>
    <contour>
      <point x="738" y="1033" type="line"/>
      <point x="720.5" y="1287" type="line"/>
      <point x="1277.5" y="1287" type="line"/>
      <point x="1295" y="1033" type="line"/>
    </contour>
    <contour>
      <point x="1195" y="1033" type="line"/>
      <point x="-37.5" y="1033" type="line"/>
      <point x="-55" y="1287" type="line"/>
      <point x="1177.5" y="1287" type="line"/>
    </contour>
    <contour>
      <point x="922.5" y="798.5" type="line"/>
      <point x="922.5" y="522.5" type="line"/>
      <point x="370.5" y="522.5" type="line"/>
      <point x="370.5" y="798.5" type="line"/>
    </contour>
    <contour>
      <point x="207.5" y="210" type="line"/>
      <point x="121.5" y="340"/>
      <point x="59.5" y="505.5"/>
      <point x="45" y="693.5" type="curve"/>
      <point x="199" y="798.5" type="line"/>
      <point x="495.5" y="798.5" type="line"/>
      <point x="495.5" y="210" type="line"/>
    </contour>
    <contour>
      <point x="336" y="-207" type="curve" smooth="yes"/>
      <point x="218" y="-207"/>
      <point x="157.5" y="-142"/>
      <point x="157.5" y="-38.5" type="curve"/>
      <point x="157.5" y="-37.0638"/>
      <point x="157.5" y="-33.2441"/>
      <point x="157.5" y="-32" type="curve"/>
      <point x="157.5" y="72"/>
      <point x="218" y="137"/>
      <point x="336" y="137" type="curve" smooth="yes"/>
      <point x="454" y="137"/>
      <point x="513.5" y="71"/>
      <point x="513.5" y="-32" type="curve"/>
      <point x="513.5" y="-33.4362"/>
      <point x="513.5" y="-37.2559"/>
      <point x="513.5" y="-38.5" type="curve"/>
      <point x="513.5" y="-142"/>
      <point x="453.5" y="-207"/>
    </contour>
  </outline>
</glyph>
<glyph name="Pha.dv" format="2">
  <advance width="1773"/>
  <unicode hex="092B"/>
  <anchor x="904" y="37" name="bottom"/>
  <anchor x="896.5" y="37" name="bottom2"/>
  <anchor x="1358.5" y="37" name="bottom3"/>
  <anchor x="903.5" y="55" name="bottom5"/>
  <anchor x="903.5" y="1234.5" name="top"/>
  <outline>
    <contour>
      <point x="-32" y="1033" type="line"/>
      <point x="-49.5" y="1287" type="line"/>
      <point x="1804" y="1287" type="line"/>
      <point x="1821.5" y="1033" type="line"/>
    </contour>
    <contour>
      <point x="444" y="238" type="curve" smooth="yes"/>
      <point x="230.5" y="238"/>
      <point x="105.5" y="356.5"/>
      <point x="105.5" y="643.5" type="curve" smooth="yes"/>
      <point x="105.5" y="1119.5" type="line"/>
      <point x="449.5" y="1119.5" type="line"/>
      <point x="449.5" y="685" type="line" smooth="yes"/>
      <point x="449.5" y="561.5"/>
      <point x="498.681" y="522"/>
      <point x="594" y="522" type="curve" smooth="yes"/>
      <point x="675.382" y="522"/>
      <point x="719.701" y="559"/>
      <point x="736" y="623.5" type="curve"/>
      <point x="754.5" y="430.5" type="line"/>
      <point x="720" y="430.5" type="line"/>
      <point x="690" y="315"/>
      <point x="610" y="238"/>
    </contour>
    <contour>
      <point x="1237" y="627.5" type="curve" smooth="yes"/>
      <point x="1156" y="627.5"/>
      <point x="1095.7" y="585.859"/>
      <point x="1067.5" y="518" type="curve"/>
      <point x="1051.5" y="716" type="line"/>
      <point x="1087.5" y="716" type="line"/>
      <point x="1125.24" y="830"/>
      <point x="1211.63" y="904"/>
      <point x="1372.55" y="904" type="curve" smooth="yes"/>
      <point x="1601.5" y="904"/>
      <point x="1709.5" y="754.523"/>
      <point x="1709.5" y="500.5" type="curve" smooth="yes"/>
      <point x="1709.5" y="474" type="line" smooth="yes"/>
      <point x="1709.5" y="193.429"/>
      <point x="1591" y="69.5"/>
      <point x="1349.5" y="69.5" type="curve" smooth="yes"/>
      <point x="1292" y="69.5"/>
      <point x="1238.5" y="76.1667"/>
      <point x="1197" y="89.5" type="curve"/>
      <point x="1176" y="352.5" type="line"/>
      <point x="1197.5" y="347.5"/>
      <point x="1221.5" y="343.66"/>
      <point x="1249.5" y="344" type="curve" smooth="yes"/>
      <point x="1332.58" y="345.008"/>
      <point x="1363" y="387.397"/>
      <point x="1363" y="479.5" type="curve" smooth="yes"/>
      <point x="1363" y="492.5" type="line" smooth="yes"/>
      <point x="1363" y="580.331"/>
      <point x="1328.5" y="627.5"/>
    </contour>
    <contour>
      <point x="1075.5" y="1119" type="line"/>
      <point x="1075.5" y="0" type="line"/>
      <point x="731.5" y="0" type="line"/>
      <point x="731.5" y="1119" type="line"/>
    </contour>
  </outline>
</glyph>
<glyph name="Ba.dv" format="2">
  <advance width="1323"/>
  <unicode hex="092C"/>
  <anchor x="1036" y="37" name="bottom"/>
  <anchor x="1028.5" y="37" name="bottom2"/>
  <anchor x="1207.5" y="37" name="bottom3"/>
  <anchor x="1035.5" y="55" name="bottom5"/>
  <anchor x="1035.5" y="1234.5" name="top"/>
  <outline>
    <contour>
      <point x="1207.5" y="1119" type="line"/>
      <point x="1207.5" y="0" type="line"/>
      <point x="863.5" y="0" type="line"/>
      <point x="863.5" y="1119" type="line"/>
    </contour>
    <contour>
      <point x="815.5" y="1033" type="line"/>
      <point x="798" y="1287" type="line"/>
      <point x="1355" y="1287" type="line"/>
      <point x="1372.5" y="1033" type="line"/>
    </contour>
    <contour>
      <point x="-32" y="1033" type="line"/>
      <point x="-50" y="1287" type="line"/>
      <point x="1265" y="1287" type="line"/>
      <point x="1282" y="1033" type="line"/>
    </contour>
    <contour>
      <point x="371" y="682" type="line"/>
      <point x="500" y="780" type="line"/>
      <point x="880" y="367" type="line"/>
      <point x="774" y="252" type="line"/>
    </contour>
    <contour>
      <point x="69" y="495.738" type="curve" smooth="yes"/>
      <point x="69" y="514.47" type="line" smooth="yes"/>
      <point x="69" y="791.497"/>
      <point x="228.431" y="933"/>
      <point x="523.026" y="933" type="curve" smooth="yes"/>
      <point x="607.805" y="933"/>
      <point x="678" y="925"/>
      <point x="749" y="908" type="curve"/>
      <point x="773" y="674" type="line"/>
      <point x="720" y="684"/>
      <point x="665.358" y="690"/>
      <point x="603.885" y="690" type="curve" smooth="yes"/>
      <point x="463.421" y="690"/>
      <point x="398" y="633.472"/>
      <point x="398" y="517.442" type="curve" smooth="yes"/>
      <point x="398" y="502.566" type="line" smooth="yes"/>
      <point x="398" y="383.561"/>
      <point x="468.412" y="331"/>
      <point x="607.307" y="331" type="curve" smooth="yes"/>
      <point x="758.908" y="331"/>
      <point x="844" y="385"/>
      <point x="869" y="478" type="curve"/>
      <point x="886" y="269" type="line"/>
      <point x="853" y="269" type="line"/>
      <point x="815" y="161"/>
      <point x="719.204" y="79"/>
      <point x="511.021" y="79" type="curve" smooth="yes"/>
      <point x="231.474" y="79"/>
      <point x="69" y="214.696"/>
    </contour>
  </outline>
</glyph>
<glyph name="Bha.dv" format="2">
  <advance width="1294"/>
  <unicode hex="092D"/>
  <anchor x="1007" y="37" name="bottom"/>
  <anchor x="999.5" y="37" name="bottom2"/>
  <anchor x="1178.5" y="37" name="bottom3"/>
  <anchor x="1006.5" y="55" name="bottom5"/>
  <anchor x="1006.5" y="1234.5" name="top"/>
  <outline>
    <contour>
      <point x="1178.5" y="1119" type="line"/>
      <point x="1178.5" y="0" type="line"/>
      <point x="834.5" y="0" type="line"/>
      <point x="834.5" y="1119" type="line"/>
    </contour>
    <contour>
      <point x="786.5" y="1033" type="line"/>
      <point x="769" y="1287" type="line"/>
      <point x="1326" y="1287" type="line"/>
      <point x="1343.5" y="1033" type="line"/>
    </contour>
    <contour>
      <point x="728.5" y="1033" type="line"/>
      <point x="710.5" y="1287" type="line"/>
      <point x="1326" y="1287" type="line"/>
      <point x="1343.5" y="1033" type="line"/>
    </contour>
    <contour>
      <point x="285" y="407.5" type="line"/>
      <point x="285" y="680" type="line"/>
      <point x="962" y="680" type="line"/>
      <point x="962" y="407.5" type="line"/>
    </contour>
    <contour>
      <point x="209" y="149.5" type="line"/>
      <point x="122.5" y="263"/>
      <point x="61" y="412"/>
      <point x="48.5" y="583.5" type="curve"/>
      <point x="184" y="663" type="line"/>
      <point x="524.5" y="663" type="line"/>
      <point x="524.5" y="149.5" type="line"/>
    </contour>
    <contour>
      <point x="184" y="537" type="line"/>
      <point x="184" y="911" type="line" smooth="yes"/>
      <point x="184" y="1003"/>
      <point x="160" y="1033"/>
      <point x="76" y="1033" type="curve" smooth="yes"/>
      <point x="-32" y="1033" type="line"/>
      <point x="-49.5" y="1287" type="line"/>
      <point x="134" y="1287" type="line" smooth="yes"/>
      <point x="425" y="1287"/>
      <point x="524.5" y="1179.5"/>
      <point x="524.5" y="916.5" type="curve" smooth="yes"/>
      <point x="524.5" y="537" type="line"/>
    </contour>
  </outline>
  <guideline angle="90" x="421" y="0"/>
  <guideline angle="90" x="882" y="0"/>
  <guideline angle="0" x="0" y="9"/>
  <guideline angle="90" x="887" y="0"/>
  <guideline angle="90" x="870" y="0"/>
  <guideline angle="0" x="0" y="1262"/>
  <guideline angle="90" x="1007" y="0"/>
  <guideline angle="0" x="0" y="30"/>
</glyph>
<glyph name="Ma.dv" format="2">
  <advance width="1307"/>
  <unicode hex="092E"/>
  <anchor x="1020.5" y="37" name="bottom"/>
  <anchor x="1013" y="37" name="bottom2"/>
  <anchor x="1192" y="37" name="bottom3"/>
  <anchor x="1020" y="55" name="bottom5"/>
  <anchor x="1020" y="1234.5" name="top"/>
  <outline>
    <contour>
      <point x="1192" y="1119" type="line"/>
      <point x="1192" y="0" type="line"/>
      <point x="848" y="0" type="line"/>
      <point x="848" y="1119" type="line"/>
    </contour>
    <contour>
      <point x="800" y="1033" type="line"/>
      <point x="782.5" y="1287" type="line"/>
      <point x="1339.5" y="1287" type="line"/>
      <point x="1357" y="1033" type="line"/>
    </contour>
    <contour>
      <point x="1259.5" y="1033" type="line"/>
      <point x="-32" y="1033" type="line"/>
      <point x="-49.5" y="1287" type="line"/>
      <point x="1242" y="1287" type="line"/>
    </contour>
    <contour>
      <point x="980" y="679.5" type="line"/>
      <point x="980" y="408" type="line"/>
      <point x="287.5" y="408" type="line"/>
      <point x="287.5" y="679.5" type="line"/>
    </contour>
    <contour>
      <point x="524.5" y="1123.5" type="line"/>
      <point x="524.5" y="531" type="line"/>
      <point x="184" y="531" type="line"/>
      <point x="184" y="1123.5" type="line"/>
    </contour>
    <contour>
      <point x="210.5" y="142" type="line"/>
      <point x="124.5" y="255"/>
      <point x="63.5" y="407"/>
      <point x="51" y="579" type="curve"/>
      <point x="185" y="660.5" type="line"/>
      <point x="524.5" y="660.5" type="line"/>
      <point x="524.5" y="142" type="line"/>
    </contour>
  </outline>
</glyph>
<glyph name="Ra.dv" format="2">
  <advance width="870"/>
  <unicode hex="0930"/>
  <anchor x="408.5" y="37" name="bottom2"/>
  <anchor x="926" y="37" name="bottom3"/>
  <anchor x="474" y="55" name="bottom5"/>
  <anchor x="508.5" y="1234.5" name="top"/>
  <outline>
    <contour>
      <point x="930" y="1033" type="line"/>
      <point x="-32" y="1033" type="line"/>
      <point x="-50" y="1287" type="line"/>
      <point x="912" y="1287" type="line"/>
    </contour>
    <contour>
      <point x="806" y="0" type="line"/>
      <point x="385" y="0" type="line"/>
      <point x="159" y="401" type="line"/>
      <point x="53" y="411" type="line"/>
      <point x="53" y="691" type="line"/>
      <point x="391" y="568" type="line"/>
      <point x="391" y="474" type="line"/>
      <point x="511" y="411"/>
      <point x="578.374" y="344.954"/>
      <point x="662.32" y="222.534" type="curve" smooth="yes"/>
      <point x="806" y="13" type="line"/>
    </contour>
    <contour>
      <point x="692" y="1089" type="line"/>
      <point x="759" y="1024"/>
      <point x="787" y="942"/>
      <point x="787" y="830" type="curve" smooth="yes"/>
      <point x="787" y="808" type="line" smooth="yes"/>
      <point x="787" y="573"/>
      <point x="652" y="443"/>
      <point x="322" y="426" type="curve" smooth="yes"/>
      <point x="226" y="422" type="line"/>
      <point x="53" y="691" type="line"/>
      <point x="180" y="691" type="line" smooth="yes"/>
      <point x="369.75" y="691"/>
      <point x="433" y="749"/>
      <point x="433" y="870" type="curve" smooth="yes"/>
      <point x="433" y="888" type="line" smooth="yes"/>
      <point x="433" y="974"/>
      <point x="409" y="1031"/>
      <point x="337" y="1089" type="curve"/>
    </contour>
  </outline>
  <guideline angle="90" x="205" y="0"/>
  <guideline angle="0" x="0" y="1262"/>
  <guideline angle="0" x="0" y="30"/>
</glyph>
<glyph name="RaNukta.dv" format="2">
  <advance width="870"/>
  <unicode hex="0931"/>
  <anchor x="408.5" y="37" name="bottom2"/>
  <anchor x="926" y="37" name="bottom3"/>
  <anchor x="474" y="55" name="bottom5"/>
  <anchor x="508.5" y="1234.5" name="top"/>
  <outline>
    <contour>
      <point x="930" y="1033" type="line"/>
      <point x="-32" y="1033" type="line"/>
      <point x="-50" y="1287" type="line"/>
      <point x="912" y="1287" type="line"/>
    </contour>
    <contour>
      <point x="806" y="0" type="line"/>
      <point x="385" y="0" type="line"/>
      <point x="159" y="401" type="line"/>
      <point x="53" y="411" type="line"/>
      <point x="53" y="691" type="line"/>
      <point x="391" y="568" type="line"/>
      <point x="391" y="474" type="line"/>
      <point x="511" y="411"/>
      <point x="578.374" y="344.954"/>
      <point x="662.32" y="222.534" type="curve" smooth="yes"/>
      <point x="806" y="13" type="line"/>
    </contour>
    <contour>
      <point x="692" y="1089" type="line"/>
      <point x="759" y="1024"/>
      <point x="787" y="942"/>
      <point x="787" y="830" type="curve" smooth="yes"/>
      <point x="787" y="808" type="line" smooth="yes"/>
      <point x="787" y="573"/>
      <point x="652" y="443"/>
      <point x="322" y="426" type="curve" smooth="yes"/>
      <point x="226" y="422" type="line"/>
      <point x="53" y="691" type="line"/>
      <point x="180" y="691" type="line" smooth="yes"/>
      <point x="369.75" y="691"/>
      <point x="433" y="749"/>
      <point x="433" y="870" type="curve" smooth="yes"/>
      <point x="433" y="888" type="line" smooth="yes"/>
      <point x="433" y="974"/>
      <point x="409" y="1031"/>
      <point x="337" y="1089" type="curve"/>
    </contour>
    <contour>
      <point x="181.5" y="-308.5" type="curve" smooth="yes"/>
      <point x="63.5" y="-308.5"/>
      <point x="3" y="-243.5"/>
      <point x="3" y="-140" type="curve"/>
      <point x="3" y="-138.564"/>
      <point x="3" y="-134.744"/>
      <point x="3" y="-133.5" type="curve"/>
      <point x="3" y="-29.5"/>
      <point x="63.5" y="35.5"/>
      <point x="181.5" y="35.5" type="curve" smooth="yes"/>
      <point x="299.5" y="35.5"/>
      <point x="359" y="-30.5"/>
      <point x="359" y="-133.5" type="curve"/>
      <point x="359" y="-134.936"/>
      <point x="359" y="-138.756"/>
      <point x="359" y="-140" type="curve"/>
      <point x="359" y="-243.5"/>
      <point x="299" y="-308.5"/>
    </contour>
  </outline>
  <guideline angle="90" x="261" y="0"/>
  <guideline angle="90" x="205" y="0"/>
  <guideline angle="0" x="0" y="1262"/>
  <guideline angle="0" x="0" y="30"/>
</glyph>
<glyph name="LlaNukta.dv" format="2">
  <advance width="1612"/>
  <unicode hex="0934"/>
  <anchor x="1196" y="11" name="bottom"/>
  <anchor x="1117.5" y="11" name="bottom2"/>
  <anchor x="1271" y="11" name="bottom3"/>
  <anchor x="818.5" y="31.5" name="bottom5"/>
  <anchor x="1134.5" y="1234.5" name="top"/>
  <outline>
    <contour>
      <point x="902.5" y="1033" type="line"/>
      <point x="885" y="1287" type="line"/>
      <point x="1451.5" y="1287" type="line"/>
      <point x="1469" y="1033" type="line"/>
    </contour>
    <contour>
      <point x="1304" y="1119" type="line"/>
      <point x="1304" y="927.5" type="line"/>
      <point x="970.5" y="927.5" type="line"/>
      <point x="970.5" y="1119" type="line"/>
    </contour>
    <contour>
      <point x="1661" y="1033" type="line"/>
      <point x="-31" y="1033" type="line"/>
      <point x="-48.5" y="1287" type="line"/>
      <point x="1643.5" y="1287" type="line"/>
    </contour>
    <contour>
      <point x="1304" y="821" type="line"/>
      <point x="970.5" y="821" type="line"/>
      <point x="970.5" y="1089.5" type="line"/>
      <point x="1304" y="1089.5" type="line"/>
    </contour>
    <contour>
      <point x="1541.5" y="406.5" type="line" smooth="yes"/>
      <point x="1541.5" y="119.566"/>
      <point x="1428.34" y="-22.5001"/>
      <point x="1194.57" y="-22.5001" type="curve" smooth="yes"/>
      <point x="1017.24" y="-22.5001"/>
      <point x="928.669" y="50.4999"/>
      <point x="893.5" y="171.5" type="curve"/>
      <point x="868" y="171.5" type="line"/>
      <point x="894.5" y="352.5" type="line"/>
      <point x="951.5" y="352.5" type="line"/>
      <point x="966.244" y="290.5"/>
      <point x="1007.4" y="248.525"/>
      <point x="1081.5" y="248.498" type="curve" smooth="yes"/>
      <point x="1164.22" y="248.469"/>
      <point x="1201.5" y="297.442"/>
      <point x="1201.5" y="418.5" type="curve" smooth="yes"/>
      <point x="1201.5" y="446.5" type="line" smooth="yes"/>
      <point x="1201.5" y="567.044"/>
      <point x="1166.84" y="608"/>
      <point x="1092.5" y="608" type="curve" smooth="yes"/>
      <point x="1022.49" y="608"/>
      <point x="994.585" y="563.691"/>
      <point x="978" y="468.5" type="curve" smooth="yes"/>
      <point x="941.5" y="259" type="line"/>
      <point x="898" y="211" type="line"/>
      <point x="860.4" y="66.5"/>
      <point x="743.282" y="-25.5"/>
      <point x="512" y="-25.5" type="curve" smooth="yes"/>
      <point x="216.814" y="-25.5"/>
      <point x="75" y="121.843"/>
      <point x="75" y="414.5" type="curve" smooth="yes"/>
      <point x="75" y="460.5" type="line" smooth="yes"/>
      <point x="75" y="744.719"/>
      <point x="212.749" y="882"/>
      <point x="441" y="882" type="curve" smooth="yes"/>
      <point x="628.377" y="882"/>
      <point x="706.601" y="798.5"/>
      <point x="735.5" y="688" type="curve"/>
      <point x="757.5" y="688" type="line"/>
      <point x="694.5" y="508" type="line"/>
      <point x="665" y="507.5" type="line"/>
      <point x="650.01" y="566.997"/>
      <point x="615.021" y="607"/>
      <point x="543" y="607" type="curve" smooth="yes"/>
      <point x="456.169" y="607"/>
      <point x="415" y="556.719"/>
      <point x="415" y="439.5" type="curve" smooth="yes"/>
      <point x="415" y="414" type="line" smooth="yes"/>
      <point x="415" y="292.626"/>
      <point x="451.238" y="248"/>
      <point x="525.5" y="248" type="curve" smooth="yes"/>
      <point x="601.668" y="248"/>
      <point x="628.389" y="290.22"/>
      <point x="642.424" y="380.354" type="curve" smooth="yes"/>
      <point x="672.5" y="573.5" type="line"/>
      <point x="725" y="626.5" type="line"/>
      <point x="763.295" y="789"/>
      <point x="882.212" y="882"/>
      <point x="1107" y="882" type="curve" smooth="yes"/>
      <point x="1417" y="882"/>
      <point x="1541.5" y="732.868"/>
      <point x="1541.5" y="449" type="curve" smooth="yes"/>
    </contour>
    <contour>
      <point x="805.5" y="-398.5" type="curve" smooth="yes"/>
      <point x="687.5" y="-398.5"/>
      <point x="627" y="-333.5"/>
      <point x="627" y="-230" type="curve"/>
      <point x="627" y="-228.564"/>
      <point x="627" y="-224.744"/>
      <point x="627" y="-223.5" type="curve"/>
      <point x="627" y="-119.5"/>
      <point x="687.5" y="-54.5"/>
      <point x="805.5" y="-54.5" type="curve" smooth="yes"/>
      <point x="923.5" y="-54.5"/>
      <point x="983" y="-120.5"/>
      <point x="983" y="-223.5" type="curve"/>
      <point x="983" y="-224.936"/>
      <point x="983" y="-228.756"/>
      <point x="983" y="-230" type="curve"/>
      <point x="983" y="-333.5"/>
      <point x="923" y="-398.5"/>
    </contour>
  </outline>
  <guideline angle="90" x="487" y="0"/>
  <guideline angle="0" x="0" y="519"/>
  <guideline angle="0" x="0" y="42"/>
  <guideline angle="90" x="567" y="0"/>
  <guideline angle="90" x="628" y="0"/>
  <guideline angle="0" x="0" y="-94"/>
  <guideline angle="90" x="1015" y="0"/>
</glyph>
<glyph name="Va.dv" format="2">
  <advance width="1277"/>
  <unicode hex="0935"/>
  <anchor x="990.5" y="37" name="bottom"/>
  <anchor x="983" y="37" name="bottom2"/>
  <anchor x="1162" y="37" name="bottom3"/>
  <anchor x="990" y="55" name="bottom5"/>
  <anchor x="990" y="1234.5" name="top"/>
  <outline>
    <contour>
      <point x="1162" y="1119" type="line"/>
      <point x="1162" y="0" type="line"/>
      <point x="818" y="0" type="line"/>
      <point x="818" y="1119" type="line"/>
    </contour>
    <contour>
      <point x="770" y="1033" type="line"/>
      <point x="752.5" y="1287" type="line"/>
      <point x="1309.5" y="1287" type="line"/>
      <point x="1327" y="1033" type="line"/>
    </contour>
    <contour>
      <point x="-32" y="1033" type="line"/>
      <point x="-49" y="1287" type="line"/>
      <point x="1210" y="1287" type="line"/>
      <point x="1227" y="1033" type="line"/>
    </contour>
    <contour>
      <point x="69" y="494" type="curve" smooth="yes"/>
      <point x="69" y="516" type="line" smooth="yes"/>
      <point x="69" y="794"/>
      <point x="217" y="928"/>
      <point x="498" y="928" type="curve" smooth="yes"/>
      <point x="578" y="928"/>
      <point x="641" y="921"/>
      <point x="703" y="906" type="curve"/>
      <point x="725" y="640" type="line"/>
      <point x="688.354" y="646"/>
      <point x="648.757" y="649"/>
      <point x="604.2" y="649" type="curve" smooth="yes"/>
      <point x="479.439" y="649"/>
      <point x="423" y="608"/>
      <point x="423" y="514" type="curve" smooth="yes"/>
      <point x="423" y="505" type="line" smooth="yes"/>
      <point x="423" y="408"/>
      <point x="479.858" y="370"/>
      <point x="615.663" y="370" type="curve" smooth="yes"/>
      <point x="741.326" y="370"/>
      <point x="804.43" y="414"/>
      <point x="824" y="490" type="curve"/>
      <point x="841" y="289" type="line"/>
      <point x="806" y="289" type="line"/>
      <point x="773" y="160"/>
      <point x="676" y="87"/>
      <point x="480" y="87" type="curve" smooth="yes"/>
      <point x="219" y="87"/>
      <point x="69" y="221"/>
    </contour>
  </outline>
  <guideline angle="90" x="865.5" y="0"/>
  <guideline angle="0" x="0" y="9"/>
  <guideline angle="90" x="870.5" y="0"/>
  <guideline angle="90" x="853.5" y="0"/>
  <guideline angle="0" x="0" y="1262"/>
  <guideline angle="90" x="990.5" y="0"/>
  <guideline angle="0" x="0" y="30"/>
</glyph>
<glyph name="Sha.dv" format="2">
  <advance width="1607"/>
  <unicode hex="0936"/>
  <anchor x="1320" y="37" name="bottom"/>
  <anchor x="1312.5" y="37" name="bottom2"/>
  <anchor x="1491.5" y="37" name="bottom3"/>
  <anchor x="1319.5" y="55" name="bottom5"/>
  <anchor x="1319.5" y="1234.5" name="top"/>
  <outline>
    <contour>
      <point x="1491.5" y="1119" type="line"/>
      <point x="1491.5" y="0" type="line"/>
      <point x="1147.5" y="0" type="line"/>
      <point x="1147.5" y="1119" type="line"/>
    </contour>
    <contour>
      <point x="1099.5" y="1033" type="line"/>
      <point x="1082" y="1287" type="line"/>
      <point x="1639" y="1287" type="line"/>
      <point x="1656.5" y="1033" type="line"/>
    </contour>
    <contour>
      <point x="1032.5" y="1287" type="line"/>
      <point x="1539" y="1287" type="line"/>
      <point x="1556.5" y="1033" type="line"/>
      <point x="1050" y="1033" type="line"/>
    </contour>
    <contour>
      <point x="949.5" y="0" type="line"/>
      <point x="493" y="0" type="line"/>
      <point x="232.5" y="332" type="line"/>
      <point x="75" y="348.5" type="line"/>
      <point x="75" y="620.5" type="line"/>
      <point x="481.5" y="497" type="line"/>
      <point x="481.5" y="386" type="line"/>
      <point x="610.5" y="345.5"/>
      <point x="712.51" y="269.451"/>
      <point x="802" y="174.5" type="curve" smooth="yes"/>
      <point x="949.5" y="18" type="line"/>
    </contour>
    <contour>
      <point x="987" y="884" type="curve" smooth="yes"/>
      <point x="987" y="831" type="line" smooth="yes"/>
      <point x="987" y="515"/>
      <point x="806.5" y="363"/>
      <point x="437.5" y="363" type="curve" smooth="yes"/>
      <point x="370.5" y="363"/>
      <point x="285.5" y="363"/>
      <point x="227" y="365.5" type="curve"/>
      <point x="75" y="620.5" type="line"/>
      <point x="160.5" y="616"/>
      <point x="217.5" y="614"/>
      <point x="295.5" y="614" type="curve" smooth="yes"/>
      <point x="554" y="614"/>
      <point x="639.5" y="681.5"/>
      <point x="639.5" y="851.5" type="curve" smooth="yes"/>
      <point x="639.5" y="891.5" type="line" smooth="yes"/>
      <point x="639.5" y="1001.27"/>
      <point x="607.5" y="1039.5"/>
      <point x="534" y="1039.5" type="curve" smooth="yes"/>
      <point x="461.5" y="1039.5"/>
      <point x="428.5" y="998.5"/>
      <point x="428.5" y="902.5" type="curve" smooth="yes"/>
      <point x="428.5" y="888" type="line" smooth="yes"/>
      <point x="428.5" y="831.5"/>
      <point x="437" y="789"/>
      <point x="455" y="743" type="curve"/>
      <point x="141" y="743" type="line"/>
      <point x="113" y="802.5"/>
      <point x="101.5" y="861.5"/>
      <point x="101.5" y="940.5" type="curve" smooth="yes"/>
      <point x="101.5" y="957.5" type="line" smooth="yes"/>
      <point x="101.5" y="1190"/>
      <point x="258.92" y="1317.5"/>
      <point x="536" y="1317.5" type="curve" smooth="yes"/>
      <point x="835.037" y="1317.5"/>
      <point x="987" y="1164.5"/>
    </contour>
  </outline>
</glyph>
<glyph name="Ssa.dv" format="2">
  <advance width="1277"/>
  <unicode hex="0937"/>
  <anchor x="990.5" y="37" name="bottom"/>
  <anchor x="983" y="37" name="bottom2"/>
  <anchor x="1162" y="37" name="bottom3"/>
  <anchor x="990" y="55" name="bottom5"/>
  <anchor x="990" y="1234.5" name="top"/>
  <outline>
    <contour>
      <point x="1162" y="1119" type="line"/>
      <point x="1162" y="0" type="line"/>
      <point x="818" y="0" type="line"/>
      <point x="818" y="1119" type="line"/>
    </contour>
    <contour>
      <point x="770" y="1033" type="line"/>
      <point x="752.5" y="1287" type="line"/>
      <point x="1309.5" y="1287" type="line"/>
      <point x="1327" y="1033" type="line"/>
    </contour>
    <contour>
      <point x="-32" y="1033" type="line"/>
      <point x="-49.5" y="1287" type="line"/>
      <point x="1209.5" y="1287" type="line"/>
      <point x="1227" y="1033" type="line"/>
    </contour>
    <contour>
      <point x="495.5" y="239" type="curve" smooth="yes"/>
      <point x="248" y="239"/>
      <point x="105.5" y="375.025"/>
      <point x="105.5" y="670" type="curve" smooth="yes"/>
      <point x="105.5" y="1119.5" type="line"/>
      <point x="446.5" y="1119.5" type="line"/>
      <point x="446.5" y="707.5" type="line" smooth="yes"/>
      <point x="446.5" y="564.469"/>
      <point x="504.5" y="508.5"/>
      <point x="636" y="508.5" type="curve" smooth="yes"/>
      <point x="739.5" y="508.5"/>
      <point x="801.024" y="551.082"/>
      <point x="822.5" y="631" type="curve"/>
      <point x="840.5" y="440" type="line"/>
      <point x="807" y="440" type="line"/>
      <point x="774" y="321.5"/>
      <point x="683" y="239"/>
    </contour>
    <contour>
      <point x="358" y="989.5" type="curve"/>
      <point x="421.5" y="1085.5" type="line"/>
      <point x="683.843" y="853.933" type="line" smooth="yes"/>
      <point x="777.634" y="771.144"/>
      <point x="834.972" y="702.522"/>
      <point x="903" y="596.5" type="curve"/>
      <point x="829" y="500.5" type="line"/>
      <point x="575.031" y="719.044" type="line" smooth="yes"/>
      <point x="472.072" y="807.643"/>
      <point x="411.832" y="881.515"/>
    </contour>
  </outline>
</glyph>
<glyph name="Sa.dv" format="2">
  <advance width="1462"/>
  <unicode hex="0938"/>
  <anchor x="1175.5" y="37" name="bottom"/>
  <anchor x="1168" y="37" name="bottom2"/>
  <anchor x="1347" y="37" name="bottom3"/>
  <anchor x="1175" y="55" name="bottom5"/>
  <anchor x="1175" y="1234.5" name="top"/>
  <outline>
    <contour>
      <point x="1347" y="1119" type="line"/>
      <point x="1347" y="0" type="line"/>
      <point x="1003" y="0" type="line"/>
      <point x="1003" y="1119" type="line"/>
    </contour>
    <contour>
      <point x="955" y="1033" type="line"/>
      <point x="937.5" y="1287" type="line"/>
      <point x="1494.5" y="1287" type="line"/>
      <point x="1512" y="1033" type="line"/>
    </contour>
    <contour>
      <point x="1412" y="1033" type="line"/>
      <point x="-32" y="1033" type="line"/>
      <point x="-50" y="1287" type="line"/>
      <point x="1395" y="1287" type="line"/>
    </contour>
    <contour>
      <point x="634" y="682" type="line"/>
      <point x="1079" y="682" type="line"/>
      <point x="1079" y="411" type="line"/>
      <point x="682" y="411" type="line"/>
    </contour>
    <contour>
      <point x="788" y="0" type="line"/>
      <point x="368" y="0" type="line"/>
      <point x="159" y="400" type="line"/>
      <point x="53" y="411" type="line"/>
      <point x="53" y="691" type="line"/>
      <point x="396" y="623" type="line"/>
      <point x="396" y="481" type="line"/>
      <point x="517.1" y="417"/>
      <point x="586.816" y="342.401"/>
      <point x="665" y="214" type="curve" smooth="yes"/>
      <point x="788" y="12" type="line"/>
    </contour>
    <contour>
      <point x="635" y="1089" type="line"/>
      <point x="703" y="1023"/>
      <point x="729" y="945"/>
      <point x="729" y="832" type="curve" smooth="yes"/>
      <point x="729" y="814" type="line" smooth="yes"/>
      <point x="729" y="569"/>
      <point x="610.465" y="448.626"/>
      <point x="305" y="430" type="curve" smooth="yes"/>
      <point x="223" y="425" type="line"/>
      <point x="53" y="691" type="line"/>
      <point x="136" y="691" type="line" smooth="yes"/>
      <point x="316.721" y="691"/>
      <point x="375" y="744"/>
      <point x="375" y="870" type="curve" smooth="yes"/>
      <point x="375" y="884" type="line" smooth="yes"/>
      <point x="375" y="979"/>
      <point x="350" y="1037"/>
      <point x="268" y="1089" type="curve"/>
    </contour>
  </outline>
</glyph>
<glyph name="Ha.dv" format="2">
  <advance width="1160"/>
  <unicode hex="0939"/>
  <anchor x="682" y="-100" name="bottom"/>
  <anchor x="581" y="-203" name="bottom2"/>
  <anchor x="1062.5" y="-203" name="bottom3"/>
  <anchor x="290" y="-132" name="bottom4"/>
  <anchor x="612.5" y="-184" name="bottom5"/>
  <anchor x="860.5" y="1234.5" name="top"/>
  <outline>
    <contour>
      <point x="628.5" y="1033" type="line"/>
      <point x="611" y="1287" type="line"/>
      <point x="1177.5" y="1287" type="line"/>
      <point x="1195" y="1033" type="line"/>
    </contour>
    <contour>
      <point x="1030" y="1119" type="line"/>
      <point x="1030" y="927.5" type="line"/>
      <point x="696.5" y="927.5" type="line"/>
      <point x="696.5" y="1119" type="line"/>
    </contour>
    <contour>
      <point x="1209" y="1033" type="line"/>
      <point x="-27.5" y="1033" type="line"/>
      <point x="-45" y="1287" type="line"/>
      <point x="1191.5" y="1287" type="line"/>
    </contour>
    <contour>
      <point x="696.5" y="1101" type="line"/>
      <point x="1030" y="1101" type="line"/>
      <point x="1030" y="677" type="line"/>
      <point x="696.5" y="752" type="line"/>
    </contour>
    <contour>
      <point x="231" y="434" type="line"/>
      <point x="141.5" y="476.5"/>
      <point x="77" y="552"/>
      <point x="77" y="653" type="curve" smooth="yes"/>
      <point x="77" y="660.5" type="line" smooth="yes"/>
      <point x="77" y="836"/>
      <point x="218.5" y="940.5"/>
      <point x="549.5" y="940.5" type="curve" smooth="yes"/>
      <point x="710" y="940.5"/>
      <point x="868.5" y="929"/>
      <point x="1030" y="902.5" type="curve"/>
      <point x="1030" y="670.5" type="line"/>
      <point x="908" y="684.5"/>
      <point x="789.5" y="693.5"/>
      <point x="665" y="693.5" type="curve" smooth="yes"/>
      <point x="470.5" y="693.5"/>
      <point x="415" y="660"/>
      <point x="415" y="603.5" type="curve" smooth="yes"/>
      <point x="415" y="600" type="line" smooth="yes"/>
      <point x="415" y="578.5"/>
      <point x="426" y="560"/>
      <point x="442.5" y="548" type="curve"/>
    </contour>
    <contour>
      <point x="936" y="-216.5" type="line"/>
      <point x="865" y="-231"/>
      <point x="776" y="-240"/>
      <point x="668.5" y="-240" type="curve" smooth="yes"/>
      <point x="324.5" y="-240"/>
      <point x="88.5" y="-102.5"/>
      <point x="88.5" y="169" type="curve" smooth="yes"/>
      <point x="88.5" y="182.5" type="line" smooth="yes"/>
      <point x="88.5" y="326.5"/>
      <point x="152.5" y="435"/>
      <point x="291.5" y="495" type="curve"/>
      <point x="336" y="518" type="line"/>
      <point x="405.5" y="551.5"/>
      <point x="509.5" y="577"/>
      <point x="640.5" y="577" type="curve" smooth="yes"/>
      <point x="963" y="577"/>
      <point x="1100" y="452.5"/>
      <point x="1100" y="265.5" type="curve" smooth="yes"/>
      <point x="1100" y="225.5"/>
      <point x="1091.5" y="175.5"/>
      <point x="1079.5" y="138.5" type="curve"/>
      <point x="768" y="138.5" type="line"/>
      <point x="768" y="178.5" type="line" smooth="yes"/>
      <point x="768" y="272.429"/>
      <point x="733.214" y="310"/>
      <point x="604.5" y="310" type="curve" smooth="yes"/>
      <point x="487.178" y="310"/>
      <point x="431.5" y="267.255"/>
      <point x="431.5" y="187.5" type="curve" smooth="yes"/>
      <point x="431.5" y="181" type="line" smooth="yes"/>
      <point x="431.5" y="79.3265"/>
      <point x="527" y="40"/>
      <point x="723" y="40" type="curve" smooth="yes"/>
      <point x="804" y="40"/>
      <point x="887" y="46"/>
      <point x="963" y="55.5" type="curve"/>
    </contour>
  </outline>
  <guideline angle="0" x="0" y="545"/>
  <guideline angle="0" x="0" y="320"/>
  <guideline angle="0" x="0" y="-111"/>
  <guideline angle="0" x="0" y="-90"/>
  <guideline angle="90" x="741" y="0"/>
</glyph>
<glyph name="uni093A" format="2">
  <unicode hex="093A"/>
  <anchor x="-287.5" y="1234.5" name="_top"/>
  <outline>
    <contour>
      <point x="-438" y="1703" type="line"/>
      <point x="-138.5" y="1703" type="line"/>
      <point x="-138.5" y="1250.5" type="line"/>
      <point x="-438" y="1250.5" type="line"/>
    </contour>
  </outline>
  <guideline angle="90" x="-98" y="0"/>
</glyph>
<glyph name="uni093B" format="2">
  <advance width="575"/>
  <unicode hex="093B"/>
  <outline>
    <contour>
      <point x="459.5" y="0" type="line"/>
      <point x="115.5" y="0" type="line"/>
      <point x="115.5" y="1119" type="line"/>
      <point x="459.5" y="1119" type="line"/>
    </contour>
    <contour>
      <point x="624.5" y="1033" type="line"/>
      <point x="-32" y="1033" type="line"/>
      <point x="-49.5" y="1287" type="line"/>
      <point x="607" y="1287" type="line"/>
    </contour>
    <contour>
      <point x="136.5" y="1703" type="line"/>
      <point x="436" y="1703" type="line"/>
      <point x="436" y="1250.5" type="line"/>
      <point x="136.5" y="1250.5" type="line"/>
    </contour>
  </outline>
  <guideline angle="90" x="89" y="0"/>
</glyph>
<glyph name="Nukta.dv" format="2">
  <unicode hex="093C"/>
  <anchor x="-487.5" y="123" name="_bottom4"/>
  <outline>
    <contour>
      <point x="-487.5" y="-344" type="curve" smooth="yes"/>
      <point x="-605.5" y="-344"/>
      <point x="-666" y="-279"/>
      <point x="-666" y="-175.5" type="curve"/>
      <point x="-666" y="-174.064"/>
      <point x="-666" y="-170.244"/>
      <point x="-666" y="-169" type="curve"/>
      <point x="-666" y="-65"/>
      <point x="-605.5" y="0"/>
      <point x="-487.5" y="0" type="curve" smooth="yes"/>
      <point x="-369.5" y="0"/>
      <point x="-310" y="-66"/>
      <point x="-310" y="-169" type="curve"/>
      <point x="-310" y="-170.436"/>
      <point x="-310" y="-174.256"/>
      <point x="-310" y="-175.5" type="curve"/>
      <point x="-310" y="-279"/>
      <point x="-370" y="-344"/>
    </contour>
  </outline>
  <guideline angle="90" x="-471" y="0"/>
  <guideline angle="0" x="0" y="18"/>
</glyph>
<glyph name="matraA.dv" format="2">
  <advance width="575"/>
  <unicode hex="093E"/>
  <outline>
    <contour>
      <point x="459.5" y="0" type="line"/>
      <point x="115.5" y="0" type="line"/>
      <point x="115.5" y="1119" type="line"/>
      <point x="459.5" y="1119" type="line"/>
    </contour>
    <contour>
      <point x="624.5" y="1033" type="line"/>
      <point x="-32" y="1033" type="line"/>
      <point x="-49.5" y="1287" type="line"/>
      <point x="607" y="1287" type="line"/>
    </contour>
  </outline>
</glyph>
<glyph name="matraIi.dv" format="2">
  <advance width="575"/>
  <unicode hex="0940"/>
  <outline>
    <contour>
      <point x="459.5" y="0" type="line"/>
      <point x="115.5" y="0" type="line"/>
      <point x="115.5" y="1119" type="line"/>
      <point x="459.5" y="1119" type="line"/>
    </contour>
    <contour>
      <point x="624.5" y="1033" type="line"/>
      <point x="-32" y="1033" type="line"/>
      <point x="-49.5" y="1287" type="line"/>
      <point x="607" y="1287" type="line"/>
    </contour>
    <contour>
      <point x="-10.5" y="1798.5" type="curve" smooth="yes"/>
      <point x="298.5" y="1798.5"/>
      <point x="450" y="1657"/>
      <point x="450" y="1375" type="curve" smooth="yes"/>
      <point x="450" y="1252.5" type="line"/>
      <point x="116.5" y="1252.5" type="line"/>
      <point x="116.5" y="1377.5" type="line" smooth="yes"/>
      <point x="116.5" y="1489.5"/>
      <point x="78.5" y="1526"/>
      <point x="-2.5" y="1526" type="curve" smooth="yes"/>
      <point x="-86.5" y="1526"/>
      <point x="-124" y="1488.5"/>
      <point x="-124" y="1393" type="curve" smooth="yes"/>
      <point x="-124" y="1337" type="line"/>
      <point x="-439.5" y="1370" type="line"/>
      <point x="-450.5" y="1407.5"/>
      <point x="-455" y="1443"/>
      <point x="-455" y="1480" type="curve" smooth="yes"/>
      <point x="-455" y="1669"/>
      <point x="-306.5" y="1798.5"/>
    </contour>
  </outline>
</glyph>
<glyph name="matraU.dv" format="2">
  <unicode hex="0941"/>
  <anchor x="-287.5" y="37" name="_bottom"/>
  <outline>
    <contour>
      <point x="-687.5" y="-175" type="line"/>
      <point x="-619.5" y="-321"/>
      <point x="-526.5" y="-393.5"/>
      <point x="-374.5" y="-393.5" type="curve" smooth="yes"/>
      <point x="-281" y="-393.5"/>
      <point x="-238" y="-362"/>
      <point x="-238" y="-302.5" type="curve" smooth="yes"/>
      <point x="-238" y="-297" type="line" smooth="yes"/>
      <point x="-238" y="-245"/>
      <point x="-272" y="-211.5"/>
      <point x="-367" y="-211.5" type="curve" smooth="yes"/>
      <point x="-433.5" y="-211.5"/>
      <point x="-496.5" y="-225"/>
      <point x="-562" y="-248.5" type="curve"/>
      <point x="-536.5" y="-1.5" type="line"/>
      <point x="-467.5" y="24"/>
      <point x="-393.5" y="37"/>
      <point x="-299.5" y="37" type="curve" smooth="yes"/>
      <point x="-51.5" y="37"/>
      <point x="69.5" y="-95.5"/>
      <point x="69.5" y="-293.5" type="curve" smooth="yes"/>
      <point x="69.5" y="-304" type="line" smooth="yes"/>
      <point x="69.5" y="-516"/>
      <point x="-66" y="-644.5"/>
      <point x="-358" y="-644.5" type="curve" smooth="yes"/>
      <point x="-700.5" y="-644.5"/>
      <point x="-905" y="-484"/>
      <point x="-1013" y="-175" type="curve"/>
    </contour>
  </outline>
  <guideline angle="0" x="0" y="9"/>
  <guideline angle="90" x="-186" y="0"/>
  <guideline angle="90" x="-28" y="0"/>
</glyph>
<glyph name="matraUu.dv" format="2">
  <unicode hex="0942"/>
  <anchor x="-287.5" y="37" name="_bottom"/>
  <outline>
    <contour>
      <point x="-230.5" y="-614.5" type="line"/>
      <point x="-271.246" y="-631"/>
      <point x="-326.078" y="-639"/>
      <point x="-396" y="-639" type="curve" smooth="yes"/>
      <point x="-621.5" y="-639"/>
      <point x="-767.5" y="-522.5"/>
      <point x="-767.5" y="-312" type="curve" smooth="yes"/>
      <point x="-767.5" y="-299.5" type="line" smooth="yes"/>
      <point x="-767.5" y="-93.5"/>
      <point x="-617.5" y="38"/>
      <point x="-344.5" y="38" type="curve" smooth="yes"/>
      <point x="44.5" y="38"/>
      <point x="198.5" y="-201.5"/>
      <point x="299" y="-638.5" type="curve"/>
      <point x="-38" y="-638.5" type="line"/>
      <point x="-107.5" y="-316"/>
      <point x="-176.5" y="-210.5"/>
      <point x="-330" y="-210.5" type="curve" smooth="yes"/>
      <point x="-416.5" y="-210.5"/>
      <point x="-458" y="-243.5"/>
      <point x="-458" y="-299.5" type="curve" smooth="yes"/>
      <point x="-458" y="-304.5" type="line" smooth="yes"/>
      <point x="-458" y="-362.5"/>
      <point x="-418" y="-390.5"/>
      <point x="-333.5" y="-390.5" type="curve" smooth="yes"/>
      <point x="-286.5" y="-390.5"/>
      <point x="-243" y="-383"/>
      <point x="-203.5" y="-370.5" type="curve"/>
    </contour>
  </outline>
</glyph>
<glyph name="matraRu.dv" format="2">
  <unicode hex="0943"/>
  <anchor x="-288" y="37" name="_bottom"/>
  <outline>
    <contour>
      <point x="-318.5" y="-628" type="curve" smooth="yes"/>
      <point x="-586.5" y="-628"/>
      <point x="-754.5" y="-510.5"/>
      <point x="-754.5" y="-292.5" type="curve" smooth="yes"/>
      <point x="-754.5" y="-283" type="line" smooth="yes"/>
      <point x="-754.5" y="-84"/>
      <point x="-617" y="30.5"/>
      <point x="-349.5" y="30.5" type="curve" smooth="yes"/>
      <point x="-115.5" y="30.5" type="line"/>
      <point x="-115.5" y="-209.5" type="line"/>
      <point x="-294.5" y="-209.5" type="line" smooth="yes"/>
      <point x="-405" y="-209.5"/>
      <point x="-442" y="-235"/>
      <point x="-442" y="-285" type="curve" smooth="yes"/>
      <point x="-442" y="-288.5" type="line" smooth="yes"/>
      <point x="-442" y="-342"/>
      <point x="-393" y="-372.5"/>
      <point x="-275.5" y="-372.5" type="curve" smooth="yes"/>
      <point x="-178.5" y="-372.5"/>
      <point x="-89.5" y="-352.5"/>
      <point x="-15" y="-317.5" type="curve"/>
      <point x="-40" y="-574" type="line"/>
      <point x="-112.97" y="-609.5"/>
      <point x="-205.379" y="-628"/>
    </contour>
  </outline>
</glyph>
<glyph name="matraRuu.dv" format="2">
  <unicode hex="0944"/>
  <anchor x="-288" y="37" name="_bottom"/>
  <outline>
    <contour>
      <point x="-115.5" y="31" type="line"/>
      <point x="-115.5" y="-178" type="line"/>
      <point x="-338.214" y="-178" type="line" smooth="yes"/>
      <point x="-435.56" y="-178"/>
      <point x="-468.5" y="-194.5"/>
      <point x="-468.5" y="-229.5" type="curve" smooth="yes"/>
      <point x="-468.5" y="-233" type="line" smooth="yes"/>
      <point x="-468.5" y="-268"/>
      <point x="-428.675" y="-286.5"/>
      <point x="-315.329" y="-286.5" type="curve" smooth="yes"/>
      <point x="-210.661" y="-286.5"/>
      <point x="-121.311" y="-273.5"/>
      <point x="-38.5" y="-246.5" type="curve"/>
      <point x="-59" y="-467.5" type="line"/>
      <point x="-133.843" y="-494"/>
      <point x="-219.765" y="-503.5"/>
      <point x="-323.377" y="-503.5" type="curve" smooth="yes"/>
      <point x="-583.166" y="-503.5"/>
      <point x="-754" y="-413.5"/>
      <point x="-754" y="-236.5" type="curve" smooth="yes"/>
      <point x="-754" y="-228.5" type="line" smooth="yes"/>
      <point x="-754" y="-62.5"/>
      <point x="-629.593" y="31"/>
      <point x="-390.417" y="31" type="curve" smooth="yes"/>
    </contour>
    <contour>
      <point x="-355.5" y="-498.5" type="line"/>
      <point x="-438.701" y="-500.5"/>
      <point x="-465" y="-518.5"/>
      <point x="-465" y="-552" type="curve" smooth="yes"/>
      <point x="-465" y="-554.5" type="line" smooth="yes"/>
      <point x="-465" y="-592.655"/>
      <point x="-418.2" y="-616.5"/>
      <point x="-297.164" y="-616.5" type="curve" smooth="yes"/>
      <point x="-198.468" y="-616.5"/>
      <point x="-115.94" y="-602.5"/>
      <point x="-34" y="-572" type="curve"/>
      <point x="-54" y="-795" type="line"/>
      <point x="-124.874" y="-823"/>
      <point x="-214.835" y="-839"/>
      <point x="-333.097" y="-839" type="curve" smooth="yes"/>
      <point x="-599.946" y="-839"/>
      <point x="-745.5" y="-750.148"/>
      <point x="-745.5" y="-612.738" type="curve" smooth="yes"/>
      <point x="-745.5" y="-607.71" type="line" smooth="yes"/>
      <point x="-745.5" y="-531.283"/>
      <point x="-700.13" y="-480.5"/>
      <point x="-601.5" y="-462.5" type="curve"/>
      <point x="-601.5" y="-422.5" type="line"/>
    </contour>
  </outline>
  <guideline angle="90" x="-46" y="0"/>
  <guideline angle="90" x="-169" y="0"/>
  <guideline angle="0" x="0" y="9"/>
</glyph>
<glyph name="Chandra.dv" format="2">
  <unicode hex="0945"/>
  <anchor x="-287.5" y="1234.5" name="_top"/>
  <outline>
    <contour>
      <point x="114.5" y="1778.5" type="line"/>
      <point x="117.125" y="1757.5"/>
      <point x="117.5" y="1738.58"/>
      <point x="117.5" y="1726" type="curve" smooth="yes"/>
      <point x="117.5" y="1494.65"/>
      <point x="-17.3382" y="1380"/>
      <point x="-287.505" y="1380" type="curve" smooth="yes"/>
      <point x="-557.181" y="1380"/>
      <point x="-693" y="1494.65"/>
      <point x="-693" y="1726" type="curve" smooth="yes"/>
      <point x="-693" y="1740"/>
      <point x="-692" y="1758"/>
      <point x="-689" y="1778.5" type="curve"/>
      <point x="-414.5" y="1778.5" type="line"/>
      <point x="-414.5" y="1774.86"/>
      <point x="-414.5" y="1749.12"/>
      <point x="-414.5" y="1747" type="curve" smooth="yes"/>
      <point x="-414.5" y="1652"/>
      <point x="-375.93" y="1608.5"/>
      <point x="-287.5" y="1608.5" type="curve" smooth="yes"/>
      <point x="-198.6" y="1608.5"/>
      <point x="-160.5" y="1653"/>
      <point x="-160.5" y="1747" type="curve" smooth="yes"/>
      <point x="-160.5" y="1749.32"/>
      <point x="-160.5" y="1775.67"/>
      <point x="-160.5" y="1778.5" type="curve"/>
    </contour>
  </outline>
</glyph>
<glyph name="matraShortE.dv" format="2">
  <unicode hex="0946"/>
  <anchor x="-287.5" y="1234.5" name="_top"/>
  <outline>
    <contour>
      <point x="-827.5" y="1802.5" type="curve"/>
      <point x="-827.5" y="1703"/>
      <point x="-790.505" y="1670.92"/>
      <point x="-659.5" y="1670" type="curve" smooth="yes"/>
      <point x="-517.5" y="1669" type="line" smooth="yes"/>
      <point x="-236.985" y="1667.02"/>
      <point x="-136" y="1542"/>
      <point x="-136" y="1313.5" type="curve" smooth="yes"/>
      <point x="-136" y="1234.5" type="line"/>
      <point x="-437" y="1234.5" type="line"/>
      <point x="-437" y="1299.5" type="line" smooth="yes"/>
      <point x="-437" y="1375.5"/>
      <point x="-458.484" y="1408.55"/>
      <point x="-557.5" y="1409.5" type="curve" smooth="yes"/>
      <point x="-714.5" y="1411" type="line" smooth="yes"/>
      <point x="-1006.04" y="1413.79"/>
      <point x="-1130" y="1514"/>
      <point x="-1130" y="1701.5" type="curve" smooth="yes"/>
      <point x="-1130" y="1741.5"/>
      <point x="-1123.5" y="1782"/>
      <point x="-1110.5" y="1819" type="curve"/>
      <point x="-828" y="1819" type="line"/>
      <point x="-827.959" y="1817.65"/>
      <point x="-827.5" y="1803.89"/>
    </contour>
  </outline>
  <guideline angle="90" x="-169" y="0"/>
  <guideline angle="90" x="-43" y="0"/>
  <guideline angle="0" x="0" y="1262"/>
</glyph>
<glyph name="matraE.dv" format="2">
  <unicode hex="0947"/>
  <anchor x="-287.5" y="1234.5" name="_top"/>
  <outline>
    <contour>
      <point x="-1101.5" y="1780.5" type="line"/>
      <point x="-674.5" y="1780.5" type="line"/>
      <point x="-570.599" y="1679.29"/>
      <point x="-251.37" y="1368.32"/>
      <point x="-153" y="1272.5" type="curve"/>
      <point x="-153" y="1234.5" type="line"/>
      <point x="-463" y="1234.5" type="line"/>
      <point x="-463" y="1298.5" type="line"/>
      <point x="-664.125" y="1357.77"/>
      <point x="-756.064" y="1422.69"/>
      <point x="-913.5" y="1570.5" type="curve" smooth="yes"/>
      <point x="-1101.5" y="1747" type="line"/>
    </contour>
  </outline>
  <guideline angle="90" x="-555" y="0"/>
  <guideline angle="90" x="-156" y="0"/>
  <guideline angle="90" x="-186" y="0"/>
  <guideline angle="90" x="-169" y="0"/>
  <guideline angle="0" x="0" y="1262"/>
</glyph>
<glyph name="matraAChandra.dv" format="2">
  <advance width="575"/>
  <unicode hex="0949"/>
  <outline>
    <contour>
      <point x="459.5" y="0" type="line"/>
      <point x="115.5" y="0" type="line"/>
      <point x="115.5" y="1119" type="line"/>
      <point x="459.5" y="1119" type="line"/>
    </contour>
    <contour>
      <point x="624.5" y="1033" type="line"/>
      <point x="-32" y="1033" type="line"/>
      <point x="-49.5" y="1287" type="line"/>
      <point x="607" y="1287" type="line"/>
    </contour>
    <contour>
      <point x="412" y="1778.5" type="line"/>
      <point x="414.625" y="1757.5"/>
      <point x="415" y="1738.58"/>
      <point x="415" y="1726" type="curve" smooth="yes"/>
      <point x="415" y="1494.65"/>
      <point x="280.162" y="1380"/>
      <point x="9.99516" y="1380" type="curve" smooth="yes"/>
      <point x="-259.681" y="1380"/>
      <point x="-395.5" y="1494.65"/>
      <point x="-395.5" y="1726" type="curve" smooth="yes"/>
      <point x="-395.5" y="1740"/>
      <point x="-394.5" y="1758"/>
      <point x="-391.5" y="1778.5" type="curve"/>
      <point x="-117" y="1778.5" type="line"/>
      <point x="-117" y="1774.86"/>
      <point x="-117" y="1749.12"/>
      <point x="-117" y="1747" type="curve" smooth="yes"/>
      <point x="-117" y="1652"/>
      <point x="-78.4296" y="1608.5"/>
      <point x="10" y="1608.5" type="curve" smooth="yes"/>
      <point x="98.9" y="1608.5"/>
      <point x="137" y="1653"/>
      <point x="137" y="1747" type="curve" smooth="yes"/>
      <point x="137" y="1749.32"/>
      <point x="137" y="1775.67"/>
      <point x="137" y="1778.5" type="curve"/>
    </contour>
  </outline>
</glyph>
<glyph name="matraShortO.dv" format="2">
  <advance width="575"/>
  <unicode hex="094A"/>
  <outline>
    <contour>
      <point x="-262.441" y="1807.39" type="curve"/>
      <point x="-262.441" y="1706.87"/>
      <point x="-225.069" y="1674.47"/>
      <point x="-92.7269" y="1673.53" type="curve" smooth="yes"/>
      <point x="50.7215" y="1672.52" type="line" smooth="yes"/>
      <point x="334.098" y="1670.53"/>
      <point x="436.113" y="1544.23"/>
      <point x="436.113" y="1313.4" type="curve" smooth="yes"/>
      <point x="436.113" y="1233.59" type="line"/>
      <point x="132.043" y="1233.59" type="line"/>
      <point x="132.043" y="1299.25" type="line" smooth="yes"/>
      <point x="132.043" y="1376.03"/>
      <point x="110.339" y="1409.42"/>
      <point x="10.3135" y="1410.38" type="curve" smooth="yes"/>
      <point x="-148.288" y="1411.89" type="line" smooth="yes"/>
      <point x="-442.802" y="1414.71"/>
      <point x="-568.026" y="1515.94"/>
      <point x="-568.026" y="1705.36" type="curve" smooth="yes"/>
      <point x="-568.026" y="1745.76"/>
      <point x="-561.46" y="1786.68"/>
      <point x="-548.327" y="1824.05" type="curve"/>
      <point x="-262.946" y="1824.05" type="line"/>
      <point x="-262.904" y="1822.69"/>
      <point x="-262.441" y="1808.79"/>
    </contour>
    <contour>
      <point x="459.5" y="0" type="line"/>
      <point x="115.5" y="0" type="line"/>
      <point x="115.5" y="1119" type="line"/>
      <point x="459.5" y="1119" type="line"/>
    </contour>
    <contour>
      <point x="624.5" y="1033" type="line"/>
      <point x="-32" y="1033" type="line"/>
      <point x="-49.5" y="1287" type="line"/>
      <point x="607" y="1287" type="line"/>
    </contour>
  </outline>
</glyph>
<glyph name="matraO.dv" format="2">
  <advance width="575"/>
  <unicode hex="094B"/>
  <outline>
    <contour>
      <point x="459.5" y="0" type="line"/>
      <point x="115.5" y="0" type="line"/>
      <point x="115.5" y="1119" type="line"/>
      <point x="459.5" y="1119" type="line"/>
    </contour>
    <contour>
      <point x="624.5" y="1033" type="line"/>
      <point x="-32" y="1033" type="line"/>
      <point x="-49.5" y="1287" type="line"/>
      <point x="607" y="1287" type="line"/>
    </contour>
    <contour>
      <point x="-524.5" y="1780.5" type="line"/>
      <point x="-97.5" y="1780.5" type="line"/>
      <point x="6.40105" y="1679.29"/>
      <point x="325.63" y="1368.32"/>
      <point x="424" y="1272.5" type="curve"/>
      <point x="424" y="1234.5" type="line"/>
      <point x="114" y="1234.5" type="line"/>
      <point x="114" y="1298.5" type="line"/>
      <point x="-87.1251" y="1357.77"/>
      <point x="-179.064" y="1422.69"/>
      <point x="-336.5" y="1570.5" type="curve" smooth="yes"/>
      <point x="-524.5" y="1747" type="line"/>
    </contour>
  </outline>
  <guideline angle="90" x="133" y="0"/>
</glyph>
<glyph name="matraAu.dv" format="2">
  <advance width="575"/>
  <unicode hex="094C"/>
  <outline>
    <contour>
      <point x="459.5" y="0" type="line"/>
      <point x="115.5" y="0" type="line"/>
      <point x="115.5" y="1119" type="line"/>
      <point x="459.5" y="1119" type="line"/>
    </contour>
    <contour>
      <point x="624.5" y="1033" type="line"/>
      <point x="-32" y="1033" type="line"/>
      <point x="-49.5" y="1287" type="line"/>
      <point x="607" y="1287" type="line"/>
    </contour>
    <contour>
      <point x="-231.5" y="1664.5" type="line"/>
      <point x="160.5" y="1411" type="line"/>
      <point x="169" y="1422" type="line"/>
      <point x="39.4004" y="1535.33"/>
      <point x="-22.6356" y="1609.42"/>
      <point x="-87.5" y="1721" type="curve" smooth="yes"/>
      <point x="-171.5" y="1865.5" type="line"/>
      <point x="-171.5" y="1893" type="line"/>
      <point x="168" y="1893" type="line"/>
      <point x="431.5" y="1272.5" type="line"/>
      <point x="431.5" y="1234.5" type="line"/>
      <point x="111" y="1234.5" type="line"/>
      <point x="111" y="1300" type="line"/>
      <point x="-141.5" y="1334.3"/>
      <point x="-261.519" y="1378.72"/>
      <point x="-416.5" y="1481" type="curve" smooth="yes"/>
      <point x="-640" y="1628.5" type="line"/>
      <point x="-640" y="1664.5" type="line"/>
    </contour>
  </outline>
</glyph>
<glyph name="Halant.dv" format="2">
  <unicode hex="094D"/>
  <anchor x="-292.5" y="37" name="_bottom2"/>
  <outline>
    <contour>
      <point x="-487" y="-133.5" type="line"/>
      <point x="-116.5" y="-133.5" type="line"/>
      <point x="222" y="-574.5" type="line"/>
      <point x="222" y="-590" type="line"/>
      <point x="-104" y="-590" type="line"/>
      <point x="-487" y="-165.5" type="line"/>
    </contour>
  </outline>
</glyph>
<glyph name="uni094E" format="2">
  <advance width="575"/>
  <unicode hex="094E"/>
  <outline>
    <contour>
      <point x="459.5" y="1119" type="line"/>
      <point x="459.5" y="0" type="line"/>
      <point x="115.5" y="0" type="line"/>
      <point x="115.5" y="1119" type="line"/>
    </contour>
    <contour>
      <point x="115.5" y="1033" type="line"/>
      <point x="115.5" y="1287" type="line"/>
      <point x="606" y="1287" type="line"/>
      <point x="624.5" y="1033" type="line"/>
    </contour>
  </outline>
</glyph>
